<svg width="50" height="38" viewBox="0 0 50 38" fill="none" xmlns="http://www.w3.org/2000/svg">
<path d="M23.2503 5.10156L10.5488 5.10156C9.16811 5.10156 8.04883 6.22085 8.04883 7.60156L8.04883 34.002C8.04883 35.3827 9.16812 36.502 10.5488 36.502L23.2503 36.502C24.631 36.502 25.7503 35.3827 25.7503 34.002L25.7503 7.60156C25.7503 6.22085 24.631 5.10156 23.2503 5.10156Z" fill="white" stroke="#B2B2B2" stroke-linecap="round" stroke-linejoin="round"/>
<path d="M10.3076 6.44591L23.4908 6.44591C24.043 6.44591 24.4908 6.89362 24.4908 7.44591L24.4908 32.624L9.30762 32.624L9.30762 7.44591C9.30762 6.89363 9.75533 6.44591 10.3076 6.44591Z" fill="#F2F2F2"/>
<path d="M13.5254 15.3594H20.2735" stroke="white" stroke-linecap="round"/>
<path d="M14.3691 17.2363L19.4302 17.2363" stroke="white" stroke-linecap="round"/>
<path d="M10.8262 10.0117V10.8562" stroke="white"/>
<path d="M11.9648 9.58887V10.8556" stroke="white"/>
<path d="M13.1035 9.16699V10.8559" stroke="white"/>
<path d="M31 18C35.4183 18 39 14.4183 39 10C39 5.58172 35.4183 2 31 2C26.5817 2 23 5.58172 23 10C23 14.4183 26.5817 18 31 18Z" fill="white"/>
<path fill-rule="evenodd" clip-rule="evenodd" d="M23 10C23 5.02869 27.0286 1 32 1C36.9708 1 41 5.02924 41 10C41 14.9708 36.9714 19 32 19C27.0286 19 23 14.9713 23 10ZM30.6875 10.8124L35.4375 6.0625L37 7.62494L30.6875 13.9375L27 10.2499L28.5625 8.6875L30.6875 10.8124Z" fill="#0099FF"/>
</svg>
