<svg width="50" height="37" viewBox="0 0 50 37" fill="none" xmlns="http://www.w3.org/2000/svg">
<path d="M38.5 15.5056C38.5 15.3483 38.4259 15.2001 38.3001 15.1057L20.3001 1.60006C20.1223 1.46665 19.8777 1.46665 19.6999 1.60006L1.69992 15.1057C1.57406 15.2001 1.5 15.3483 1.5 15.5056V34.625C1.5 34.9011 1.72386 35.125 2 35.125H38C38.2761 35.125 38.5 34.9011 38.5 34.625V15.5056Z" fill="white" stroke="#B2B2B2" stroke-linecap="round" stroke-linejoin="round"/>
<path d="M35.625 17.7774C35.625 17.8464 35.569 17.9024 35.5 17.9024H32.9741C32.8992 17.9024 32.826 17.9248 32.764 17.9668L20.0713 26.5517C20.029 26.5803 19.9735 26.5803 19.9312 26.5517L7.2378 17.9668C7.17577 17.9248 7.1026 17.9024 7.02772 17.9024H4.5C4.43096 17.9024 4.375 17.8464 4.375 17.7774V11.25C4.375 11.181 4.43096 11.125 4.5 11.125H35.5C35.569 11.125 35.625 11.181 35.625 11.25V17.7774Z" fill="#B2B2B2" stroke="#B2B2B2" stroke-width="0.25"/>
<path d="M38.5 15.5C38.5 15.3212 38.4045 15.156 38.2496 15.0668C38.0947 14.9775 37.904 14.9778 37.7493 15.0674L20 25.3539L2.25071 15.0674C2.09603 14.9778 1.90526 14.9775 1.75036 15.0668C1.59545 15.156 1.5 15.3212 1.5 15.5V34.625C1.5 34.9011 1.72386 35.125 2 35.125H38C38.2761 35.125 38.5 34.9011 38.5 34.625V15.5Z" fill="white" stroke="#B2B2B2" stroke-linecap="round" stroke-linejoin="round"/>
<path d="M41 19C45.4183 19 49 15.4183 49 11C49 6.58172 45.4183 3 41 3C36.5817 3 33 6.58172 33 11C33 15.4183 36.5817 19 41 19Z" fill="#FF4F00" stroke="#FF4F00" stroke-width="2" stroke-linecap="round" stroke-linejoin="round"/>
<path d="M44.3831 8.62867C44.1876 8.42937 43.9556 8.27126 43.7001 8.16339C43.4447 8.05552 43.1709 8 42.8944 8C42.6178 8 42.344 8.05552 42.0886 8.16339C41.8331 8.27126 41.6011 8.42937 41.4056 8.62867L40.9999 9.04211L40.5942 8.62867C40.1994 8.22627 39.6638 8.00021 39.1054 8.00021C38.547 8.00021 38.0115 8.22627 37.6167 8.62867C37.2218 9.03107 37 9.57684 37 10.1459C37 10.715 37.2218 11.2608 37.6167 11.6632L38.0224 12.0766L40.9999 15.1111L43.9774 12.0766L44.3831 11.6632C44.5787 11.464 44.7338 11.2274 44.8397 10.9671C44.9455 10.7068 45 10.4277 45 10.1459C45 9.86413 44.9455 9.58509 44.8397 9.32475C44.7338 9.06442 44.5787 8.82789 44.3831 8.62867V8.62867Z" stroke="white" stroke-width="1.5" stroke-linecap="round" stroke-linejoin="round"/>
</svg>
