<svg width="354" height="220" viewBox="0 0 354 220" xmlns="http://www.w3.org/2000/svg">
  <rect width="354" height="220" fill="white"/>
  <circle opacity="0.3" cx="185.5" cy="109.5" r="100" fill="#F9F9F9" stroke="#D486F8"/>
  <g opacity="0.3">
    <g opacity="0.5">
      <path d="M153.469 32.8813L153.466 32.883C152.487 33.5369 151.757 34.4643 151.114 35.4082C150.882 35.7482 150.665 36.0846 150.452 36.4152C150.054 37.031 149.67 37.6264 149.229 38.1864C148.588 38.9956 147.699 39.6762 146.808 39.9869C145.927 40.2941 145.105 40.2266 144.465 39.6584L144.465 39.6584C143.818 39.0849 143.493 38.0905 143.406 37.0204L143.406 37.0202C143.282 35.5129 143.616 33.9616 144.318 32.6813C144.641 32.0966 145.036 31.5651 145.456 31.0024C145.516 30.9211 145.577 30.8392 145.639 30.7563C146.116 30.112 146.607 29.4209 146.96 28.6198C147.326 27.7899 147.472 26.7769 147.338 25.8625C147.204 24.9531 146.776 24.0524 145.902 23.6012L145.9 23.6003C145.513 23.4025 145.08 23.3246 144.736 23.2626C144.684 23.2532 144.633 23.2441 144.585 23.2351C144.187 23.1596 143.908 23.0802 143.691 22.9023C143.329 22.603 143.216 22.049 143.417 21.3927C143.617 20.7399 144.081 20.1693 144.592 19.9526L144.396 19.4923L144.592 19.9526C145.164 19.7096 145.786 19.6743 146.477 19.7255C146.82 19.7508 147.168 19.7962 147.533 19.8438L147.543 19.8451C147.906 19.8925 148.286 19.9418 148.665 19.9685C151.424 20.1649 153.802 19.2497 155.967 17.9092C157.607 16.893 159.159 15.6085 160.666 14.3613C161.13 13.9767 161.591 13.5956 162.048 13.227L162.049 13.2264C163.529 12.0289 165.868 10.7135 168.261 10.0098C170.676 9.29942 173 9.25256 174.58 10.3755L174.58 10.3758C175.158 10.7858 175.593 11.5553 175.724 12.3681C175.856 13.184 175.666 13.91 175.183 14.3212C174.96 14.5117 174.693 14.6354 174.35 14.7944C174.332 14.803 174.313 14.8116 174.294 14.8205C173.948 14.9815 173.526 15.1831 173.177 15.5372C172.757 15.9624 172.539 16.5022 172.379 16.995C172.317 17.1854 172.265 17.3627 172.216 17.5318C172.126 17.8367 172.045 18.1148 171.927 18.3947L171.927 18.3947C171.486 19.445 170.627 20.1751 169.657 21.0007L169.653 21.0039C168.713 21.8029 167.665 22.6958 167.151 24.0362C166.894 24.7054 166.794 25.4451 166.705 26.1101C166.689 26.231 166.673 26.3494 166.656 26.4645C166.544 27.25 166.405 27.9078 166.051 28.4303C165.491 29.2491 164.506 29.5668 163.401 29.8548L163.4 29.855C162.26 30.1546 161.12 30.457 159.981 30.7592L159.981 30.7592C158.841 31.0614 157.702 31.3635 156.564 31.6628L156.564 31.6627L156.558 31.6644L156.502 31.6799C155.509 31.954 154.419 32.2546 153.469 32.8813Z" fill="#D486F8" stroke="#D486F8"/>
    </g>
    <g opacity="0.5">
      <path d="M231.027 155.127C231.445 154.444 231.984 153.746 232.553 153.021C232.596 152.966 232.638 152.912 232.681 152.857C233.204 152.191 233.745 151.503 234.198 150.815L234.199 150.813C234.335 150.604 234.459 150.398 234.571 150.212C234.613 150.142 234.653 150.075 234.692 150.012C234.839 149.771 234.968 149.572 235.109 149.403C235.37 149.086 235.679 148.857 236.236 148.735L236.236 148.735C237.487 148.462 238.587 148.965 239.487 149.987C240.395 151.02 241.058 152.55 241.361 154.179C241.664 155.808 241.595 157.473 241.106 158.766C240.624 160.041 239.752 160.921 238.422 161.13C238.113 161.178 237.776 161.173 237.404 161.147C237.268 161.138 237.115 161.124 236.956 161.11C236.719 161.089 236.47 161.067 236.249 161.057C235.467 161.018 234.574 161.079 233.866 161.775C233.458 162.173 233.229 162.675 233.071 163.158C232.974 163.453 232.89 163.788 232.813 164.097C232.771 164.268 232.73 164.431 232.691 164.574C232.355 165.771 231.718 166.844 230.83 167.432C229.953 168.014 228.805 168.03 228.056 167.399C227.69 167.091 227.43 166.584 227.35 166.028C227.271 165.474 227.38 164.937 227.666 164.559C227.804 164.379 227.978 164.227 228.193 164.055C228.226 164.029 228.259 164.002 228.294 163.975C228.478 163.829 228.693 163.659 228.883 163.463L228.883 163.463L228.886 163.46C229.996 162.292 230.144 160.649 230.236 159.171C230.242 159.061 230.249 158.952 230.255 158.844C230.341 157.418 230.418 156.135 231.027 155.127Z" fill="#D486F8" stroke="#D486F8"/>
    </g>
    <g opacity="0.5">
      <path d="M97.0954 134.714C96.8119 131.822 97.6727 128.941 97.7132 126.014C97.7436 124.003 97.6119 121.879 97.5816 119.857C96.0321 119.778 94.4927 119.54 92.9938 119.134C92.6799 119.055 92.3356 118.942 92.1533 118.659C91.9507 118.354 91.9811 117.959 91.971 117.586C91.8596 115.315 89.8949 113.824 88.1327 112.682C87.2314 112.095 86.3199 111.519 85.3477 111.146C85.3477 111.383 85.3477 111.609 85.3578 111.846C85.7123 123.065 87.7175 133.844 91.1102 143.843C92.6596 148.407 94.5028 152.825 96.6296 157.062C97.5208 158.892 98.493 160.7 99.5058 162.474C100.762 164.665 102.078 166.801 103.496 168.857C104.813 170.834 106.21 172.766 107.689 174.619C109.704 177.184 111.841 179.636 114.079 181.963C116.064 184.042 118.14 185.996 120.297 187.872C115.365 173.094 110.717 158.011 102.271 145.436C100.063 142.148 97.5107 138.793 97.0954 134.714Z" fill="#D486F8"/>
    </g>
    <g opacity="0.5">
      <mask id="path-5-inside-1" fill="white">
        <path d="M97.8145 116.045C97.6322 116.011 97.46 115.977 97.2676 115.954C95.6776 115.762 93.8243 115.672 92.9432 114.203C91.9305 112.497 92.9331 109.955 91.8798 108.283C91.333 107.402 90.3911 107.018 89.6214 106.396C88.8517 105.786 88.1935 104.645 88.6593 103.719C89.0442 102.939 90.0468 102.781 90.543 102.058C90.9481 101.481 90.9278 100.6 90.5126 100.058C88.8821 97.8999 87.0693 102.295 86.168 103.334C85.9148 103.639 85.6717 103.888 85.4388 104.103V104.114C85.4287 104.306 85.4084 104.476 85.4084 104.668C85.3882 105.266 85.3882 105.876 85.378 106.487C85.3679 107.097 85.3477 107.695 85.3477 108.306C85.3477 108.803 85.3578 109.289 85.3679 109.786C85.378 110.283 85.378 110.78 85.3882 111.266C86.3604 111.627 87.2719 112.203 88.1732 112.802C89.9354 113.932 91.89 115.435 92.0115 117.706C92.0216 118.079 92.0014 118.474 92.1938 118.779C92.3761 119.061 92.7204 119.174 93.0344 119.254C94.5332 119.649 96.0827 119.886 97.6221 119.977"/>
      </mask>
      <path d="M97.8145 116.045C97.6322 116.011 97.46 115.977 97.2676 115.954C95.6776 115.762 93.8243 115.672 92.9432 114.203C91.9305 112.497 92.9331 109.955 91.8798 108.283C91.333 107.402 90.3911 107.018 89.6214 106.396C88.8517 105.786 88.1935 104.645 88.6593 103.719C89.0442 102.939 90.0468 102.781 90.543 102.058C90.9481 101.481 90.9278 100.6 90.5126 100.058C88.8821 97.8999 87.0693 102.295 86.168 103.334C85.9148 103.639 85.6717 103.888 85.4388 104.103V104.114C85.4287 104.306 85.4084 104.476 85.4084 104.668C85.3882 105.266 85.3882 105.876 85.378 106.487C85.3679 107.097 85.3477 107.695 85.3477 108.306C85.3477 108.803 85.3578 109.289 85.3679 109.786C85.378 110.283 85.378 110.78 85.3882 111.266C86.3604 111.627 87.2719 112.203 88.1732 112.802C89.9354 113.932 91.89 115.435 92.0115 117.706C92.0216 118.079 92.0014 118.474 92.1938 118.779C92.3761 119.061 92.7204 119.174 93.0344 119.254C94.5332 119.649 96.0827 119.886 97.6221 119.977" fill="#D486F8"/>
      <path d="M97.2676 115.954L97.1477 116.947L97.151 116.948L97.2676 115.954ZM92.9432 114.203L92.0833 114.714L92.0857 114.718L92.9432 114.203ZM91.8798 108.283L91.0301 108.81L91.0337 108.816L91.8798 108.283ZM89.6214 106.396L90.2496 105.618L90.2426 105.613L89.6214 106.396ZM88.6593 103.719L89.5528 104.168L89.556 104.161L88.6593 103.719ZM90.543 102.058L89.7249 101.483L89.7185 101.492L90.543 102.058ZM90.5126 100.058L89.7148 100.661L89.7186 100.666L90.5126 100.058ZM86.168 103.334L85.4125 102.679L85.4054 102.687L85.3985 102.696L86.168 103.334ZM85.4388 104.103L84.7611 103.367L84.4388 103.664V104.103H85.4388ZM85.4388 104.114L86.4374 104.167L86.4388 104.14V104.114H85.4388ZM85.4084 104.668L86.4078 104.701L86.4084 104.684V104.668H85.4084ZM85.3882 111.266L84.3884 111.287L84.4025 111.966L85.0396 112.203L85.3882 111.266ZM88.1732 112.802L87.6198 113.635L87.6266 113.64L87.6335 113.644L88.1732 112.802ZM92.0115 117.706L93.0111 117.679L93.0108 117.665L93.0101 117.652L92.0115 117.706ZM92.1938 118.779L91.3479 119.313L91.3536 119.321L92.1938 118.779ZM93.0344 119.254L93.2895 118.287L93.2786 118.284L93.0344 119.254ZM97.9973 115.062C97.8287 115.03 97.6178 114.989 97.3842 114.961L97.151 116.948C97.3023 116.965 97.4357 116.992 97.6317 117.028L97.9973 115.062ZM97.3875 114.962C96.5322 114.858 95.7922 114.798 95.1253 114.599C94.4949 114.411 94.0686 114.135 93.8007 113.689L92.0857 114.718C92.6989 115.74 93.6398 116.243 94.5539 116.516C95.4313 116.778 96.413 116.859 97.1477 116.947L97.3875 114.962ZM93.8031 113.693C93.4613 113.117 93.4348 112.354 93.4267 111.223C93.4196 110.232 93.4316 108.87 92.726 107.75L91.0337 108.816C91.3813 109.368 91.4187 110.113 91.4267 111.238C91.4338 112.223 91.4124 113.584 92.0833 114.714L93.8031 113.693ZM92.7295 107.756C92.353 107.149 91.8554 106.741 91.4129 106.427C90.9056 106.067 90.615 105.913 90.2496 105.618L88.9932 107.174C89.3975 107.501 89.9626 107.85 90.2555 108.058C90.613 108.311 90.8598 108.536 91.0301 108.81L92.7295 107.756ZM90.2426 105.613C89.9727 105.399 89.7272 105.091 89.5976 104.785C89.4695 104.483 89.492 104.289 89.5527 104.168L87.7659 103.269C87.3608 104.075 87.4795 104.914 87.7565 105.567C88.032 106.216 88.5004 106.784 89.0002 107.18L90.2426 105.613ZM89.556 104.161C89.6087 104.054 89.7164 103.95 90.0926 103.713C90.3954 103.522 90.9779 103.191 91.3675 102.624L89.7185 101.492C89.6119 101.647 89.4449 101.757 89.0262 102.021C88.6808 102.239 88.0947 102.603 87.7626 103.276L89.556 104.161ZM91.3611 102.633C92.0147 101.703 91.9901 100.343 91.3066 99.45L89.7186 100.666C89.8656 100.858 89.8815 101.26 89.725 101.483L91.3611 102.633ZM91.3105 99.4551C91.0347 99.0901 90.6944 98.7821 90.2714 98.6101C89.8305 98.4308 89.3856 98.4346 88.9836 98.556C88.2583 98.775 87.6879 99.3717 87.287 99.8712C86.8573 100.407 86.4648 101.038 86.1457 101.557C85.7952 102.128 85.5689 102.499 85.4125 102.679L86.9235 103.99C87.2178 103.65 87.556 103.082 87.8499 102.604C88.1751 102.074 88.5067 101.547 88.8467 101.123C89.2155 100.664 89.4604 100.501 89.5617 100.471C89.573 100.467 89.5443 100.473 89.5181 100.463C89.5099 100.46 89.5829 100.486 89.7148 100.661L91.3105 99.4551ZM85.3985 102.696C85.1766 102.963 84.9649 103.18 84.7611 103.367L86.1165 104.838C86.3786 104.596 86.653 104.316 86.9375 103.973L85.3985 102.696ZM84.4388 104.103V104.114H86.4388V104.103H84.4388ZM84.4402 104.061C84.4347 104.165 84.4084 104.448 84.4084 104.668H86.4084C86.4084 104.503 86.4226 104.447 86.4374 104.167L84.4402 104.061ZM84.409 104.634C84.3884 105.243 84.3879 105.884 84.3782 106.47L86.3779 106.503C86.3884 105.869 86.3879 105.29 86.4078 104.701L84.409 104.634ZM84.3782 106.47C84.3684 107.056 84.3477 107.686 84.3477 108.306H86.3477C86.3477 107.705 86.3674 107.137 86.3779 106.503L84.3782 106.47ZM84.3477 108.306C84.3477 108.815 84.358 109.311 84.3681 109.806L86.3677 109.765C86.3575 109.266 86.3477 108.791 86.3477 108.306H84.3477ZM84.3681 109.806C84.3731 110.049 84.3756 110.292 84.3781 110.54C84.3806 110.786 84.3832 111.037 84.3884 111.287L86.3879 111.245C86.383 111.008 86.3805 110.768 86.378 110.52C86.3755 110.273 86.3729 110.02 86.3677 109.765L84.3681 109.806ZM85.0396 112.203C85.8919 112.52 86.7177 113.036 87.6198 113.635L88.7266 111.969C87.826 111.371 86.8289 110.735 85.7367 110.328L85.0396 112.203ZM87.6335 113.644C88.4979 114.198 89.3343 114.798 89.9659 115.497C90.5875 116.184 90.968 116.919 91.0129 117.759L93.0101 117.652C92.9335 116.221 92.2759 115.069 91.4493 114.155C90.6326 113.252 89.6106 112.536 88.7129 111.96L87.6335 113.644ZM91.0119 117.733C91.0154 117.863 91.014 118.139 91.0403 118.377C91.069 118.637 91.1387 118.981 91.348 119.313L93.0396 118.246C93.0564 118.272 93.0401 118.265 93.0282 118.158C93.0225 118.106 93.0191 118.044 93.0168 117.961C93.0157 117.92 93.015 117.878 93.0142 117.83C93.0134 117.783 93.0126 117.731 93.0111 117.679L91.0119 117.733ZM91.3536 119.321C91.7727 119.971 92.5007 120.15 92.7901 120.223L93.2786 118.284C93.2116 118.267 93.1567 118.252 93.1092 118.236C93.0618 118.22 93.0298 118.207 93.0089 118.197C92.9665 118.176 92.9984 118.182 93.034 118.237L91.3536 119.321ZM92.7793 120.22C94.3463 120.634 95.9619 120.881 97.5635 120.975L97.6807 118.978C96.2035 118.892 94.7201 118.664 93.2895 118.287L92.7793 120.22Z" fill="#D486F8" mask="url(#path-5-inside-1)"/>
    </g>
    <g opacity="0.5">
      <mask id="path-7-inside-2" fill="white">
      <path d="M97.6833 119.903C97.7137 121.926 97.7137 123.73 97.6833 125.741C97.6428 128.668 96.6522 132.023 96.9357 134.916C97.351 139.006 99.951 142.053 102.169 145.341C110.605 157.916 114.794 172.89 120.111 187.042L120.579 187.433C121.49 188.246 122.422 189.015 123.364 189.76C124.103 190.359 124.863 190.947 125.622 191.523C126.382 192.099 127.151 192.653 127.931 193.195C128.478 193.579 129.015 193.941 129.572 194.314C129.501 194.133 129.43 193.975 129.359 193.805C127.374 188.936 127.253 181.919 131.537 179.502C132.357 179.038 133.278 178.778 133.957 178.078C135.861 176.067 134.301 171.92 136.205 169.909C137.279 168.791 138.95 168.87 140.287 168.203C142.677 166.972 143.446 163.56 143.264 160.622C143.062 157.707 142.201 154.792 142.505 151.877C142.981 147.46 146.069 142.974 144.297 138.986C142.312 134.535 136.519 135.246 132.438 133.258C126.746 130.467 124.984 122.581 121.267 117.011C117.935 112.029 110.148 106.56 104.233 108.063C99.9391 109.148 98.1289 112.636 97.6833 116.15"/>
      </mask>
      <path d="M97.6833 119.903C97.7137 121.926 97.7137 123.73 97.6833 125.741C97.6428 128.668 96.6522 132.023 96.9357 134.916C97.351 139.006 99.951 142.053 102.169 145.341C110.605 157.916 114.794 172.89 120.111 187.042L120.579 187.433C121.49 188.246 122.422 189.015 123.364 189.76C124.103 190.359 124.863 190.947 125.622 191.523C126.382 192.099 127.151 192.653 127.931 193.195C128.478 193.579 129.015 193.941 129.572 194.314C129.501 194.133 129.43 193.975 129.359 193.805C127.374 188.936 127.253 181.919 131.537 179.502C132.357 179.038 133.278 178.778 133.957 178.078C135.861 176.067 134.301 171.92 136.205 169.909C137.279 168.791 138.95 168.87 140.287 168.203C142.677 166.972 143.446 163.56 143.264 160.622C143.062 157.707 142.201 154.792 142.505 151.877C142.981 147.46 146.069 142.974 144.297 138.986C142.312 134.535 136.519 135.246 132.438 133.258C126.746 130.467 124.984 122.581 121.267 117.011C117.935 112.029 110.148 106.56 104.233 108.063C99.9391 109.148 98.1289 112.636 97.6833 116.15" fill="#D486F8"/>
      <path d="M97.6833 125.741L96.6834 125.726L96.6834 125.728L97.6833 125.741ZM96.9357 134.916L95.9405 135.013L95.9408 135.017L96.9357 134.916ZM102.169 145.341L102.999 144.784L102.998 144.782L102.169 145.341ZM120.111 187.042L119.175 187.394L119.268 187.64L119.47 187.809L120.111 187.042ZM120.579 187.433L121.245 186.687L121.233 186.676L121.22 186.666L120.579 187.433ZM123.364 189.76L123.993 188.983L123.985 188.976L123.364 189.76ZM127.931 193.195L128.506 192.377L128.502 192.374L127.931 193.195ZM129.572 194.314L129.016 195.145L131.668 196.92L130.503 193.948L129.572 194.314ZM129.359 193.805L128.433 194.183L128.437 194.191L129.359 193.805ZM131.537 179.502L132.028 180.372L132.028 180.372L131.537 179.502ZM133.957 178.078L134.675 178.774L134.683 178.766L133.957 178.078ZM136.205 169.909L135.484 169.217L135.479 169.222L136.205 169.909ZM140.287 168.203L140.733 169.098L140.745 169.092L140.287 168.203ZM143.264 160.622L144.262 160.56L144.262 160.553L143.264 160.622ZM142.505 151.877L141.51 151.77L141.51 151.774L142.505 151.877ZM144.297 138.986L145.211 138.58L145.21 138.579L144.297 138.986ZM132.438 133.258L131.998 134.156L132 134.157L132.438 133.258ZM121.267 117.011L122.099 116.456L122.099 116.455L121.267 117.011ZM104.233 108.063L104.478 109.033L104.479 109.032L104.233 108.063ZM96.6834 119.918C96.7137 121.931 96.7137 123.725 96.6834 125.726L98.6832 125.756C98.7137 123.735 98.7137 121.921 98.6832 119.888L96.6834 119.918ZM96.6834 125.728C96.6643 127.111 96.4205 128.596 96.1975 130.204C95.9805 131.768 95.7859 133.436 95.9405 135.013L97.931 134.818C97.802 133.503 97.9609 132.047 98.1785 130.479C98.39 128.954 98.6619 127.298 98.6832 125.755L96.6834 125.728ZM95.9408 135.017C96.1678 137.252 96.9909 139.176 98.0118 140.932C99.0119 142.652 100.276 144.322 101.34 145.9L102.998 144.782C101.844 143.072 100.699 141.575 99.7408 139.926C98.8034 138.314 98.1189 136.669 97.9306 134.815L95.9408 135.017ZM101.338 145.898C109.689 158.345 113.816 173.128 119.175 187.394L121.047 186.69C115.773 172.652 111.521 157.487 102.999 144.784L101.338 145.898ZM119.47 187.809L119.937 188.2L121.22 186.666L120.753 186.275L119.47 187.809ZM119.913 188.179C120.843 189.009 121.791 189.791 122.743 190.544L123.985 188.976C123.053 188.239 122.137 187.483 121.245 186.687L119.913 188.179ZM122.734 190.537C123.485 191.145 124.254 191.74 125.018 192.32L126.227 190.726C125.472 190.153 124.721 189.573 123.993 188.983L122.734 190.537ZM125.018 192.32C125.791 192.906 126.572 193.468 127.36 194.016L128.502 192.374C127.731 191.838 126.973 191.292 126.227 190.726L125.018 192.32ZM127.356 194.013C127.913 194.404 128.458 194.771 129.016 195.145L130.128 193.483C129.572 193.11 129.043 192.754 128.506 192.377L127.356 194.013ZM130.503 193.948C130.427 193.756 130.34 193.558 130.282 193.419L128.437 194.191C128.52 194.391 128.575 194.51 128.641 194.679L130.503 193.948ZM130.285 193.428C129.346 191.123 128.853 188.314 129.092 185.83C129.333 183.334 130.284 181.357 132.028 180.372L131.045 178.631C128.505 180.064 127.375 182.804 127.102 185.638C126.827 188.484 127.388 191.618 128.433 194.183L130.285 193.428ZM132.028 180.372C132.426 180.148 132.729 180.034 133.25 179.772C133.706 179.542 134.222 179.242 134.675 178.774L133.239 177.382C133.014 177.614 132.729 177.795 132.35 177.986C132.035 178.144 131.468 178.392 131.045 178.631L132.028 180.372ZM134.683 178.766C135.33 178.083 135.648 177.252 135.821 176.446C135.992 175.653 136.038 174.802 136.08 174.05C136.124 173.263 136.164 172.574 136.296 171.962C136.425 171.361 136.626 170.919 136.931 170.597L135.479 169.222C134.833 169.905 134.514 170.735 134.341 171.541C134.17 172.334 134.125 173.185 134.083 173.938C134.039 174.725 133.998 175.413 133.866 176.026C133.737 176.626 133.536 177.068 133.231 177.391L134.683 178.766ZM136.927 170.602C137.271 170.243 137.738 170.042 138.419 169.849C139.028 169.677 139.953 169.487 140.733 169.098L139.84 167.308C139.284 167.586 138.704 167.69 137.875 167.925C137.119 168.139 136.213 168.457 135.484 169.217L136.927 170.602ZM140.745 169.092C142.248 168.318 143.168 166.896 143.687 165.375C144.206 163.85 144.359 162.128 144.262 160.56L142.266 160.684C142.351 162.055 142.211 163.506 141.793 164.73C141.375 165.958 140.715 166.857 139.829 167.314L140.745 169.092ZM144.262 160.553C144.157 159.05 143.88 157.513 143.685 156.112C143.485 154.674 143.36 153.314 143.499 151.981L141.51 151.774C141.345 153.356 141.499 154.911 141.704 156.388C141.914 157.902 142.168 159.279 142.267 160.692L144.262 160.553ZM143.499 151.985C143.608 150.971 143.87 149.931 144.193 148.846C144.5 147.814 144.905 146.616 145.207 145.541C145.828 143.331 146.248 140.914 145.211 138.58L143.383 139.392C144.118 141.046 143.881 142.866 143.281 145C142.973 146.098 142.627 147.098 142.276 148.275C141.942 149.398 141.639 150.575 141.51 151.77L143.499 151.985ZM145.21 138.579C144.032 135.936 141.716 134.887 139.427 134.237C138.306 133.918 137.06 133.662 135.973 133.395C134.843 133.117 133.799 132.809 132.876 132.359L132 134.157C133.118 134.702 134.328 135.05 135.495 135.337C136.703 135.634 137.794 135.852 138.88 136.16C141.004 136.764 142.577 137.585 143.384 139.393L145.21 138.579ZM132.878 132.36C130.331 131.111 128.592 128.687 126.994 125.705C126.195 124.214 125.467 122.657 124.676 121.063C123.895 119.488 123.065 117.904 122.099 116.456L120.436 117.566C121.328 118.903 122.112 120.394 122.885 121.951C123.647 123.489 124.413 125.123 125.231 126.649C126.866 129.7 128.854 132.614 131.998 134.156L132.878 132.36ZM122.099 116.455C120.341 113.827 117.444 111.113 114.221 109.24C111.019 107.381 107.311 106.249 103.987 107.094L104.479 109.032C107.069 108.374 110.212 109.225 113.216 110.97C116.199 112.702 118.862 115.213 120.436 117.567L122.099 116.455ZM103.988 107.093C99.1515 108.315 97.167 112.273 96.6913 116.024L98.6754 116.276C99.0908 113 100.727 109.98 104.478 109.033L103.988 107.093Z" fill="#D486F8" mask="url(#path-7-inside-2)"/>
    </g>
    <path opacity="0.5" d="M161.204 106.218C162.521 108.806 165.944 110.24 167.919 108.229C168.456 107.677 168.81 106.96 169.164 106.242C169.405 105.755 169.645 105.267 169.944 104.829C171.139 103.066 173.316 102.23 175.22 102.795M161.204 106.218L216.722 147.83C214.704 151.217 214.153 155.364 213.614 159.421C213.547 159.924 213.48 160.425 213.411 160.924C212.783 165.443 211.699 170.256 208.59 173.228C205.481 176.199 199.759 176.03 198.048 171.872C197.498 170.54 197.438 169.071 197.378 167.594C197.336 166.565 197.293 165.532 197.085 164.54M161.204 106.218C159.888 103.631 160.07 100.467 160.293 97.5073L161.204 106.218ZM175.22 102.795C176.821 103.269 178.107 104.591 179.241 105.947C188.437 116.997 191.728 132.724 192.133 147.796C192.138 147.976 192.142 148.156 192.147 148.336C192.209 150.921 192.273 153.556 193.116 155.953M175.22 102.795L175.363 102.315C175.363 102.315 175.363 102.316 175.363 102.316M175.22 102.795L175.363 102.316M193.116 155.953C193.573 157.247 194.251 158.434 194.926 159.617C195.82 161.184 196.711 162.744 197.085 164.54M193.116 155.953L193.587 155.786C193.587 155.786 193.587 155.786 193.587 155.787M193.116 155.953L193.587 155.787C193.587 155.787 193.587 155.787 193.587 155.787M197.085 164.54L197.575 164.437M197.085 164.54L197.575 164.437C197.575 164.437 197.575 164.437 197.575 164.437M197.575 164.437C197.229 162.779 196.467 161.326 195.688 159.945C195.578 159.75 195.467 159.557 195.358 159.364C194.681 158.178 194.029 157.034 193.587 155.787M197.575 164.437L233.488 106.185C232.742 105.884 231.93 105.849 231.013 105.81L231.007 105.809C230.122 105.772 229.134 105.73 228.203 105.334L228.201 105.333C226.977 104.803 226.113 103.784 225.463 102.633C224.813 101.481 224.349 100.148 223.954 98.9267L223.953 98.9252C222.925 95.7167 221.895 92.5053 220.864 89.2937L220.863 89.2881C219.833 86.0787 218.803 82.8693 217.776 79.6627C217.155 77.7381 216.392 75.7032 215.348 74.0861C214.304 72.4681 213.027 71.3404 211.4 71.0891L211.398 71.0888C210.474 70.9423 209.542 71.1128 208.547 71.3951C208.223 71.4869 207.885 71.5939 207.537 71.7035C206.859 71.9175 206.149 72.1416 205.46 72.2824L205.459 72.2826C204.456 72.4863 203.4 72.3198 202.338 71.943C201.276 71.566 200.175 70.9669 199.065 70.2654C197.954 69.563 196.816 68.7457 195.681 67.9247C195.591 67.8596 195.501 67.7945 195.411 67.7293C194.363 66.9702 193.319 66.2145 192.287 65.5342C190.022 64.0405 187.929 62.9921 186.119 63.0281C185.238 63.0456 184.415 63.3211 183.653 63.9555C182.881 64.5974 182.147 65.6262 181.495 67.1841L180.879 68.6534L180.545 67.0958C180.386 66.3554 180.013 65.9131 179.548 65.6681C179.066 65.4144 178.429 65.3448 177.721 65.4706C176.292 65.7243 174.755 66.7396 174.023 68.1379C173.462 69.2095 173.065 70.3901 172.656 71.6073C172.489 72.1038 172.32 72.6063 172.137 73.11C171.521 74.8056 170.753 76.4809 169.353 77.6449C168.435 78.4102 167.33 78.8633 166.316 79.2794C166.164 79.3417 166.014 79.4032 165.867 79.4648C164.706 79.9514 163.695 80.4528 162.977 81.3747C161.96 82.694 161.755 84.5916 161.612 86.5397L161.612 86.54C161.475 88.376 161.338 90.2091 161.201 92.0423C161.065 93.8754 160.928 95.7085 160.791 97.5444L160.791 97.5448C160.566 100.531 160.407 103.549 161.65 105.991C162.249 107.17 163.333 108.086 164.475 108.475C165.608 108.86 166.74 108.715 167.561 107.88C167.954 107.476 168.246 106.958 168.545 106.364C168.599 106.256 168.654 106.146 168.709 106.034C168.95 105.545 169.21 105.017 169.531 104.547C170.836 102.622 173.231 101.683 175.363 102.316M175.363 102.316C177.121 102.837 178.491 104.271 179.624 105.626L179.625 105.627C188.927 116.804 192.227 132.667 192.633 147.782L192.633 147.783C192.637 147.957 192.642 148.131 192.646 148.304C192.71 150.909 192.772 153.467 193.587 155.787" fill="#D486F8" stroke="#D486F8"/>
  </g>
  <path fill-rule="evenodd" clip-rule="evenodd" d="M261.35 114.009C241.983 112.852 221.281 118.929 203.127 124.547C201.961 124.908 200.723 124.255 200.362 123.089C200.001 121.923 200.654 120.685 201.82 120.324C219.864 114.74 241.32 108.384 261.613 109.596C282.129 110.821 301.435 119.779 314.939 144.511C315.524 145.582 315.13 146.925 314.059 147.51C312.987 148.095 311.644 147.701 311.059 146.63C298.354 123.361 280.495 115.152 261.35 114.009Z" fill="white" stroke="#006bff" stroke-opacity="0.5" stroke-width="0.69294" stroke-linecap="round"/>
  <path fill-rule="evenodd" clip-rule="evenodd" d="M248.537 82.0216C229.213 92.6292 212.379 108.915 203.579 120.095C202.824 121.055 201.435 121.22 200.475 120.465C199.516 119.71 199.35 118.32 200.105 117.361C209.201 105.805 226.472 89.0908 246.41 78.146C266.298 67.2289 289.441 61.754 309.714 73.8843C310.761 74.5112 311.102 75.8686 310.475 76.9162C309.849 77.9638 308.491 78.3049 307.443 77.6781C289.19 66.7559 267.912 71.3863 248.537 82.0216Z" fill="white" stroke="#006bff" stroke-opacity="0.5" stroke-width="0.69294" stroke-linecap="round"/>
  <path fill-rule="evenodd" clip-rule="evenodd" d="M128.099 101.03C152.463 109.216 171.114 127.789 180.881 142.395C181.698 143.618 181.37 145.272 180.148 146.089C178.925 146.907 177.271 146.578 176.454 145.356C167.14 131.427 149.35 113.788 126.403 106.079C103.671 98.4411 75.545 100.422 44.941 126.217C43.8165 127.164 42.1365 127.021 41.1887 125.897C40.2409 124.772 40.3842 123.092 41.5087 122.144C73.4647 95.2105 103.52 92.7718 128.099 101.03Z" fill="white" stroke="#006bff" stroke-opacity="0.5" stroke-width="0.83476" stroke-linecap="round"/>
  <path fill-rule="evenodd" clip-rule="evenodd" d="M199.832 120.336C200.339 119.226 201.651 118.737 202.761 119.244C216.256 125.408 238.178 133.819 260.007 138.995C270.921 141.582 281.749 143.345 291.452 143.634C301.192 143.923 309.586 142.72 315.787 139.566C316.876 139.013 318.206 139.447 318.76 140.535C319.313 141.623 318.88 142.954 317.791 143.507C310.64 147.144 301.388 148.352 291.32 148.053C281.216 147.752 270.073 145.924 258.987 143.296C236.817 138.04 214.618 129.52 200.924 123.265C199.814 122.758 199.325 121.447 199.832 120.336Z" fill="white" stroke="#006bff" stroke-opacity="0.5" stroke-width="0.69294" stroke-linecap="round" stroke-linejoin="round"/>
  <path fill-rule="evenodd" clip-rule="evenodd" d="M37.5724 110.673C38.712 109.743 40.3895 109.913 41.3191 111.053C52.4082 124.648 70.5424 131.779 96.3142 132.337C122.098 132.895 155.139 126.853 195.434 114.518C196.84 114.088 198.329 114.879 198.76 116.285C199.19 117.691 198.399 119.18 196.993 119.611C156.473 132.014 122.806 138.237 96.1989 137.661C69.5804 137.085 49.6428 129.683 37.1921 114.419C36.2625 113.28 36.4328 111.602 37.5724 110.673Z" fill="white" stroke="#006bff" stroke-opacity="0.5" stroke-width="0.83476" stroke-linecap="round"/>
  <path fill-rule="evenodd" clip-rule="evenodd" d="M199.086 127.279C199.421 126.105 200.644 125.425 201.818 125.761C209.112 127.845 219.446 132.895 226.796 141.393C234.247 150.006 238.56 162.107 233.636 177.81C233.271 178.975 232.03 179.623 230.865 179.258C229.7 178.893 229.052 177.652 229.417 176.488C233.841 162.38 229.996 151.85 223.452 144.285C216.808 136.603 207.31 131.928 200.604 130.012C199.43 129.676 198.75 128.453 199.086 127.279Z" fill="white" stroke="#006bff" stroke-opacity="0.5" stroke-width="0.69294" stroke-linecap="round" stroke-linejoin="round"/>
  <path fill-rule="evenodd" clip-rule="evenodd" d="M133.639 112.866C133.249 111.5 131.825 110.709 130.46 111.1C121.975 113.524 109.954 119.399 101.403 129.284C92.7352 139.305 87.7179 153.382 93.4458 171.65C93.8707 173.005 95.3137 173.759 96.6689 173.334C98.0241 172.909 98.7782 171.466 98.3532 170.111C93.2073 153.7 97.68 141.45 105.293 132.649C113.022 123.713 124.071 118.274 131.873 116.045C133.238 115.655 134.029 114.231 133.639 112.866Z" fill="white" stroke="#006bff" stroke-opacity="0.5" stroke-width="0.806108" stroke-linecap="round" stroke-linejoin="round"/>
  <path fill-rule="evenodd" clip-rule="evenodd" d="M105.478 66.3567C105.291 64.8979 106.323 63.5641 107.782 63.3776C113.459 62.6517 118.061 64.6497 121.587 68.2374C125.013 71.724 127.392 76.6618 129.053 81.9441C132.383 92.5282 133.134 105.482 132.834 114.16C132.783 115.63 131.551 116.78 130.081 116.729C128.611 116.679 127.461 115.446 127.512 113.976C127.8 105.623 127.053 93.3338 123.973 83.5423C122.43 78.6367 120.376 74.6033 117.788 71.9703C115.3 69.4383 112.308 68.1682 108.457 68.6604C106.998 68.8469 105.664 67.8155 105.478 66.3567Z" fill="white" stroke="#006bff" stroke-opacity="0.5" stroke-width="0.83476" stroke-linecap="round"/>
  <path d="M125.033 139.495C124.684 128.088 126.046 100.628 134.287 82.0495C140.459 68.1364 155.214 58.4774 170.474 58.4774C185.733 58.4774 200.488 68.1364 206.66 82.0495C214.901 100.628 216.263 128.088 215.914 139.495C214.163 161.702 192.007 178.607 170.474 178.607C148.94 178.607 126.784 161.702 125.033 139.495Z" fill="white" stroke="#006bff" stroke-opacity="0.5"/>
  <path d="M136.392 86.3886C136.176 82.659 138.255 75.0147 147.855 67.6072C152.552 63.9834 160.765 59.9005 170.179 59.9005C179.592 59.9005 187.885 63.8829 192.502 67.6072C200.695 74.2159 203.307 82.659 203.092 86.3886C202.012 93.6491 196.835 99.176 170.179 99.176C142.516 99.176 137.471 93.6491 136.392 86.3886Z" fill="#006bff" fill-opacity="0.05"/>
  <path d="M150.889 77.7062C150.889 77.7062 150.068 80.172 150.068 83.1099C150.068 85.6281 150.889 87.1496 150.889 87.1496" stroke="#444752" stroke-width="5.37931" stroke-linecap="round"/>
  <path d="M161.515 77.7061C161.515 77.7061 160.694 80.1718 160.694 83.1098C160.694 85.628 161.515 87.1494 161.515 87.1494" stroke="#444752" stroke-width="5.37931" stroke-linecap="round"/>
  <path d="M166.518 54.578C165.822 54.578 165.575 56.8978 165.539 58.0577L182.068 59.9063C182.503 59.2901 182.829 56.6441 182.068 55.4479C181.601 54.714 167.388 54.578 166.518 54.578Z" fill="white" stroke="#006bff" stroke-opacity="0.5" stroke-width="1.34483"/>
  <path d="M173 54L178.5 49.5L175.5 44.5L179.5 42" stroke="#80D0FF" stroke-linecap="round"/>
  <circle opacity="0.5" cx="180.5" cy="39.5" r="5.5" fill="#5A91E2"/>
  <circle cx="180.5" cy="39.5" r="3.5" fill="#5A91E2"/>
  <path d="M105.013 162.905C104.06 160.768 101.755 159.407 99.4191 159.626C96.7516 159.87 94.8466 161.833 94.4126 164.185C92.8552 162.364 90.2187 161.612 87.7863 162.728C85.6533 163.7 84.3403 166.026 84.5891 168.351C84.7908 170.26 85.8915 171.786 87.3707 172.64L97.1551 178.285C97.8485 178.685 98.7349 178.448 99.1344 177.757L104.771 168C105.624 166.525 105.798 164.659 105.013 162.905Z" fill="#D486F8"/>
  <path d="M90.8096 150.764L91.6234 153.793" stroke="#006bff" stroke-opacity="0.5" stroke-width="0.896495" stroke-miterlimit="10" stroke-linecap="round" stroke-linejoin="round"/>
  <path d="M99.5381 183.249L100.352 186.278" stroke="#006bff" stroke-opacity="0.5" stroke-width="0.896495" stroke-miterlimit="10" stroke-linecap="round" stroke-linejoin="round"/>
  <path d="M113.384 163.771L110.358 164.58" stroke="#006bff" stroke-opacity="0.5" stroke-width="0.896495" stroke-miterlimit="10" stroke-linecap="round" stroke-linejoin="round"/>
  <path d="M80.819 172.472L77.7812 173.284" stroke="#006bff" stroke-opacity="0.5" stroke-width="0.896495" stroke-miterlimit="10" stroke-linecap="round" stroke-linejoin="round"/>
  <path d="M79.6211 159.337L82.3448 160.898" stroke="#006bff" stroke-opacity="0.5" stroke-width="0.896495" stroke-miterlimit="10" stroke-linecap="round" stroke-linejoin="round"/>
  <path d="M108.829 176.142L111.544 177.719" stroke="#006bff" stroke-opacity="0.5" stroke-width="0.896495" stroke-miterlimit="10" stroke-linecap="round" stroke-linejoin="round"/>
  <path d="M104.796 152.611L103.234 155.315" stroke="#006bff" stroke-opacity="0.5" stroke-width="0.896495" stroke-miterlimit="10" stroke-linecap="round" stroke-linejoin="round"/>
  <path d="M87.9401 181.725L86.369 184.444" stroke="#006bff" stroke-opacity="0.5" stroke-width="0.896495" stroke-miterlimit="10" stroke-linecap="round" stroke-linejoin="round"/>
  <path d="M84.3574 153.942L86.276 156.431" stroke="#006bff" stroke-opacity="0.5" stroke-width="0.896495" stroke-miterlimit="10" stroke-linecap="round" stroke-linejoin="round"/>
  <path d="M104.89 180.624L106.805 183.101" stroke="#006bff" stroke-opacity="0.5" stroke-width="0.896495" stroke-miterlimit="10" stroke-linecap="round" stroke-linejoin="round"/>
  <path d="M110.207 157.334L107.715 159.247" stroke="#006bff" stroke-opacity="0.5" stroke-width="0.896495" stroke-miterlimit="10" stroke-linecap="round" stroke-linejoin="round"/>
  <path d="M83.4494 177.808L80.9539 179.709" stroke="#006bff" stroke-opacity="0.5" stroke-width="0.896495" stroke-miterlimit="10" stroke-linecap="round" stroke-linejoin="round"/>
  <path d="M77.3037 166.124L80.4232 166.541" stroke="#006bff" stroke-opacity="0.5" stroke-width="0.896495" stroke-miterlimit="10" stroke-linecap="round" stroke-linejoin="round"/>
  <path d="M110.742 170.514L113.858 170.919" stroke="#006bff" stroke-opacity="0.5" stroke-width="0.896495" stroke-miterlimit="10" stroke-linecap="round" stroke-linejoin="round"/>
  <path d="M97.989 150.3L97.578 153.411" stroke="#006bff" stroke-opacity="0.5" stroke-width="0.896495" stroke-miterlimit="10" stroke-linecap="round" stroke-linejoin="round"/>
  <path d="M93.5867 183.644L93.1724 186.743" stroke="#006bff" stroke-opacity="0.5" stroke-width="0.896495" stroke-miterlimit="10" stroke-linecap="round" stroke-linejoin="round"/>
  <path d="M326.15 140.207C325.937 137.879 324.192 135.855 321.908 135.318C319.302 134.697 316.863 135.949 315.693 138.036C314.805 135.816 312.55 134.262 309.885 134.543C307.55 134.783 305.556 136.566 305.041 138.846C304.617 140.718 305.167 142.514 306.293 143.794L313.742 152.259C314.27 152.859 315.186 152.918 315.788 152.391L324.277 144.953C325.561 143.828 326.328 142.117 326.15 140.207Z" fill="#D486F8"/>
  <path d="M316.595 124.169L316.391 127.298" stroke="#006bff" stroke-opacity="0.5" stroke-width="0.896495" stroke-miterlimit="10" stroke-linecap="round" stroke-linejoin="round"/>
  <path d="M314.41 157.729L314.206 160.858" stroke="#006bff" stroke-opacity="0.5" stroke-width="0.896495" stroke-miterlimit="10" stroke-linecap="round" stroke-linejoin="round"/>
  <path d="M333.791 143.71L330.665 143.508" stroke="#006bff" stroke-opacity="0.5" stroke-width="0.896495" stroke-miterlimit="10" stroke-linecap="round" stroke-linejoin="round"/>
  <path d="M300.148 141.533L297.01 141.329" stroke="#006bff" stroke-opacity="0.5" stroke-width="0.896495" stroke-miterlimit="10" stroke-linecap="round" stroke-linejoin="round"/>
  <path d="M303.24 128.709L305.317 131.056" stroke="#006bff" stroke-opacity="0.5" stroke-width="0.896495" stroke-miterlimit="10" stroke-linecap="round" stroke-linejoin="round"/>
  <path d="M325.497 153.972L327.561 156.33" stroke="#006bff" stroke-opacity="0.5" stroke-width="0.896495" stroke-miterlimit="10" stroke-linecap="round" stroke-linejoin="round"/>
  <path d="M329.25 130.393L326.897 132.454" stroke="#006bff" stroke-opacity="0.5" stroke-width="0.896495" stroke-miterlimit="10" stroke-linecap="round" stroke-linejoin="round"/>
  <path d="M303.917 152.574L301.55 154.647" stroke="#006bff" stroke-opacity="0.5" stroke-width="0.896495" stroke-miterlimit="10" stroke-linecap="round" stroke-linejoin="round"/>
  <path d="M309.462 125.115L310.477 128.085" stroke="#006bff" stroke-opacity="0.5" stroke-width="0.896495" stroke-miterlimit="10" stroke-linecap="round" stroke-linejoin="round"/>
  <path d="M320.323 156.955L321.339 159.912" stroke="#006bff" stroke-opacity="0.5" stroke-width="0.896495" stroke-miterlimit="10" stroke-linecap="round" stroke-linejoin="round"/>
  <path d="M332.854 136.597L329.876 137.613" stroke="#006bff" stroke-opacity="0.5" stroke-width="0.896495" stroke-miterlimit="10" stroke-linecap="round" stroke-linejoin="round"/>
  <path d="M300.924 147.427L297.947 148.43" stroke="#006bff" stroke-opacity="0.5" stroke-width="0.896495" stroke-miterlimit="10" stroke-linecap="round" stroke-linejoin="round"/>
  <path d="M298.86 134.397L301.681 135.787" stroke="#006bff" stroke-opacity="0.5" stroke-width="0.896495" stroke-miterlimit="10" stroke-linecap="round" stroke-linejoin="round"/>
  <path d="M329.119 149.253L331.941 150.63" stroke="#006bff" stroke-opacity="0.5" stroke-width="0.896495" stroke-miterlimit="10" stroke-linecap="round" stroke-linejoin="round"/>
  <path d="M323.546 126.026L322.153 128.841" stroke="#006bff" stroke-opacity="0.5" stroke-width="0.896495" stroke-miterlimit="10" stroke-linecap="round" stroke-linejoin="round"/>
  <path d="M308.648 156.199L307.255 159.001" stroke="#006bff" stroke-opacity="0.5" stroke-width="0.896495" stroke-miterlimit="10" stroke-linecap="round" stroke-linejoin="round"/>
  <path d="M94.6719 53.5916L95.2864 55.8785" stroke="#006bff" stroke-opacity="0.5" stroke-width="0.47537" stroke-miterlimit="10" stroke-linecap="round" stroke-linejoin="round"/>
  <path d="M101.263 78.1211L101.877 80.408" stroke="#006bff" stroke-opacity="0.5" stroke-width="0.47537" stroke-miterlimit="10" stroke-linecap="round" stroke-linejoin="round"/>
  <path d="M111.717 63.4131L109.433 64.0236" stroke="#006bff" stroke-opacity="0.5" stroke-width="0.47537" stroke-miterlimit="10" stroke-linecap="round" stroke-linejoin="round"/>
  <path d="M87.1278 69.9833L84.834 70.5962" stroke="#006bff" stroke-opacity="0.5" stroke-width="0.47537" stroke-miterlimit="10" stroke-linecap="round" stroke-linejoin="round"/>
  <path d="M86.2227 60.0645L88.2794 61.2433" stroke="#006bff" stroke-opacity="0.5" stroke-width="0.47537" stroke-miterlimit="10" stroke-linecap="round" stroke-linejoin="round"/>
  <path d="M108.278 72.7544L110.328 73.9449" stroke="#006bff" stroke-opacity="0.5" stroke-width="0.47537" stroke-miterlimit="10" stroke-linecap="round" stroke-linejoin="round"/>
  <path d="M105.233 54.986L104.053 57.0278" stroke="#006bff" stroke-opacity="0.5" stroke-width="0.47537" stroke-miterlimit="10" stroke-linecap="round" stroke-linejoin="round"/>
  <path d="M92.5046 76.9699L91.3183 79.0233" stroke="#006bff" stroke-opacity="0.5" stroke-width="0.47537" stroke-miterlimit="10" stroke-linecap="round" stroke-linejoin="round"/>
  <path d="M89.7998 55.9908L91.2485 57.8706" stroke="#006bff" stroke-opacity="0.5" stroke-width="0.47537" stroke-miterlimit="10" stroke-linecap="round" stroke-linejoin="round"/>
  <path d="M105.304 76.1387L106.75 78.0092" stroke="#006bff" stroke-opacity="0.5" stroke-width="0.47537" stroke-miterlimit="10" stroke-linecap="round" stroke-linejoin="round"/>
  <path d="M109.319 58.5524L107.437 59.997" stroke="#006bff" stroke-opacity="0.5" stroke-width="0.47537" stroke-miterlimit="10" stroke-linecap="round" stroke-linejoin="round"/>
  <path d="M89.1138 74.0122L87.2295 75.4477" stroke="#006bff" stroke-opacity="0.5" stroke-width="0.47537" stroke-miterlimit="10" stroke-linecap="round" stroke-linejoin="round"/>
  <path d="M84.4727 65.1899L86.8282 65.5045" stroke="#006bff" stroke-opacity="0.5" stroke-width="0.47537" stroke-miterlimit="10" stroke-linecap="round" stroke-linejoin="round"/>
  <path d="M109.723 68.5048L112.076 68.8102" stroke="#006bff" stroke-opacity="0.5" stroke-width="0.47537" stroke-miterlimit="10" stroke-linecap="round" stroke-linejoin="round"/>
  <path d="M100.093 53.2409L99.7831 55.5897" stroke="#006bff" stroke-opacity="0.5" stroke-width="0.47537" stroke-miterlimit="10" stroke-linecap="round" stroke-linejoin="round"/>
  <path d="M96.7692 78.4194L96.4564 80.7591" stroke="#006bff" stroke-opacity="0.5" stroke-width="0.47537" stroke-miterlimit="10" stroke-linecap="round" stroke-linejoin="round"/>
  <path d="M117.133 71.4341L97.2002 75.3425C96.3273 75.5136 95.4804 74.9459 95.3079 74.074L92.7469 61.1312C92.5743 60.2592 93.1417 59.4142 94.0146 59.243L113.948 55.3347C114.82 55.1635 115.667 55.7313 115.84 56.6032L118.401 69.546C118.573 70.4143 118.006 71.263 117.133 71.4341Z" fill="#F9F9F9"/>
  <path d="M105.347 66.4019C105.653 66.5562 106.011 66.4898 106.235 66.228L115.188 55.9297C114.672 55.4722 113.978 55.2488 113.278 55.3859L94.2953 59.1048C93.7097 59.2196 93.248 59.6122 92.9996 60.1351C93.0121 60.1403 93.0275 60.1411 93.0401 60.1463L105.347 66.4019Z" fill="#56BED4"/>
  <path d="M106.717 66.6954C106.509 66.9352 106.24 67.0872 105.953 67.1435C105.666 67.1998 105.356 67.1611 105.07 67.0143L103.203 66.0644L96.5704 75.408C96.5645 75.4168 96.5571 75.4182 96.5549 75.4263C96.747 75.469 96.9472 75.4757 97.1498 75.436L117.256 71.4966C117.371 71.4742 117.477 71.4341 117.579 71.3874L107.929 65.2989L106.717 66.6954Z" fill="#56BED4"/>
  <path d="M102.596 65.7653L92.8223 60.7977C92.802 61.0042 92.806 61.2174 92.849 61.4344L95.3692 74.1584C95.4522 74.5778 95.6855 74.9257 95.9919 75.1599C95.9987 75.0974 96.0098 75.0379 96.0496 74.9881L102.596 65.7653Z" fill="#56BED4"/>
  <path d="M118.064 70.8897C118.086 70.9045 118.102 70.9244 118.12 70.9399C118.391 70.5888 118.519 70.1166 118.422 69.6274L115.985 57.3226C115.922 57.0026 115.802 56.7088 115.636 56.4508L108.387 64.7873L118.064 70.8897Z" fill="#56BED4"/>
  <path d="M114.757 58.2645C116.416 57.9396 117.495 56.332 117.166 54.6738C116.838 53.0157 115.227 51.9349 113.568 52.2599C111.908 52.5848 110.83 54.1924 111.158 55.8506C111.487 57.5087 113.098 58.5895 114.757 58.2645Z" fill="#D486F8"/>
  <path d="M297.305 82.7848L322.316 89.5578C322.953 89.7314 323.58 89.4737 323.715 88.9826L327.799 74.0572L328.258 72.3779C328.393 71.8868 327.984 71.3499 327.343 71.1785L302.333 64.4055C301.696 64.2319 301.068 64.4896 300.933 64.9807L296.391 81.5854C296.255 82.0765 296.664 82.6134 297.305 82.7848Z" fill="#5A91E2"/>
  <path d="M327.54 75.0108L328.256 72.3957C328.391 71.9039 327.982 71.3661 327.341 71.1944L302.318 64.4104C301.68 64.2365 301.052 64.4946 300.917 64.9865L300.233 67.4853" fill="#D486F8"/>
  <path d="M325.534 73.0997C325.46 72.9709 325.441 72.8187 325.481 72.6759C325.563 72.3784 325.871 72.2001 326.169 72.2811C326.466 72.3622 326.641 72.6689 326.562 72.9672C326.48 73.2647 326.172 73.443 325.874 73.3619C325.728 73.3222 325.61 73.2292 325.534 73.0997ZM326.108 72.5013C325.932 72.4535 325.75 72.5574 325.702 72.7329C325.678 72.8192 325.69 72.9054 325.732 72.9841C325.775 73.0599 325.846 73.1145 325.93 73.1372C326.105 73.185 326.287 73.0811 326.336 72.9056C326.387 72.7309 326.283 72.5491 326.108 72.5013Z" fill="#5A91E2"/>
  <path d="M323.869 72.2357C323.951 71.9382 324.26 71.7599 324.557 71.841C324.855 71.922 325.029 72.2287 324.951 72.527C324.869 72.8245 324.56 73.0028 324.263 72.9217C323.962 72.8399 323.788 72.5332 323.869 72.2357ZM324.496 72.0641C324.32 72.0163 324.138 72.1201 324.09 72.2957C324.041 72.4712 324.145 72.6529 324.32 72.7008C324.496 72.7486 324.678 72.6447 324.727 72.4692C324.775 72.2937 324.671 72.1119 324.496 72.0641Z" fill="#5A91E2"/>
  <path d="M322.286 71.8069L322.397 71.8369L322.286 71.8069C322.327 71.6611 322.42 71.5426 322.55 71.466C322.679 71.3924 322.828 71.3724 322.977 71.4129C323.275 71.494 323.449 71.8007 323.37 72.099C323.289 72.3965 322.98 72.5748 322.683 72.4937C322.379 72.411 322.205 72.1044 322.286 71.8069ZM322.913 71.6353C322.826 71.6118 322.74 71.6234 322.661 71.6659C322.585 71.7092 322.53 71.7806 322.507 71.8669C322.458 72.0424 322.562 72.2241 322.737 72.2719C322.913 72.3198 323.095 72.2159 323.144 72.0404C323.192 71.8648 323.088 71.6831 322.913 71.6353Z" fill="#5A91E2"/>
  <path opacity="0.63" d="M323.09 77.305L303.127 71.8285C303.014 71.7976 302.944 71.7016 302.968 71.6121C302.993 71.5225 303.105 71.4761 303.215 71.5062L323.179 76.9827C323.292 77.0136 323.362 77.1096 323.337 77.1991C323.312 77.2887 323.203 77.3359 323.09 77.305Z" fill="white"/>
  <path opacity="0.63" d="M311.197 81.4735L301.214 78.7354C301.1 78.7045 301.031 78.6085 301.055 78.519C301.08 78.4295 301.192 78.3831 301.302 78.4132L311.282 81.1505C311.395 81.1814 311.465 81.2774 311.44 81.3669C311.419 81.4572 311.307 81.5036 311.197 81.4735Z" fill="white"/>
  <path opacity="0.63" d="M308.352 75.4909L302.55 73.8977C302.436 73.8668 302.367 73.7708 302.391 73.6813C302.416 73.5919 302.528 73.5455 302.638 73.5755L308.44 75.1688C308.553 75.1996 308.623 75.2956 308.598 75.3851C308.574 75.4746 308.465 75.5218 308.352 75.4909Z" fill="white"/>
  <path opacity="0.63" d="M322.516 79.3753L309.75 75.8805C309.637 75.8496 309.567 75.7536 309.591 75.6641C309.616 75.5745 309.728 75.5281 309.838 75.5582L322.604 79.0531C322.717 79.084 322.787 79.18 322.762 79.2695C322.738 79.359 322.626 79.4054 322.516 79.3753Z" fill="white"/>
  <path opacity="0.63" d="M313.164 79.4416L301.879 76.351C301.765 76.3201 301.696 76.2242 301.72 76.1346C301.745 76.0451 301.857 75.9987 301.967 76.0288L313.253 79.1194C313.366 79.1503 313.436 79.2463 313.411 79.3358C313.386 79.4253 313.277 79.4725 313.164 79.4416Z" fill="white"/>
  <path opacity="0.63" d="M321.842 81.8275L314.389 79.7837C314.276 79.7528 314.207 79.6568 314.231 79.5673C314.256 79.4778 314.368 79.4315 314.478 79.4615L321.93 81.5053C322.043 81.5362 322.113 81.6322 322.088 81.7217C322.064 81.8112 321.952 81.8576 321.842 81.8275Z" fill="white"/>
  <path d="M246.744 180.2L227.356 180.82C226.75 180.839 226.241 180.363 226.221 179.757L225.673 162.787C225.654 162.182 226.131 161.674 226.737 161.655L246.125 161.035C246.732 161.016 247.241 161.492 247.26 162.098L247.808 179.067C247.824 179.673 247.351 180.181 246.744 180.2Z" fill="#F9F9F9"/>
  <path d="M246.744 180.2L227.356 180.82C226.75 180.839 226.241 180.363 226.221 179.757L225.673 162.787C225.654 162.182 226.131 161.674 226.737 161.655L246.125 161.035C246.732 161.016 247.241 161.492 247.26 162.098L247.808 179.067C247.824 179.673 247.351 180.181 246.744 180.2Z" fill="#006bff" fill-opacity="0.5"/>
  <path opacity="0.83" d="M236.704 169.856C238.498 169.799 239.905 168.301 239.847 166.51C239.789 164.72 238.288 163.315 236.495 163.372C234.701 163.429 233.294 164.927 233.352 166.718C233.41 168.508 234.91 169.914 236.704 169.856Z" fill="#F9F9F9"/>
  <path d="M236.601 166.787C237.056 166.772 237.413 166.392 237.398 165.938C237.383 165.484 237.002 165.127 236.547 165.142C236.092 165.156 235.736 165.536 235.75 165.99C235.765 166.445 236.146 166.801 236.601 166.787Z" fill="#D486F8"/>
  <path d="M237.769 168.289L235.533 168.361C235.36 168.366 235.216 168.231 235.21 168.058C235.19 167.419 235.691 166.881 236.335 166.861L237.023 166.839C237.582 166.821 238.053 167.262 238.071 167.82L238.076 167.967C238.077 168.14 237.942 168.284 237.769 168.289Z" fill="#D486F8"/>
  <path opacity="0.5" d="M242.181 173.562L231.481 173.904C230.951 173.921 230.511 173.508 230.494 172.979L230.482 172.616C230.465 172.087 230.878 171.647 231.408 171.63L242.108 171.288C242.638 171.271 243.078 171.684 243.095 172.213L243.107 172.576C243.124 173.101 242.711 173.545 242.181 173.562Z" fill="#F9F9F9"/>
  <path opacity="0.5" d="M242.301 177.255L231.6 177.597C231.07 177.614 230.63 177.201 230.613 176.672L230.601 176.309C230.584 175.78 230.997 175.34 231.527 175.323L242.227 174.981C242.757 174.964 243.197 175.377 243.214 175.906L243.226 176.269C243.243 176.798 242.83 177.238 242.301 177.255Z" fill="#F9F9F9"/>
  <path d="M20.8182 131.977L60.9044 130.728C61.484 130.709 61.9388 130.226 61.9205 129.648L61.2712 109.047C61.2529 108.469 60.7687 108.015 60.1891 108.033L20.1028 109.283C19.5232 109.301 19.0685 109.784 19.0867 110.363L19.7361 130.963C19.7543 131.541 20.2386 131.995 20.8182 131.977Z" fill="#5A91E2"/>
  <g opacity="0.93">
    <path opacity="0.93" d="M28.7382 126.52C32.1372 126.414 34.806 123.577 34.6991 120.184C34.5921 116.791 31.7499 114.126 28.3508 114.232C24.9518 114.338 22.283 117.174 22.39 120.568C22.4969 123.961 25.3391 126.626 28.7382 126.52Z" fill="#F9F9F9"/>
  </g>
  <path d="M46.0433 116.612L37.973 116.863C37.7675 116.87 37.601 116.714 37.5946 116.508C37.5881 116.303 37.7444 116.137 37.9498 116.13L46.0202 115.879C46.2256 115.872 46.3921 116.028 46.3986 116.234C46.405 116.439 46.2414 116.606 46.0433 116.612Z" fill="#F9F9F9"/>
  <path d="M55.3413 116.321L48.1439 116.545C47.9385 116.552 47.772 116.396 47.7655 116.19C47.759 115.985 47.9153 115.819 48.1207 115.812L55.3181 115.588C55.5235 115.582 55.69 115.738 55.6965 115.943C55.703 116.149 55.5394 116.315 55.3413 116.321Z" fill="#F9F9F9"/>
  <path d="M45.39 123.807L38.1927 124.031C37.9873 124.037 37.8208 123.881 37.8143 123.676C37.8078 123.471 37.9641 123.304 38.1696 123.298L45.3668 123.073C45.5723 123.067 45.7388 123.223 45.7452 123.429C45.7515 123.627 45.5954 123.8 45.39 123.807Z" fill="#F9F9F9"/>
  <path d="M52.0794 119.809L44.8822 120.034C44.6767 120.04 44.5102 119.884 44.5038 119.678C44.4973 119.473 44.6536 119.307 44.859 119.3L52.0563 119.076C52.2617 119.07 52.4282 119.226 52.4347 119.431C52.4412 119.637 52.2849 119.803 52.0794 119.809Z" fill="#F9F9F9"/>
  <path d="M42.7993 120.098L38.0745 120.245C37.8691 120.252 37.7026 120.096 37.6961 119.89C37.6897 119.685 37.846 119.519 38.0514 119.512L42.7762 119.365C42.9816 119.359 43.1481 119.515 43.1546 119.72C43.161 119.925 43.0047 120.092 42.7993 120.098Z" fill="#F9F9F9"/>
  <path d="M50.5042 123.647L47.5989 123.738C47.3935 123.744 47.227 123.588 47.2206 123.383C47.2141 123.178 47.3704 123.011 47.5758 123.005L50.481 122.915C50.6865 122.908 50.853 123.064 50.8594 123.27C50.8657 123.467 50.7096 123.641 50.5042 123.647Z" fill="#F9F9F9"/>
  <path d="M33.4414 120.069C33.6157 122.805 31.5605 125.163 28.8562 125.335C26.1446 125.508 23.8101 123.433 23.6358 120.697C23.4614 117.961 25.5166 115.603 28.2209 115.43C30.9249 115.251 33.267 117.333 33.4414 120.069Z" fill="#5A91E2"/>
  <path d="M28.5345 120.735C28.4027 120.746 28.2895 120.647 28.2853 120.515L28.0988 117.626C28.0873 117.494 28.1865 117.381 28.3185 117.377C28.4503 117.366 28.5636 117.465 28.575 117.597L28.7615 120.486C28.7656 120.618 28.6665 120.731 28.5345 120.735Z" fill="#F9F9F9"/>
  <path d="M28.3052 120.463C28.2937 120.332 28.393 120.219 28.525 120.215L30.7531 120.072C30.8849 120.06 30.9982 120.159 31.0097 120.291C31.0212 120.423 30.9219 120.536 30.7899 120.54L28.5619 120.683C28.4227 120.694 28.3094 120.595 28.3052 120.463Z" fill="#F9F9F9"/>
</svg>
