<svg width="304" height="438" viewBox="0 0 304 438" fill="none" xmlns="http://www.w3.org/2000/svg">
<line x1="26.5" y1="29" x2="26.5" y2="411" stroke="#1a1a1a" stroke-opacity="0.6" stroke-dasharray="4 4"/>
<g filter="url(#filter0_d)">
<rect x="5" y="9" width="290" height="33" rx="16.5" fill="white"/>
<path d="M25.792 29H31.456V27.524H27.496V25.664H31.372V24.2H27.496V22.46H31.456V20.996H25.792V29ZM35.0321 29H37.1681L40.2521 20.996H38.3081L36.1001 27.152L33.8801 20.996H31.9361L35.0321 29ZM40.9912 29H46.6552V27.524H42.6952V25.664H46.5712V24.2H42.6952V22.46H46.6552V20.996H40.9912V29ZM53.5073 29H55.1513V20.996H53.4473V26.18L49.7393 20.996H47.9873V29H49.6913V23.624L53.5073 29ZM58.5775 29H60.2935V22.496H62.6215V20.996H56.2375V22.496H58.5775V29ZM66.7842 29H68.4882V20.996H66.7842V29ZM69.5252 27.872C70.2812 28.628 71.3852 29.144 72.9212 29.144C75.0812 29.144 76.1252 28.04 76.1252 26.576C76.1252 24.8 74.4452 24.404 73.1252 24.104C72.2012 23.888 71.5292 23.72 71.5292 23.18C71.5292 22.7 71.9372 22.364 72.7052 22.364C73.4852 22.364 74.3492 22.64 74.9972 23.24L75.9452 21.992C75.1532 21.26 74.0972 20.876 72.8252 20.876C70.9412 20.876 69.7892 21.956 69.7892 23.288C69.7892 25.076 71.4692 25.436 72.7772 25.736C73.7012 25.952 74.3972 26.156 74.3972 26.756C74.3972 27.212 73.9412 27.656 73.0052 27.656C71.9012 27.656 71.0252 27.164 70.4612 26.576L69.5252 27.872ZM80.3428 29H84.6868C86.2108 29 87.0148 28.04 87.0148 26.84C87.0148 25.832 86.3308 25.004 85.4788 24.872C86.2348 24.716 86.8588 24.044 86.8588 23.036C86.8588 21.968 86.0788 20.996 84.5548 20.996H80.3428V29ZM82.0468 24.212V22.448H84.1828C84.7588 22.448 85.1188 22.832 85.1188 23.324C85.1188 23.84 84.7588 24.212 84.1828 24.212H82.0468ZM82.0468 27.548V25.664H84.2428C84.9148 25.664 85.2748 26.096 85.2748 26.6C85.2748 27.176 84.8908 27.548 84.2428 27.548H82.0468ZM87.9158 25.004C87.9158 27.416 89.6798 29.144 92.0918 29.144C94.5158 29.144 96.2798 27.416 96.2798 25.004C96.2798 22.592 94.5158 20.864 92.0918 20.864C89.6798 20.864 87.9158 22.592 87.9158 25.004ZM94.5278 25.004C94.5278 26.492 93.5678 27.632 92.0918 27.632C90.6158 27.632 89.6678 26.492 89.6678 25.004C89.6678 23.504 90.6158 22.376 92.0918 22.376C93.5678 22.376 94.5278 23.504 94.5278 25.004ZM97.0916 25.004C97.0916 27.416 98.8556 29.144 101.268 29.144C103.692 29.144 105.456 27.416 105.456 25.004C105.456 22.592 103.692 20.864 101.268 20.864C98.8556 20.864 97.0916 22.592 97.0916 25.004ZM103.704 25.004C103.704 26.492 102.744 27.632 101.268 27.632C99.7916 27.632 98.8436 26.492 98.8436 25.004C98.8436 23.504 99.7916 22.376 101.268 22.376C102.744 22.376 103.704 23.504 103.704 25.004ZM111.403 29H113.503L110.107 24.752L113.287 20.996H111.187L108.355 24.572V20.996H106.651V29H108.355V26.54L108.979 25.796L111.403 29ZM114.28 29H119.944V27.524H115.984V25.664H119.86V24.2H115.984V22.46H119.944V20.996H114.28V29ZM121.276 29H124.432C126.94 29 128.68 27.416 128.68 25.004C128.68 22.592 126.94 20.996 124.432 20.996H121.276V29ZM122.98 27.5V22.496H124.432C126.076 22.496 126.94 23.588 126.94 25.004C126.94 26.36 126.016 27.5 124.432 27.5H122.98Z" fill="#A8A8A8"/>
</g>
<rect x="39.5" y="54.5" width="255" height="74" rx="3.5" fill="white" stroke="#DADADA"/>
<g filter="url(#filter1_d)">
<rect x="4" y="69" width="46" height="43" rx="21.5" fill="white"/>
<path d="M26.4843 82.2325L20.5493 82.2325C19.1686 82.2325 18.0493 83.3518 18.0493 84.7325L18.0493 98.8164C18.0493 100.197 19.1686 101.316 20.5493 101.316L26.4843 101.316C27.865 101.316 28.9843 100.197 28.9843 98.8164L28.9843 84.7325C28.9843 83.3518 27.865 82.2325 26.4843 82.2325Z" fill="white" stroke="#A8A8A8" stroke-linecap="round" stroke-linejoin="round"/>
<path d="M20.001 83.2364L27.0328 83.2364C27.5851 83.2364 28.0328 83.6841 28.0328 84.2364L28.0328 98.8086L19.001 98.8086L19.001 84.2364C19.001 83.6841 19.4487 83.2364 20.001 83.2364Z" fill="#DADADA"/>
<path d="M21.5098 88.5391H25.5239" stroke="white" stroke-linecap="round"/>
<path d="M22.0115 89.6562L25.0221 89.6563" stroke="white" stroke-linecap="round"/>
<path d="M19.9041 85.3594V85.8617" stroke="white"/>
<path d="M20.5813 85.1055V85.859" stroke="white"/>
<path d="M21.2588 84.8555V85.8601" stroke="white"/>
<path fill-rule="evenodd" clip-rule="evenodd" d="M29.2261 87.1072L27.6706 88.2277C27.4538 88.442 27.0828 88.2902 27.0828 87.9869V87.1072C26.1357 87.1072 25.3608 86.3414 25.3608 85.4054V81.7014C25.3608 80.7658 26.1357 80 27.0828 80H33.7514C34.6985 80 35.4734 80.7658 35.4734 81.7014V85.4054C35.4734 86.3414 34.6985 87.1072 33.7514 87.1072H29.2261Z" fill="#006bff"/>
</g>
<path d="M62.936 82H63.932V73.996H62.936V82ZM72.7671 82H73.6671V77.812C73.6671 76.648 73.1031 76.06 72.0471 76.06C71.2071 76.06 70.4271 76.612 70.1031 77.14C69.9351 76.54 69.4311 76.06 68.5431 76.06C67.6911 76.06 66.9111 76.672 66.6711 77.044V76.204H65.7711V82H66.6711V77.764C66.9831 77.296 67.6071 76.864 68.1951 76.864C68.9511 76.864 69.2631 77.332 69.2631 78.064V82H70.1631V77.752C70.4631 77.296 71.0991 76.864 71.6991 76.864C72.4431 76.864 72.7671 77.332 72.7671 78.064V82ZM82.4585 82H83.3585V77.812C83.3585 76.648 82.7945 76.06 81.7385 76.06C80.8985 76.06 80.1185 76.612 79.7945 77.14C79.6265 76.54 79.1225 76.06 78.2345 76.06C77.3825 76.06 76.6025 76.672 76.3625 77.044V76.204H75.4625V82H76.3625V77.764C76.6745 77.296 77.2985 76.864 77.8865 76.864C78.6425 76.864 78.9545 77.332 78.9545 78.064V82H79.8545V77.752C80.1545 77.296 80.7905 76.864 81.3905 76.864C82.1345 76.864 82.4585 77.332 82.4585 78.064V82ZM84.8179 79.096C84.8179 80.908 86.0539 82.144 87.7699 82.144C88.7179 82.144 89.4979 81.832 90.0739 81.256L89.6419 80.668C89.1859 81.136 88.5139 81.4 87.8539 81.4C86.6059 81.4 85.8379 80.488 85.7659 79.396H90.4579V79.168C90.4579 77.428 89.4259 76.06 87.6739 76.06C86.0179 76.06 84.8179 77.416 84.8179 79.096ZM87.6619 76.804C88.9819 76.804 89.5579 77.872 89.5699 78.736H85.7659C85.8139 77.848 86.4259 76.804 87.6619 76.804ZM96.1156 82H97.0156V73.996H96.1156V77.08C95.6476 76.444 94.9396 76.06 94.1596 76.06C92.6356 76.06 91.5796 77.26 91.5796 79.108C91.5796 80.992 92.6476 82.144 94.1596 82.144C94.9756 82.144 95.6836 81.724 96.1156 81.136V82ZM96.1156 80.428C95.7916 80.932 95.0956 81.34 94.3756 81.34C93.2116 81.34 92.5156 80.392 92.5156 79.108C92.5156 77.824 93.2116 76.864 94.3756 76.864C95.0956 76.864 95.7916 77.296 96.1156 77.8V80.428ZM99.262 75.232C99.598 75.232 99.874 74.956 99.874 74.62C99.874 74.284 99.598 74.02 99.262 74.02C98.938 74.02 98.662 74.284 98.662 74.62C98.662 74.956 98.938 75.232 99.262 75.232ZM98.818 82H99.718V76.204H98.818V82ZM105.137 82H106.037V78.016C106.037 76.612 105.017 76.06 103.793 76.06C102.845 76.06 102.101 76.372 101.477 77.02L101.897 77.644C102.413 77.092 102.977 76.84 103.673 76.84C104.513 76.84 105.137 77.284 105.137 78.064V79.108C104.669 78.568 104.009 78.316 103.217 78.316C102.233 78.316 101.189 78.928 101.189 80.224C101.189 81.484 102.233 82.144 103.217 82.144C103.997 82.144 104.657 81.868 105.137 81.34V82ZM105.137 80.776C104.789 81.256 104.177 81.496 103.541 81.496C102.701 81.496 102.113 80.968 102.113 80.236C102.113 79.492 102.701 78.964 103.541 78.964C104.177 78.964 104.789 79.204 105.137 79.684V80.776ZM109.305 82.144C109.833 82.144 110.157 81.988 110.385 81.772L110.121 81.1C110.001 81.232 109.761 81.34 109.509 81.34C109.113 81.34 108.921 81.028 108.921 80.596V76.996H110.097V76.204H108.921V74.62H108.021V76.204H107.061V76.996H108.021V80.788C108.021 81.652 108.453 82.144 109.305 82.144ZM111.033 79.096C111.033 80.908 112.269 82.144 113.985 82.144C114.933 82.144 115.713 81.832 116.289 81.256L115.857 80.668C115.401 81.136 114.729 81.4 114.069 81.4C112.821 81.4 112.053 80.488 111.981 79.396H116.673V79.168C116.673 77.428 115.641 76.06 113.889 76.06C112.233 76.06 111.033 77.416 111.033 79.096ZM113.877 76.804C115.197 76.804 115.773 77.872 115.785 78.736H111.981C112.029 77.848 112.641 76.804 113.877 76.804ZM118.13 82H119.03V73.996H118.13V82ZM120.646 83.452L120.502 84.268C120.67 84.316 120.97 84.352 121.162 84.352C121.93 84.34 122.518 84.016 122.866 83.176L125.77 76.204H124.786L122.866 80.956L120.934 76.204H119.962L122.386 82.06L122.002 82.936C121.798 83.416 121.534 83.548 121.138 83.548C120.994 83.548 120.778 83.512 120.646 83.452Z" fill="#1a1a1a" fill-opacity="0.6"/>
<path d="M65.22 105H66.858V97.104H69.686V95.662H62.392V97.104H65.22V105ZM69.1355 101.612C69.1355 103.754 70.6475 105.168 72.6775 105.168C73.7555 105.168 74.7495 104.832 75.4215 104.188L74.7495 103.222C74.2735 103.698 73.4895 103.964 72.8315 103.964C71.5575 103.964 70.7875 103.124 70.6755 102.102H75.8975V101.752C75.8975 99.624 74.5955 98.07 72.5655 98.07C70.5635 98.07 69.1355 99.652 69.1355 101.612ZM72.5655 99.274C73.8955 99.274 74.4415 100.268 74.4695 101.066H70.6615C70.7315 100.24 71.3055 99.274 72.5655 99.274ZM81.0579 105H82.7099L80.2179 101.528L82.5559 98.238H80.9039L79.3079 100.534L77.6979 98.238H76.0459L78.3839 101.528L75.9059 105H77.5439L79.3079 102.508L81.0579 105ZM85.7633 105.168C86.4493 105.168 86.8833 104.986 87.1493 104.734L86.7993 103.628C86.6873 103.754 86.4213 103.866 86.1413 103.866C85.7213 103.866 85.4973 103.53 85.4973 103.068V99.526H86.8693V98.238H85.4973V96.39H84.0273V98.238H82.9073V99.526H84.0273V103.432C84.0273 104.552 84.6292 105.168 85.7633 105.168ZM96.3637 105H97.8337V100.24C97.8337 98.854 97.1057 98.07 95.6497 98.07C94.5857 98.07 93.7177 98.63 93.2697 99.162V98.238H91.7997V105H93.2697V100.282C93.6057 99.82 94.2497 99.372 95.0057 99.372C95.8317 99.372 96.3637 99.722 96.3637 100.772V105ZM102.795 105.168C104.965 105.168 106.281 103.558 106.281 101.612C106.281 99.68 104.965 98.07 102.795 98.07C100.653 98.07 99.323 99.68 99.323 101.612C99.323 103.558 100.653 105.168 102.795 105.168ZM102.795 103.866C101.549 103.866 100.849 102.816 100.849 101.612C100.849 100.422 101.549 99.372 102.795 99.372C104.055 99.372 104.755 100.422 104.755 101.612C104.755 102.816 104.055 103.866 102.795 103.866ZM109.798 105.168C110.484 105.168 110.918 104.986 111.184 104.734L110.834 103.628C110.722 103.754 110.456 103.866 110.176 103.866C109.756 103.866 109.532 103.53 109.532 103.068V99.526H110.904V98.238H109.532V96.39H108.062V98.238H106.942V99.526H108.062V103.432C108.062 104.552 108.664 105.168 109.798 105.168ZM112.967 97.118C113.471 97.118 113.877 96.712 113.877 96.208C113.877 95.704 113.471 95.298 112.967 95.298C112.477 95.298 112.057 95.704 112.057 96.208C112.057 96.712 112.477 97.118 112.967 97.118ZM112.239 105H113.709V98.238H112.239V105ZM120.656 97.118C121.16 97.118 121.566 96.712 121.566 96.208C121.566 95.704 121.16 95.298 120.656 95.298C120.166 95.298 119.746 95.704 119.746 96.208C119.746 96.712 120.166 97.118 120.656 97.118ZM115.966 105H117.436V99.526H118.808V98.238H117.436V97.86C117.436 97.104 117.8 96.726 118.374 96.726C118.626 96.726 118.822 96.782 118.962 96.88L119.284 95.788C118.99 95.62 118.57 95.522 118.108 95.522C116.862 95.522 115.966 96.348 115.966 97.86V98.238H114.846V99.526H115.966V105ZM119.928 105H121.398V98.238H119.928V105ZM122.88 101.612C122.88 103.67 124.322 105.168 126.38 105.168C127.696 105.168 128.494 104.608 128.97 103.964L128.004 103.068C127.626 103.586 127.108 103.866 126.45 103.866C125.218 103.866 124.406 102.928 124.406 101.612C124.406 100.296 125.218 99.372 126.45 99.372C127.108 99.372 127.626 99.638 128.004 100.17L128.97 99.274C128.494 98.63 127.696 98.07 126.38 98.07C124.322 98.07 122.88 99.568 122.88 101.612ZM134.389 105H135.859V100.52C135.859 98.7 134.543 98.07 133.045 98.07C131.967 98.07 130.987 98.42 130.203 99.162L130.805 100.184C131.393 99.61 132.051 99.33 132.807 99.33C133.745 99.33 134.389 99.806 134.389 100.59V101.598C133.899 101.024 133.115 100.73 132.205 100.73C131.099 100.73 129.853 101.374 129.853 102.928C129.853 104.426 131.099 105.168 132.205 105.168C133.101 105.168 133.885 104.846 134.389 104.272V105ZM134.389 103.46C134.053 103.922 133.423 104.16 132.779 104.16C131.953 104.16 131.337 103.684 131.337 102.956C131.337 102.214 131.953 101.738 132.779 101.738C133.423 101.738 134.053 101.976 134.389 102.438V103.46ZM139.795 105.168C140.481 105.168 140.915 104.986 141.181 104.734L140.831 103.628C140.719 103.754 140.453 103.866 140.173 103.866C139.753 103.866 139.529 103.53 139.529 103.068V99.526H140.901V98.238H139.529V96.39H138.059V98.238H136.939V99.526H138.059V103.432C138.059 104.552 138.66 105.168 139.795 105.168ZM142.963 97.118C143.467 97.118 143.873 96.712 143.873 96.208C143.873 95.704 143.467 95.298 142.963 95.298C142.473 95.298 142.053 95.704 142.053 96.208C142.053 96.712 142.473 97.118 142.963 97.118ZM142.235 105H143.705V98.238H142.235V105ZM148.664 105.168C150.834 105.168 152.15 103.558 152.15 101.612C152.15 99.68 150.834 98.07 148.664 98.07C146.522 98.07 145.192 99.68 145.192 101.612C145.192 103.558 146.522 105.168 148.664 105.168ZM148.664 103.866C147.418 103.866 146.718 102.816 146.718 101.612C146.718 100.422 147.418 99.372 148.664 99.372C149.924 99.372 150.624 100.422 150.624 101.612C150.624 102.816 149.924 103.866 148.664 103.866ZM158.202 105H159.672V100.24C159.672 98.854 158.944 98.07 157.488 98.07C156.424 98.07 155.556 98.63 155.108 99.162V98.238H153.638V105H155.108V100.282C155.444 99.82 156.088 99.372 156.844 99.372C157.67 99.372 158.202 99.722 158.202 100.772V105ZM164.589 104.118C165.289 104.804 166.339 105.168 167.487 105.168C169.307 105.168 170.301 104.258 170.301 103.068C170.301 101.472 168.859 101.136 167.683 100.884C166.885 100.702 166.213 100.52 166.213 100.002C166.213 99.526 166.703 99.246 167.473 99.246C168.313 99.246 169.069 99.596 169.475 100.058L170.091 99.022C169.475 98.476 168.607 98.07 167.459 98.07C165.751 98.07 164.799 99.022 164.799 100.128C164.799 101.64 166.185 101.948 167.347 102.2C168.173 102.382 168.887 102.592 168.887 103.18C168.887 103.684 168.439 104.006 167.557 104.006C166.675 104.006 165.737 103.544 165.261 103.054L164.589 104.118ZM171.36 101.612C171.36 103.754 172.872 105.168 174.902 105.168C175.98 105.168 176.974 104.832 177.646 104.188L176.974 103.222C176.498 103.698 175.714 103.964 175.056 103.964C173.782 103.964 173.012 103.124 172.9 102.102H178.122V101.752C178.122 99.624 176.82 98.07 174.79 98.07C172.788 98.07 171.36 99.652 171.36 101.612ZM174.79 99.274C176.12 99.274 176.666 100.268 176.694 101.066H172.886C172.956 100.24 173.53 99.274 174.79 99.274ZM184.137 105H185.607V100.24C185.607 98.854 184.879 98.07 183.423 98.07C182.359 98.07 181.491 98.63 181.043 99.162V98.238H179.573V105H181.043V100.282C181.379 99.82 182.023 99.372 182.779 99.372C183.605 99.372 184.137 99.722 184.137 100.772V105ZM189.546 105.168C190.232 105.168 190.666 104.986 190.932 104.734L190.582 103.628C190.47 103.754 190.204 103.866 189.924 103.866C189.504 103.866 189.28 103.53 189.28 103.068V99.526H190.652V98.238H189.28V96.39H187.81V98.238H186.69V99.526H187.81V103.432C187.81 104.552 188.412 105.168 189.546 105.168ZM197.613 105.168C198.299 105.168 198.733 104.986 198.999 104.734L198.649 103.628C198.537 103.754 198.271 103.866 197.991 103.866C197.571 103.866 197.347 103.53 197.347 103.068V99.526H198.719V98.238H197.347V96.39H195.877V98.238H194.757V99.526H195.877V103.432C195.877 104.552 196.479 105.168 197.613 105.168ZM203.106 105.168C205.276 105.168 206.592 103.558 206.592 101.612C206.592 99.68 205.276 98.07 203.106 98.07C200.964 98.07 199.634 99.68 199.634 101.612C199.634 103.558 200.964 105.168 203.106 105.168ZM203.106 103.866C201.86 103.866 201.16 102.816 201.16 101.612C201.16 100.422 201.86 99.372 203.106 99.372C204.366 99.372 205.066 100.422 205.066 101.612C205.066 102.816 204.366 103.866 203.106 103.866ZM216.253 105H217.723V100.212C217.723 98.826 216.995 98.07 215.539 98.07C214.475 98.07 213.593 98.63 213.145 99.162V95.662H211.675V105H213.145V100.282C213.495 99.82 214.139 99.372 214.881 99.372C215.707 99.372 216.253 99.694 216.253 100.744V105ZM222.684 105.168C224.854 105.168 226.17 103.558 226.17 101.612C226.17 99.68 224.854 98.07 222.684 98.07C220.542 98.07 219.212 99.68 219.212 101.612C219.212 103.558 220.542 105.168 222.684 105.168ZM222.684 103.866C221.438 103.866 220.738 102.816 220.738 101.612C220.738 100.422 221.438 99.372 222.684 99.372C223.944 99.372 224.644 100.422 224.644 101.612C224.644 102.816 223.944 103.866 222.684 103.866ZM227.069 104.118C227.769 104.804 228.819 105.168 229.967 105.168C231.787 105.168 232.781 104.258 232.781 103.068C232.781 101.472 231.339 101.136 230.163 100.884C229.365 100.702 228.693 100.52 228.693 100.002C228.693 99.526 229.183 99.246 229.953 99.246C230.793 99.246 231.549 99.596 231.955 100.058L232.571 99.022C231.955 98.476 231.087 98.07 229.939 98.07C228.231 98.07 227.279 99.022 227.279 100.128C227.279 101.64 228.665 101.948 229.827 102.2C230.653 102.382 231.367 102.592 231.367 103.18C231.367 103.684 230.919 104.006 230.037 104.006C229.155 104.006 228.217 103.544 227.741 103.054L227.069 104.118ZM236.291 105.168C236.977 105.168 237.411 104.986 237.677 104.734L237.327 103.628C237.215 103.754 236.949 103.866 236.669 103.866C236.249 103.866 236.025 103.53 236.025 103.068V99.526H237.397V98.238H236.025V96.39H234.555V98.238H233.435V99.526H234.555V103.432C234.555 104.552 235.157 105.168 236.291 105.168Z" fill="#1a1a1a"/>
<rect x="39.5" y="141.5" width="255" height="74" rx="3.5" fill="white" stroke="#DADADA"/>
<g filter="url(#filter2_d)">
<rect x="4.2251" y="155.566" width="44" height="44.8244" rx="22" fill="white"/>
<path d="M34.7038 176.187C34.7038 176.03 34.6297 175.881 34.5038 175.787L23.0145 167.166C22.8367 167.033 22.5922 167.033 22.4144 167.166L10.925 175.787C10.7992 175.881 10.7251 176.03 10.7251 176.187V188.391C10.7251 188.667 10.949 188.891 11.2251 188.891H34.2038C34.4799 188.891 34.7038 188.667 34.7038 188.391V176.187Z" fill="white" stroke="#A8A8A8" stroke-linecap="round" stroke-linejoin="round"/>
<path d="M32.6429 177.548C32.6429 177.617 32.587 177.673 32.5179 177.673H31.0238C30.9489 177.673 30.8757 177.695 30.8137 177.737L22.7856 183.167C22.7433 183.196 22.6878 183.196 22.6455 183.167L14.617 177.737C14.555 177.695 14.4818 177.673 14.4069 177.673H12.9116C12.8426 177.673 12.7866 177.617 12.7866 177.548V173.563C12.7866 173.493 12.8426 173.438 12.9116 173.438H32.5179C32.587 173.438 32.6429 173.493 32.6429 173.562V177.548Z" fill="#D0D0D0" stroke="#A8A8A8" stroke-width="0.25"/>
<path d="M34.7038 176.184C34.7038 176.005 34.6083 175.84 34.4534 175.75C34.2985 175.661 34.1077 175.661 33.9531 175.751L22.7144 182.264L11.4758 175.751C11.3211 175.661 11.1304 175.661 10.9755 175.75C10.8206 175.84 10.7251 176.005 10.7251 176.184V188.391C10.7251 188.667 10.949 188.891 11.2251 188.891H34.2038C34.4799 188.891 34.7038 188.667 34.7038 188.391V176.184Z" fill="white" stroke="#A8A8A8" stroke-linecap="round" stroke-linejoin="round"/>
<path d="M36.1188 178.416C38.939 178.416 41.2252 176.13 41.2252 173.309C41.2252 170.489 38.939 168.203 36.1188 168.203C33.2987 168.203 31.0125 170.489 31.0125 173.309C31.0125 176.13 33.2987 178.416 36.1188 178.416Z" fill="#14C6A2" stroke="#14C6A2" stroke-width="2" stroke-linecap="round" stroke-linejoin="round"/>
<path d="M36.1189 170.758V173.63L38.0338 174.588" stroke="white" stroke-width="2" stroke-linecap="round" stroke-linejoin="round"/>
</g>
<path d="M60.8731 169.48H66.3691V168.592H62.4451C64.6771 166.828 66.3331 165.34 66.3331 163.708C66.3331 162.112 64.9771 161.356 63.6451 161.356C62.5171 161.356 61.4731 161.812 60.8611 162.616L61.4731 163.252C61.9411 162.652 62.6851 162.244 63.6451 162.244C64.4731 162.244 65.3131 162.688 65.3131 163.708C65.3131 165.088 63.7531 166.42 60.8731 168.688V169.48ZM75.4735 169.48H76.3735V161.476H75.4735V164.56C75.0055 163.924 74.2975 163.54 73.5175 163.54C71.9935 163.54 70.9375 164.74 70.9375 166.588C70.9375 168.472 72.0055 169.624 73.5175 169.624C74.3335 169.624 75.0415 169.204 75.4735 168.616V169.48ZM75.4735 167.908C75.1495 168.412 74.4535 168.82 73.7335 168.82C72.5695 168.82 71.8735 167.872 71.8735 166.588C71.8735 165.304 72.5695 164.344 73.7335 164.344C74.4535 164.344 75.1495 164.776 75.4735 165.28V167.908ZM81.7999 169.48H82.6999V165.496C82.6999 164.092 81.6799 163.54 80.4559 163.54C79.5079 163.54 78.7639 163.852 78.1399 164.5L78.5599 165.124C79.0759 164.572 79.6399 164.32 80.3359 164.32C81.1759 164.32 81.7999 164.764 81.7999 165.544V166.588C81.3319 166.048 80.6719 165.796 79.8799 165.796C78.8959 165.796 77.8519 166.408 77.8519 167.704C77.8519 168.964 78.8959 169.624 79.8799 169.624C80.6599 169.624 81.3199 169.348 81.7999 168.82V169.48ZM81.7999 168.256C81.4519 168.736 80.8399 168.976 80.2039 168.976C79.3639 168.976 78.7759 168.448 78.7759 167.716C78.7759 166.972 79.3639 166.444 80.2039 166.444C80.8399 166.444 81.4519 166.684 81.7999 167.164V168.256ZM84.324 170.932L84.18 171.748C84.348 171.796 84.648 171.832 84.84 171.832C85.608 171.82 86.196 171.496 86.544 170.656L89.448 163.684H88.464L86.544 168.436L84.612 163.684H83.64L86.064 169.54L85.68 170.416C85.476 170.896 85.212 171.028 84.816 171.028C84.672 171.028 84.456 170.992 84.324 170.932ZM89.8828 168.712C90.4708 169.336 91.2748 169.624 92.2228 169.624C93.7228 169.624 94.5028 168.844 94.5028 167.872C94.5028 166.588 93.3388 166.3 92.3308 166.072C91.5748 165.892 90.9148 165.712 90.9148 165.148C90.9148 164.632 91.4068 164.272 92.1988 164.272C92.9428 164.272 93.5788 164.584 93.9268 165.004L94.3468 164.38C93.8788 163.912 93.1828 163.54 92.1988 163.54C90.8188 163.54 90.0388 164.308 90.0388 165.208C90.0388 166.408 91.1548 166.672 92.1388 166.9C92.9188 167.092 93.6268 167.296 93.6268 167.932C93.6268 168.496 93.1468 168.892 92.2588 168.892C91.4668 168.892 90.7348 168.508 90.3508 168.064L89.8828 168.712ZM99.0587 169.48H99.9587V168.616C100.391 169.204 101.099 169.624 101.915 169.624C103.427 169.624 104.495 168.472 104.495 166.588C104.495 164.74 103.427 163.54 101.915 163.54C101.123 163.54 100.427 163.924 99.9587 164.56V161.476H99.0587V169.48ZM99.9587 167.908V165.28C100.271 164.776 100.979 164.344 101.687 164.344C102.863 164.344 103.559 165.304 103.559 166.588C103.559 167.872 102.863 168.82 101.687 168.82C100.979 168.82 100.271 168.412 99.9587 167.908ZM105.625 166.576C105.625 168.388 106.861 169.624 108.577 169.624C109.525 169.624 110.305 169.312 110.881 168.736L110.449 168.148C109.993 168.616 109.321 168.88 108.661 168.88C107.413 168.88 106.645 167.968 106.573 166.876H111.265V166.648C111.265 164.908 110.233 163.54 108.481 163.54C106.825 163.54 105.625 164.896 105.625 166.576ZM108.469 164.284C109.789 164.284 110.365 165.352 110.377 166.216H106.573C106.621 165.328 107.233 164.284 108.469 164.284ZM112.975 169.48H113.875V164.476H115.051V163.684H113.875V163.24C113.875 162.508 114.199 162.1 114.787 162.1C114.991 162.1 115.159 162.148 115.303 162.232L115.531 161.56C115.303 161.416 114.991 161.356 114.655 161.356C113.647 161.356 112.975 162.04 112.975 163.24V163.684H112.015V164.476H112.975V169.48ZM118.653 169.624C120.417 169.624 121.521 168.256 121.521 166.576C121.521 164.896 120.417 163.54 118.653 163.54C116.889 163.54 115.785 164.896 115.785 166.576C115.785 168.256 116.889 169.624 118.653 169.624ZM118.653 168.82C117.417 168.82 116.721 167.764 116.721 166.576C116.721 165.4 117.417 164.344 118.653 164.344C119.889 164.344 120.573 165.4 120.573 166.576C120.573 167.764 119.889 168.82 118.653 168.82ZM122.988 169.48H123.888V165.376C124.152 164.908 124.908 164.452 125.46 164.452C125.604 164.452 125.712 164.464 125.82 164.488V163.564C125.028 163.564 124.356 164.008 123.888 164.62V163.684H122.988V169.48ZM126.613 166.576C126.613 168.388 127.849 169.624 129.565 169.624C130.513 169.624 131.293 169.312 131.869 168.736L131.437 168.148C130.981 168.616 130.309 168.88 129.649 168.88C128.401 168.88 127.633 167.968 127.561 166.876H132.253V166.648C132.253 164.908 131.221 163.54 129.469 163.54C127.813 163.54 126.613 164.896 126.613 166.576ZM129.457 164.284C130.777 164.284 131.353 165.352 131.365 166.216H127.561C127.609 165.328 128.221 164.284 129.457 164.284ZM136.469 166.576C136.469 168.388 137.705 169.624 139.421 169.624C140.369 169.624 141.149 169.312 141.725 168.736L141.293 168.148C140.837 168.616 140.165 168.88 139.505 168.88C138.257 168.88 137.489 167.968 137.417 166.876H142.109V166.648C142.109 164.908 141.077 163.54 139.325 163.54C137.669 163.54 136.469 164.896 136.469 166.576ZM139.313 164.284C140.633 164.284 141.209 165.352 141.221 166.216H137.417C137.465 165.328 138.077 164.284 139.313 164.284ZM145.115 169.48H146.099L148.511 163.684H147.527L145.607 168.436L143.675 163.684H142.703L145.115 169.48ZM149.113 166.576C149.113 168.388 150.349 169.624 152.065 169.624C153.013 169.624 153.793 169.312 154.369 168.736L153.937 168.148C153.481 168.616 152.809 168.88 152.149 168.88C150.901 168.88 150.133 167.968 150.061 166.876H154.753V166.648C154.753 164.908 153.721 163.54 151.969 163.54C150.313 163.54 149.113 164.896 149.113 166.576ZM151.957 164.284C153.277 164.284 153.853 165.352 153.865 166.216H150.061C150.109 165.328 150.721 164.284 151.957 164.284ZM160.123 169.48H161.023V165.412C161.023 164.152 160.387 163.54 159.175 163.54C158.311 163.54 157.519 164.044 157.111 164.524V163.684H156.211V169.48H157.111V165.244C157.447 164.776 158.119 164.344 158.827 164.344C159.607 164.344 160.123 164.668 160.123 165.688V169.48ZM164.284 169.624C164.812 169.624 165.136 169.468 165.364 169.252L165.1 168.58C164.98 168.712 164.74 168.82 164.488 168.82C164.092 168.82 163.9 168.508 163.9 168.076V164.476H165.076V163.684H163.9V162.1H163V163.684H162.04V164.476H163V168.268C163 169.132 163.432 169.624 164.284 169.624ZM168.938 168.712C169.526 169.336 170.33 169.624 171.278 169.624C172.778 169.624 173.558 168.844 173.558 167.872C173.558 166.588 172.394 166.3 171.386 166.072C170.63 165.892 169.97 165.712 169.97 165.148C169.97 164.632 170.462 164.272 171.254 164.272C171.998 164.272 172.634 164.584 172.982 165.004L173.402 164.38C172.934 163.912 172.238 163.54 171.254 163.54C169.874 163.54 169.094 164.308 169.094 165.208C169.094 166.408 170.21 166.672 171.194 166.9C171.974 167.092 172.682 167.296 172.682 167.932C172.682 168.496 172.202 168.892 171.314 168.892C170.522 168.892 169.79 168.508 169.406 168.064L168.938 168.712ZM176.484 169.624C177.012 169.624 177.336 169.468 177.564 169.252L177.3 168.58C177.18 168.712 176.94 168.82 176.688 168.82C176.292 168.82 176.1 168.508 176.1 168.076V164.476H177.276V163.684H176.1V162.1H175.2V163.684H174.24V164.476H175.2V168.268C175.2 169.132 175.632 169.624 176.484 169.624ZM182.171 169.48H183.071V165.496C183.071 164.092 182.051 163.54 180.827 163.54C179.879 163.54 179.135 163.852 178.511 164.5L178.931 165.124C179.447 164.572 180.011 164.32 180.707 164.32C181.547 164.32 182.171 164.764 182.171 165.544V166.588C181.703 166.048 181.043 165.796 180.251 165.796C179.267 165.796 178.223 166.408 178.223 167.704C178.223 168.964 179.267 169.624 180.251 169.624C181.031 169.624 181.691 169.348 182.171 168.82V169.48ZM182.171 168.256C181.823 168.736 181.211 168.976 180.575 168.976C179.735 168.976 179.147 168.448 179.147 167.716C179.147 166.972 179.735 166.444 180.575 166.444C181.211 166.444 181.823 166.684 182.171 167.164V168.256ZM184.875 169.48H185.775V165.376C186.039 164.908 186.795 164.452 187.347 164.452C187.491 164.452 187.599 164.464 187.707 164.488V163.564C186.915 163.564 186.243 164.008 185.775 164.62V163.684H184.875V169.48ZM190.3 169.624C190.828 169.624 191.152 169.468 191.38 169.252L191.116 168.58C190.996 168.712 190.756 168.82 190.504 168.82C190.108 168.82 189.916 168.508 189.916 168.076V164.476H191.092V163.684H189.916V162.1H189.016V163.684H188.056V164.476H189.016V168.268C189.016 169.132 189.448 169.624 190.3 169.624ZM191.859 168.712C192.447 169.336 193.251 169.624 194.199 169.624C195.699 169.624 196.479 168.844 196.479 167.872C196.479 166.588 195.315 166.3 194.307 166.072C193.551 165.892 192.891 165.712 192.891 165.148C192.891 164.632 193.383 164.272 194.175 164.272C194.919 164.272 195.555 164.584 195.903 165.004L196.323 164.38C195.855 163.912 195.159 163.54 194.175 163.54C192.795 163.54 192.015 164.308 192.015 165.208C192.015 166.408 193.131 166.672 194.115 166.9C194.895 167.092 195.603 167.296 195.603 167.932C195.603 168.496 195.123 168.892 194.235 168.892C193.443 168.892 192.711 168.508 192.327 168.064L191.859 168.712Z" fill="#1a1a1a" fill-opacity="0.6"/>
<path d="M61.2191 192.48H67.6171V191.038H62.8571V188.448H67.5191V187.006H62.8571V184.584H67.6171V183.142H61.2191V192.48ZM77.5452 192.48H79.0152V187.594C79.0152 186.222 78.3152 185.55 77.0692 185.55C76.0612 185.55 75.1652 186.18 74.7732 186.796C74.5492 186.054 73.9332 185.55 72.9252 185.55C71.9032 185.55 71.0072 186.222 70.7272 186.642V185.718H69.2572V192.48H70.7272V187.762C71.0352 187.314 71.6372 186.852 72.2812 186.852C73.0792 186.852 73.4012 187.342 73.4012 188.07V192.48H74.8712V187.748C75.1652 187.314 75.7812 186.852 76.4392 186.852C77.2232 186.852 77.5452 187.342 77.5452 188.07V192.48ZM85.0493 192.48H86.5193V188C86.5193 186.18 85.2033 185.55 83.7053 185.55C82.6273 185.55 81.6473 185.9 80.8633 186.642L81.4653 187.664C82.0533 187.09 82.7113 186.81 83.4673 186.81C84.4053 186.81 85.0493 187.286 85.0493 188.07V189.078C84.5593 188.504 83.7753 188.21 82.8653 188.21C81.7593 188.21 80.5133 188.854 80.5133 190.408C80.5133 191.906 81.7593 192.648 82.8653 192.648C83.7613 192.648 84.5453 192.326 85.0493 191.752V192.48ZM85.0493 190.94C84.7133 191.402 84.0833 191.64 83.4393 191.64C82.6133 191.64 81.9973 191.164 81.9973 190.436C81.9973 189.694 82.6133 189.218 83.4393 189.218C84.0833 189.218 84.7133 189.456 85.0493 189.918V190.94ZM89.1531 184.598C89.6571 184.598 90.0631 184.192 90.0631 183.688C90.0631 183.184 89.6571 182.778 89.1531 182.778C88.6631 182.778 88.2431 183.184 88.2431 183.688C88.2431 184.192 88.6631 184.598 89.1531 184.598ZM88.4251 192.48H89.8951V185.718H88.4251V192.48ZM91.8021 192.48H93.2721V183.142H91.8021V192.48ZM98.7748 192.48H100.245V187.874C100.539 187.398 101.365 186.978 101.981 186.978C102.163 186.978 102.317 186.992 102.443 187.02V185.564C101.561 185.564 100.749 186.068 100.245 186.712V185.718H98.7748V192.48ZM103.208 189.092C103.208 191.234 104.72 192.648 106.75 192.648C107.828 192.648 108.822 192.312 109.494 191.668L108.822 190.702C108.346 191.178 107.562 191.444 106.904 191.444C105.63 191.444 104.86 190.604 104.748 189.582H109.97V189.232C109.97 187.104 108.668 185.55 106.638 185.55C104.636 185.55 103.208 187.132 103.208 189.092ZM106.638 186.754C107.968 186.754 108.514 187.748 108.542 188.546H104.734C104.804 187.72 105.378 186.754 106.638 186.754ZM119.709 192.48H121.179V187.594C121.179 186.222 120.479 185.55 119.233 185.55C118.225 185.55 117.329 186.18 116.937 186.796C116.713 186.054 116.097 185.55 115.089 185.55C114.067 185.55 113.171 186.222 112.891 186.642V185.718H111.421V192.48H112.891V187.762C113.199 187.314 113.801 186.852 114.445 186.852C115.243 186.852 115.565 187.342 115.565 188.07V192.48H117.035V187.748C117.329 187.314 117.945 186.852 118.603 186.852C119.387 186.852 119.709 187.342 119.709 188.07V192.48ZM123.811 184.598C124.315 184.598 124.721 184.192 124.721 183.688C124.721 183.184 124.315 182.778 123.811 182.778C123.321 182.778 122.901 183.184 122.901 183.688C122.901 184.192 123.321 184.598 123.811 184.598ZM123.083 192.48H124.553V185.718H123.083V192.48ZM131.024 192.48H132.494V187.72C132.494 186.334 131.766 185.55 130.31 185.55C129.246 185.55 128.378 186.11 127.93 186.642V185.718H126.46V192.48H127.93V187.762C128.266 187.3 128.91 186.852 129.666 186.852C130.492 186.852 131.024 187.202 131.024 188.252V192.48ZM139.164 192.48H140.634V183.142H139.164V186.656C138.618 185.942 137.834 185.55 136.994 185.55C135.244 185.55 133.984 186.922 133.984 189.106C133.984 191.332 135.258 192.648 136.994 192.648C137.862 192.648 138.646 192.228 139.164 191.556V192.48ZM139.164 190.45C138.828 190.954 138.114 191.346 137.414 191.346C136.252 191.346 135.51 190.408 135.51 189.106C135.51 187.79 136.252 186.852 137.414 186.852C138.114 186.852 138.828 187.258 139.164 187.762V190.45ZM142.118 189.092C142.118 191.234 143.63 192.648 145.66 192.648C146.738 192.648 147.732 192.312 148.404 191.668L147.732 190.702C147.256 191.178 146.472 191.444 145.814 191.444C144.54 191.444 143.77 190.604 143.658 189.582H148.88V189.232C148.88 187.104 147.578 185.55 145.548 185.55C143.546 185.55 142.118 187.132 142.118 189.092ZM145.548 186.754C146.878 186.754 147.424 187.748 147.452 188.546H143.644C143.714 187.72 144.288 186.754 145.548 186.754ZM150.331 192.48H151.801V187.874C152.095 187.398 152.921 186.978 153.537 186.978C153.719 186.978 153.873 186.992 153.999 187.02V185.564C153.117 185.564 152.305 186.068 151.801 186.712V185.718H150.331V192.48ZM158.193 191.598C158.893 192.284 159.943 192.648 161.091 192.648C162.911 192.648 163.905 191.738 163.905 190.548C163.905 188.952 162.463 188.616 161.287 188.364C160.489 188.182 159.817 188 159.817 187.482C159.817 187.006 160.307 186.726 161.077 186.726C161.917 186.726 162.673 187.076 163.079 187.538L163.695 186.502C163.079 185.956 162.211 185.55 161.063 185.55C159.355 185.55 158.403 186.502 158.403 187.608C158.403 189.12 159.789 189.428 160.951 189.68C161.777 189.862 162.491 190.072 162.491 190.66C162.491 191.164 162.043 191.486 161.161 191.486C160.279 191.486 159.341 191.024 158.865 190.534L158.193 191.598ZM164.964 189.092C164.964 191.234 166.476 192.648 168.506 192.648C169.584 192.648 170.578 192.312 171.25 191.668L170.578 190.702C170.102 191.178 169.318 191.444 168.66 191.444C167.386 191.444 166.616 190.604 166.504 189.582H171.726V189.232C171.726 187.104 170.424 185.55 168.394 185.55C166.392 185.55 164.964 187.132 164.964 189.092ZM168.394 186.754C169.724 186.754 170.27 187.748 170.298 188.546H166.49C166.56 187.72 167.134 186.754 168.394 186.754ZM177.741 192.48H179.211V187.72C179.211 186.334 178.483 185.55 177.027 185.55C175.963 185.55 175.095 186.11 174.647 186.642V185.718H173.177V192.48H174.647V187.762C174.983 187.3 175.627 186.852 176.383 186.852C177.209 186.852 177.741 187.202 177.741 188.252V192.48ZM183.15 192.648C183.836 192.648 184.27 192.466 184.536 192.214L184.186 191.108C184.074 191.234 183.808 191.346 183.528 191.346C183.108 191.346 182.884 191.01 182.884 190.548V187.006H184.256V185.718H182.884V183.87H181.414V185.718H180.294V187.006H181.414V190.912C181.414 192.032 182.016 192.648 183.15 192.648ZM191.217 192.648C191.903 192.648 192.337 192.466 192.603 192.214L192.253 191.108C192.141 191.234 191.875 191.346 191.595 191.346C191.175 191.346 190.951 191.01 190.951 190.548V187.006H192.323V185.718H190.951V183.87H189.481V185.718H188.361V187.006H189.481V190.912C189.481 192.032 190.083 192.648 191.217 192.648ZM196.71 192.648C198.88 192.648 200.196 191.038 200.196 189.092C200.196 187.16 198.88 185.55 196.71 185.55C194.568 185.55 193.238 187.16 193.238 189.092C193.238 191.038 194.568 192.648 196.71 192.648ZM196.71 191.346C195.464 191.346 194.764 190.296 194.764 189.092C194.764 187.902 195.464 186.852 196.71 186.852C197.97 186.852 198.67 187.902 198.67 189.092C198.67 190.296 197.97 191.346 196.71 191.346ZM206.007 184.598C206.511 184.598 206.917 184.192 206.917 183.688C206.917 183.184 206.511 182.778 206.007 182.778C205.517 182.778 205.097 183.184 205.097 183.688C205.097 184.192 205.517 184.598 206.007 184.598ZM205.279 192.48H206.749V185.718H205.279V192.48ZM213.22 192.48H214.69V187.72C214.69 186.334 213.962 185.55 212.506 185.55C211.442 185.55 210.574 186.11 210.126 186.642V185.718H208.656V192.48H210.126V187.762C210.462 187.3 211.106 186.852 211.862 186.852C212.688 186.852 213.22 187.202 213.22 188.252V192.48ZM218.377 192.48H219.959L222.717 185.718H221.135L219.161 190.786L217.187 185.718H215.619L218.377 192.48ZM224.368 184.598C224.872 184.598 225.278 184.192 225.278 183.688C225.278 183.184 224.872 182.778 224.368 182.778C223.878 182.778 223.458 183.184 223.458 183.688C223.458 184.192 223.878 184.598 224.368 184.598ZM223.64 192.48H225.11V185.718H223.64V192.48ZM229.047 192.648C229.733 192.648 230.167 192.466 230.433 192.214L230.083 191.108C229.971 191.234 229.705 191.346 229.425 191.346C229.005 191.346 228.781 191.01 228.781 190.548V187.006H230.153V185.718H228.781V183.87H227.311V185.718H226.191V187.006H227.311V190.912C227.311 192.032 227.913 192.648 229.047 192.648ZM231.068 189.092C231.068 191.234 232.58 192.648 234.61 192.648C235.688 192.648 236.682 192.312 237.354 191.668L236.682 190.702C236.206 191.178 235.422 191.444 234.764 191.444C233.49 191.444 232.72 190.604 232.608 189.582H237.83V189.232C237.83 187.104 236.528 185.55 234.498 185.55C232.496 185.55 231.068 187.132 231.068 189.092ZM234.498 186.754C235.828 186.754 236.374 187.748 236.402 188.546H232.594C232.664 187.72 233.238 186.754 234.498 186.754ZM238.861 189.092C238.861 191.234 240.373 192.648 242.403 192.648C243.481 192.648 244.475 192.312 245.147 191.668L244.475 190.702C243.999 191.178 243.215 191.444 242.557 191.444C241.283 191.444 240.513 190.604 240.401 189.582H245.623V189.232C245.623 187.104 244.321 185.55 242.291 185.55C240.289 185.55 238.861 187.132 238.861 189.092ZM242.291 186.754C243.621 186.754 244.167 187.748 244.195 188.546H240.387C240.457 187.72 241.031 186.754 242.291 186.754Z" fill="#1a1a1a"/>
<rect x="41.5" y="228.5" width="255" height="77" rx="3.5" fill="white" stroke="#DADADA"/>
<g filter="url(#filter3_d)">
<rect x="4.2251" y="242.566" width="44" height="44.8245" rx="22" fill="white"/>
<path d="M34.7038 263.187C34.7038 263.03 34.6298 262.882 34.5039 262.787L23.0145 254.166C22.8367 254.033 22.5922 254.033 22.4144 254.166L10.925 262.787C10.7992 262.882 10.7251 263.03 10.7251 263.187V275.391C10.7251 275.667 10.949 275.891 11.2251 275.891H34.2038C34.48 275.891 34.7038 275.667 34.7038 275.391V263.187Z" fill="white" stroke="#A8A8A8" stroke-linecap="round" stroke-linejoin="round"/>
<path d="M32.6428 264.548C32.6428 264.617 32.5868 264.673 32.5178 264.673H31.0236C30.9487 264.673 30.8755 264.696 30.8135 264.737L22.7854 270.167C22.7431 270.196 22.6876 270.196 22.6453 270.167L14.6168 264.737C14.5547 264.696 14.4816 264.673 14.4067 264.673H12.9114C12.8423 264.673 12.7864 264.617 12.7864 264.548V260.563C12.7864 260.493 12.8423 260.438 12.9114 260.438H32.5178C32.5868 260.438 32.6428 260.493 32.6428 260.562V264.548Z" fill="#D0D0D0" stroke="#A8A8A8" stroke-width="0.25"/>
<path d="M34.7038 263.184C34.7038 263.005 34.6084 262.84 34.4535 262.75C34.2986 262.661 34.1078 262.661 33.9531 262.751L22.7145 269.264L11.4758 262.751C11.3211 262.661 11.1304 262.661 10.9755 262.75C10.8206 262.84 10.7251 263.005 10.7251 263.184V275.391C10.7251 275.667 10.949 275.891 11.2251 275.891H34.2038C34.48 275.891 34.7038 275.667 34.7038 275.391V263.184Z" fill="white" stroke="#A8A8A8" stroke-linecap="round" stroke-linejoin="round"/>
<path d="M36.1188 265.416C38.939 265.416 41.2252 263.13 41.2252 260.31C41.2252 257.489 38.939 255.203 36.1188 255.203C33.2987 255.203 31.0125 257.489 31.0125 260.31C31.0125 263.13 33.2987 265.416 36.1188 265.416Z" fill="#5A91E2" stroke="#5A91E2" stroke-width="2" stroke-linecap="round" stroke-linejoin="round"/>
<path d="M34.5929 263.279C34.1492 263.279 33.7328 263.106 33.4196 262.793C33.1064 262.48 32.9341 262.063 32.9341 261.62C32.9341 261.177 33.1064 260.761 33.4188 260.448L34.3387 259.528C34.6515 259.215 35.0676 259.043 35.5104 259.043C35.954 259.043 36.3705 259.216 36.6841 259.529C37.3308 260.176 37.3304 261.229 36.6833 261.876L35.7657 262.793C35.4526 263.106 35.0361 263.279 34.5929 263.279ZM35.5104 259.44C35.1733 259.44 34.857 259.571 34.6192 259.809L33.6992 260.728C33.4615 260.966 33.3306 261.283 33.3306 261.62C33.3306 261.957 33.4619 262.274 33.7 262.512C34.1756 262.988 35.0082 262.989 35.4853 262.512L36.4028 261.595C36.8955 261.103 36.8959 260.302 36.4036 259.809C36.1655 259.571 35.8483 259.44 35.5104 259.44Z" fill="white" stroke="white" stroke-width="0.5"/>
<path d="M36.3338 261.54C35.8902 261.54 35.4733 261.368 35.1606 261.055C34.8474 260.742 34.675 260.325 34.675 259.881C34.675 259.438 34.8474 259.022 35.1598 258.709L36.0793 257.789C36.3925 257.477 36.8086 257.305 37.2514 257.305C37.6946 257.305 38.1115 257.477 38.4247 257.791C38.7378 258.104 38.911 258.521 38.9114 258.963C38.9114 259.407 38.7382 259.824 38.4243 260.138L37.5067 261.055C37.1939 261.368 36.7774 261.54 36.3338 261.54ZM37.2514 257.702C36.9143 257.702 36.5975 257.832 36.3598 258.07L35.4406 258.99C35.2028 259.228 35.072 259.544 35.072 259.881C35.072 260.219 35.2032 260.536 35.441 260.774C35.9173 261.251 36.7499 261.252 37.2266 260.774L38.1442 259.857C38.3836 259.618 38.5152 259.301 38.5152 258.963C38.5152 258.626 38.3836 258.31 38.1446 258.071C37.906 257.833 37.5889 257.702 37.2514 257.702Z" fill="white" stroke="white" stroke-width="0.5"/>
</g>
<path d="M62.3611 256.48H63.3571V248.476H62.4811L60.4771 250.54L61.0771 251.152L62.3611 249.796V256.48ZM72.4853 256.48H73.3853V248.476H72.4853V251.56C72.0173 250.924 71.3093 250.54 70.5293 250.54C69.0053 250.54 67.9493 251.74 67.9493 253.588C67.9493 255.472 69.0173 256.624 70.5293 256.624C71.3453 256.624 72.0533 256.204 72.4853 255.616V256.48ZM72.4853 254.908C72.1613 255.412 71.4653 255.82 70.7453 255.82C69.5813 255.82 68.8853 254.872 68.8853 253.588C68.8853 252.304 69.5813 251.344 70.7453 251.344C71.4653 251.344 72.1613 251.776 72.4853 252.28V254.908ZM78.8116 256.48H79.7116V252.496C79.7116 251.092 78.6916 250.54 77.4676 250.54C76.5196 250.54 75.7756 250.852 75.1516 251.5L75.5716 252.124C76.0876 251.572 76.6516 251.32 77.3476 251.32C78.1876 251.32 78.8116 251.764 78.8116 252.544V253.588C78.3436 253.048 77.6836 252.796 76.8916 252.796C75.9076 252.796 74.8636 253.408 74.8636 254.704C74.8636 255.964 75.9076 256.624 76.8916 256.624C77.6716 256.624 78.3316 256.348 78.8116 255.82V256.48ZM78.8116 255.256C78.4636 255.736 77.8516 255.976 77.2156 255.976C76.3756 255.976 75.7876 255.448 75.7876 254.716C75.7876 253.972 76.3756 253.444 77.2156 253.444C77.8516 253.444 78.4636 253.684 78.8116 254.164V255.256ZM81.3357 257.932L81.1917 258.748C81.3597 258.796 81.6597 258.832 81.8517 258.832C82.6197 258.82 83.2077 258.496 83.5557 257.656L86.4597 250.684H85.4757L83.5557 255.436L81.6237 250.684H80.6517L83.0757 256.54L82.6917 257.416C82.4877 257.896 82.2237 258.028 81.8277 258.028C81.6837 258.028 81.4677 257.992 81.3357 257.932ZM90.4923 256.48H91.3923V255.616C91.8243 256.204 92.5323 256.624 93.3483 256.624C94.8603 256.624 95.9283 255.472 95.9283 253.588C95.9283 251.74 94.8603 250.54 93.3483 250.54C92.5563 250.54 91.8603 250.924 91.3923 251.56V248.476H90.4923V256.48ZM91.3923 254.908V252.28C91.7043 251.776 92.4123 251.344 93.1203 251.344C94.2963 251.344 94.9923 252.304 94.9923 253.588C94.9923 254.872 94.2963 255.82 93.1203 255.82C92.4123 255.82 91.7043 255.412 91.3923 254.908ZM97.0586 253.576C97.0586 255.388 98.2946 256.624 100.011 256.624C100.959 256.624 101.739 256.312 102.315 255.736L101.883 255.148C101.427 255.616 100.755 255.88 100.095 255.88C98.8466 255.88 98.0786 254.968 98.0066 253.876H102.699V253.648C102.699 251.908 101.667 250.54 99.9146 250.54C98.2586 250.54 97.0586 251.896 97.0586 253.576ZM99.9026 251.284C101.223 251.284 101.799 252.352 101.811 253.216H98.0066C98.0546 252.328 98.6666 251.284 99.9026 251.284ZM104.408 256.48H105.308V251.476H106.484V250.684H105.308V250.24C105.308 249.508 105.632 249.1 106.22 249.1C106.424 249.1 106.592 249.148 106.736 249.232L106.964 248.56C106.736 248.416 106.424 248.356 106.088 248.356C105.08 248.356 104.408 249.04 104.408 250.24V250.684H103.448V251.476H104.408V256.48ZM110.087 256.624C111.851 256.624 112.955 255.256 112.955 253.576C112.955 251.896 111.851 250.54 110.087 250.54C108.323 250.54 107.219 251.896 107.219 253.576C107.219 255.256 108.323 256.624 110.087 256.624ZM110.087 255.82C108.851 255.82 108.155 254.764 108.155 253.576C108.155 252.4 108.851 251.344 110.087 251.344C111.323 251.344 112.007 252.4 112.007 253.576C112.007 254.764 111.323 255.82 110.087 255.82ZM114.422 256.48H115.322V252.376C115.586 251.908 116.342 251.452 116.894 251.452C117.038 251.452 117.146 251.464 117.254 251.488V250.564C116.462 250.564 115.79 251.008 115.322 251.62V250.684H114.422V256.48ZM118.047 253.576C118.047 255.388 119.283 256.624 120.999 256.624C121.947 256.624 122.727 256.312 123.303 255.736L122.871 255.148C122.415 255.616 121.743 255.88 121.083 255.88C119.835 255.88 119.067 254.968 118.995 253.876H123.687V253.648C123.687 251.908 122.655 250.54 120.903 250.54C119.247 250.54 118.047 251.896 118.047 253.576ZM120.891 251.284C122.211 251.284 122.787 252.352 122.799 253.216H118.995C119.043 252.328 119.655 251.284 120.891 251.284ZM127.902 253.576C127.902 255.388 129.138 256.624 130.854 256.624C131.802 256.624 132.582 256.312 133.158 255.736L132.726 255.148C132.27 255.616 131.598 255.88 130.938 255.88C129.69 255.88 128.922 254.968 128.85 253.876H133.542V253.648C133.542 251.908 132.51 250.54 130.758 250.54C129.102 250.54 127.902 251.896 127.902 253.576ZM130.746 251.284C132.066 251.284 132.642 252.352 132.654 253.216H128.85C128.898 252.328 129.51 251.284 130.746 251.284ZM136.548 256.48H137.532L139.944 250.684H138.96L137.04 255.436L135.108 250.684H134.136L136.548 256.48ZM140.547 253.576C140.547 255.388 141.783 256.624 143.499 256.624C144.447 256.624 145.227 256.312 145.803 255.736L145.371 255.148C144.915 255.616 144.243 255.88 143.583 255.88C142.335 255.88 141.567 254.968 141.495 253.876H146.187V253.648C146.187 251.908 145.155 250.54 143.403 250.54C141.747 250.54 140.547 251.896 140.547 253.576ZM143.391 251.284C144.711 251.284 145.287 252.352 145.299 253.216H141.495C141.543 252.328 142.155 251.284 143.391 251.284ZM151.557 256.48H152.457V252.412C152.457 251.152 151.821 250.54 150.609 250.54C149.745 250.54 148.953 251.044 148.545 251.524V250.684H147.645V256.48H148.545V252.244C148.881 251.776 149.553 251.344 150.261 251.344C151.041 251.344 151.557 251.668 151.557 252.688V256.48ZM155.718 256.624C156.246 256.624 156.57 256.468 156.798 256.252L156.534 255.58C156.414 255.712 156.174 255.82 155.922 255.82C155.526 255.82 155.334 255.508 155.334 255.076V251.476H156.51V250.684H155.334V249.1H154.434V250.684H153.474V251.476H154.434V255.268C154.434 256.132 154.866 256.624 155.718 256.624ZM160.371 255.712C160.959 256.336 161.763 256.624 162.711 256.624C164.211 256.624 164.991 255.844 164.991 254.872C164.991 253.588 163.827 253.3 162.819 253.072C162.063 252.892 161.403 252.712 161.403 252.148C161.403 251.632 161.895 251.272 162.687 251.272C163.431 251.272 164.067 251.584 164.415 252.004L164.835 251.38C164.367 250.912 163.671 250.54 162.687 250.54C161.307 250.54 160.527 251.308 160.527 252.208C160.527 253.408 161.643 253.672 162.627 253.9C163.407 254.092 164.115 254.296 164.115 254.932C164.115 255.496 163.635 255.892 162.747 255.892C161.955 255.892 161.223 255.508 160.839 255.064L160.371 255.712ZM167.917 256.624C168.445 256.624 168.769 256.468 168.997 256.252L168.733 255.58C168.613 255.712 168.373 255.82 168.121 255.82C167.725 255.82 167.533 255.508 167.533 255.076V251.476H168.709V250.684H167.533V249.1H166.633V250.684H165.673V251.476H166.633V255.268C166.633 256.132 167.065 256.624 167.917 256.624ZM173.605 256.48H174.505V252.496C174.505 251.092 173.485 250.54 172.261 250.54C171.313 250.54 170.569 250.852 169.945 251.5L170.365 252.124C170.881 251.572 171.445 251.32 172.141 251.32C172.981 251.32 173.605 251.764 173.605 252.544V253.588C173.137 253.048 172.477 252.796 171.685 252.796C170.701 252.796 169.657 253.408 169.657 254.704C169.657 255.964 170.701 256.624 171.685 256.624C172.465 256.624 173.125 256.348 173.605 255.82V256.48ZM173.605 255.256C173.257 255.736 172.645 255.976 172.009 255.976C171.169 255.976 170.581 255.448 170.581 254.716C170.581 253.972 171.169 253.444 172.009 253.444C172.645 253.444 173.257 253.684 173.605 254.164V255.256ZM176.309 256.48H177.209V252.376C177.473 251.908 178.229 251.452 178.781 251.452C178.925 251.452 179.033 251.464 179.141 251.488V250.564C178.349 250.564 177.677 251.008 177.209 251.62V250.684H176.309V256.48ZM181.734 256.624C182.262 256.624 182.586 256.468 182.814 256.252L182.55 255.58C182.43 255.712 182.19 255.82 181.938 255.82C181.542 255.82 181.35 255.508 181.35 255.076V251.476H182.526V250.684H181.35V249.1H180.45V250.684H179.49V251.476H180.45V255.268C180.45 256.132 180.882 256.624 181.734 256.624ZM183.293 255.712C183.881 256.336 184.685 256.624 185.633 256.624C187.133 256.624 187.913 255.844 187.913 254.872C187.913 253.588 186.749 253.3 185.741 253.072C184.985 252.892 184.325 252.712 184.325 252.148C184.325 251.632 184.817 251.272 185.609 251.272C186.353 251.272 186.989 251.584 187.337 252.004L187.757 251.38C187.289 250.912 186.593 250.54 185.609 250.54C184.229 250.54 183.449 251.308 183.449 252.208C183.449 253.408 184.565 253.672 185.549 253.9C186.329 254.092 187.037 254.296 187.037 254.932C187.037 255.496 186.557 255.892 185.669 255.892C184.877 255.892 184.145 255.508 183.761 255.064L183.293 255.712Z" fill="#1a1a1a" fill-opacity="0.6"/>
<path d="M61.2191 279.48H67.6171V278.038H62.8571V275.448H67.5191V274.006H62.8571V271.584H67.6171V270.142H61.2191V279.48ZM77.5452 279.48H79.0152V274.594C79.0152 273.222 78.3152 272.55 77.0692 272.55C76.0612 272.55 75.1652 273.18 74.7732 273.796C74.5492 273.054 73.9332 272.55 72.9252 272.55C71.9032 272.55 71.0072 273.222 70.7272 273.642V272.718H69.2572V279.48H70.7272V274.762C71.0352 274.314 71.6372 273.852 72.2812 273.852C73.0792 273.852 73.4012 274.342 73.4012 275.07V279.48H74.8712V274.748C75.1652 274.314 75.7812 273.852 76.4392 273.852C77.2232 273.852 77.5452 274.342 77.5452 275.07V279.48ZM85.0493 279.48H86.5193V275C86.5193 273.18 85.2033 272.55 83.7053 272.55C82.6273 272.55 81.6473 272.9 80.8633 273.642L81.4653 274.664C82.0533 274.09 82.7113 273.81 83.4673 273.81C84.4053 273.81 85.0493 274.286 85.0493 275.07V276.078C84.5593 275.504 83.7753 275.21 82.8653 275.21C81.7593 275.21 80.5133 275.854 80.5133 277.408C80.5133 278.906 81.7593 279.648 82.8653 279.648C83.7613 279.648 84.5453 279.326 85.0493 278.752V279.48ZM85.0493 277.94C84.7133 278.402 84.0833 278.64 83.4393 278.64C82.6133 278.64 81.9973 278.164 81.9973 277.436C81.9973 276.694 82.6133 276.218 83.4393 276.218C84.0833 276.218 84.7133 276.456 85.0493 276.918V277.94ZM89.1531 271.598C89.6571 271.598 90.0631 271.192 90.0631 270.688C90.0631 270.184 89.6571 269.778 89.1531 269.778C88.6631 269.778 88.2431 270.184 88.2431 270.688C88.2431 271.192 88.6631 271.598 89.1531 271.598ZM88.4251 279.48H89.8951V272.718H88.4251V279.48ZM91.8021 279.48H93.2721V270.142H91.8021V279.48ZM102.905 279.48H104.375V275C104.375 273.18 103.059 272.55 101.561 272.55C100.483 272.55 99.5028 272.9 98.7188 273.642L99.3208 274.664C99.9088 274.09 100.567 273.81 101.323 273.81C102.261 273.81 102.905 274.286 102.905 275.07V276.078C102.415 275.504 101.631 275.21 100.721 275.21C99.6148 275.21 98.3688 275.854 98.3688 277.408C98.3688 278.906 99.6148 279.648 100.721 279.648C101.617 279.648 102.401 279.326 102.905 278.752V279.48ZM102.905 277.94C102.569 278.402 101.939 278.64 101.295 278.64C100.469 278.64 99.8528 278.164 99.8528 277.436C99.8528 276.694 100.469 276.218 101.295 276.218C101.939 276.218 102.569 276.456 102.905 276.918V277.94ZM111.041 279.48H112.511V270.142H111.041V273.656C110.495 272.942 109.711 272.55 108.871 272.55C107.121 272.55 105.861 273.922 105.861 276.106C105.861 278.332 107.135 279.648 108.871 279.648C109.739 279.648 110.523 279.228 111.041 278.556V279.48ZM111.041 277.45C110.705 277.954 109.991 278.346 109.291 278.346C108.129 278.346 107.387 277.408 107.387 276.106C107.387 274.79 108.129 273.852 109.291 273.852C109.991 273.852 110.705 274.258 111.041 274.762V277.45ZM119.175 279.48H120.645V270.142H119.175V273.656C118.629 272.942 117.845 272.55 117.005 272.55C115.255 272.55 113.995 273.922 113.995 276.106C113.995 278.332 115.269 279.648 117.005 279.648C117.873 279.648 118.657 279.228 119.175 278.556V279.48ZM119.175 277.45C118.839 277.954 118.125 278.346 117.425 278.346C116.263 278.346 115.521 277.408 115.521 276.106C115.521 274.79 116.263 273.852 117.425 273.852C118.125 273.852 118.839 274.258 119.175 274.762V277.45ZM123.278 271.598C123.782 271.598 124.188 271.192 124.188 270.688C124.188 270.184 123.782 269.778 123.278 269.778C122.788 269.778 122.368 270.184 122.368 270.688C122.368 271.192 122.788 271.598 123.278 271.598ZM122.55 279.48H124.02V272.718H122.55V279.48ZM127.957 279.648C128.643 279.648 129.077 279.466 129.343 279.214L128.993 278.108C128.881 278.234 128.615 278.346 128.335 278.346C127.915 278.346 127.691 278.01 127.691 277.548V274.006H129.063V272.718H127.691V270.87H126.221V272.718H125.101V274.006H126.221V277.912C126.221 279.032 126.823 279.648 127.957 279.648ZM131.126 271.598C131.63 271.598 132.036 271.192 132.036 270.688C132.036 270.184 131.63 269.778 131.126 269.778C130.636 269.778 130.216 270.184 130.216 270.688C130.216 271.192 130.636 271.598 131.126 271.598ZM130.398 279.48H131.868V272.718H130.398V279.48ZM136.827 279.648C138.997 279.648 140.313 278.038 140.313 276.092C140.313 274.16 138.997 272.55 136.827 272.55C134.685 272.55 133.355 274.16 133.355 276.092C133.355 278.038 134.685 279.648 136.827 279.648ZM136.827 278.346C135.581 278.346 134.881 277.296 134.881 276.092C134.881 274.902 135.581 273.852 136.827 273.852C138.087 273.852 138.787 274.902 138.787 276.092C138.787 277.296 138.087 278.346 136.827 278.346ZM146.364 279.48H147.834V274.72C147.834 273.334 147.106 272.55 145.65 272.55C144.586 272.55 143.718 273.11 143.27 273.642V272.718H141.8V279.48H143.27V274.762C143.606 274.3 144.25 273.852 145.006 273.852C145.832 273.852 146.364 274.202 146.364 275.252V279.48ZM153.874 279.48H155.344V275C155.344 273.18 154.028 272.55 152.53 272.55C151.452 272.55 150.472 272.9 149.688 273.642L150.29 274.664C150.878 274.09 151.536 273.81 152.292 273.81C153.23 273.81 153.874 274.286 153.874 275.07V276.078C153.384 275.504 152.6 275.21 151.69 275.21C150.584 275.21 149.338 275.854 149.338 277.408C149.338 278.906 150.584 279.648 151.69 279.648C152.586 279.648 153.37 279.326 153.874 278.752V279.48ZM153.874 277.94C153.538 278.402 152.908 278.64 152.264 278.64C151.438 278.64 150.822 278.164 150.822 277.436C150.822 276.694 151.438 276.218 152.264 276.218C152.908 276.218 153.538 276.456 153.874 276.918V277.94ZM157.249 279.48H158.719V270.142H157.249V279.48ZM164.222 279.48H165.692V274.874C165.986 274.398 166.812 273.978 167.428 273.978C167.61 273.978 167.764 273.992 167.89 274.02V272.564C167.008 272.564 166.196 273.068 165.692 273.712V272.718H164.222V279.48ZM168.656 276.092C168.656 278.234 170.168 279.648 172.198 279.648C173.276 279.648 174.27 279.312 174.942 278.668L174.27 277.702C173.794 278.178 173.01 278.444 172.352 278.444C171.078 278.444 170.308 277.604 170.196 276.582H175.418V276.232C175.418 274.104 174.116 272.55 172.086 272.55C170.084 272.55 168.656 274.132 168.656 276.092ZM172.086 273.754C173.416 273.754 173.962 274.748 173.99 275.546H170.182C170.252 274.72 170.826 273.754 172.086 273.754ZM176.281 278.598C176.981 279.284 178.031 279.648 179.179 279.648C180.999 279.648 181.993 278.738 181.993 277.548C181.993 275.952 180.551 275.616 179.375 275.364C178.577 275.182 177.905 275 177.905 274.482C177.905 274.006 178.395 273.726 179.165 273.726C180.005 273.726 180.761 274.076 181.167 274.538L181.783 273.502C181.167 272.956 180.299 272.55 179.151 272.55C177.443 272.55 176.491 273.502 176.491 274.608C176.491 276.12 177.877 276.428 179.039 276.68C179.865 276.862 180.579 277.072 180.579 277.66C180.579 278.164 180.131 278.486 179.249 278.486C178.367 278.486 177.429 278.024 176.953 277.534L176.281 278.598ZM186.524 279.648C188.694 279.648 190.01 278.038 190.01 276.092C190.01 274.16 188.694 272.55 186.524 272.55C184.382 272.55 183.052 274.16 183.052 276.092C183.052 278.038 184.382 279.648 186.524 279.648ZM186.524 278.346C185.278 278.346 184.578 277.296 184.578 276.092C184.578 274.902 185.278 273.852 186.524 273.852C187.784 273.852 188.484 274.902 188.484 276.092C188.484 277.296 187.784 278.346 186.524 278.346ZM196.061 279.48H197.531V272.718H196.061V277.464C195.711 277.926 195.067 278.346 194.325 278.346C193.499 278.346 192.967 278.024 192.967 276.974V272.718H191.497V277.506C191.497 278.892 192.211 279.648 193.667 279.648C194.731 279.648 195.571 279.13 196.061 278.584V279.48ZM199.441 279.48H200.911V274.874C201.205 274.398 202.031 273.978 202.647 273.978C202.829 273.978 202.983 273.992 203.109 274.02V272.564C202.227 272.564 201.415 273.068 200.911 273.712V272.718H199.441V279.48ZM203.874 276.092C203.874 278.15 205.316 279.648 207.374 279.648C208.69 279.648 209.488 279.088 209.964 278.444L208.998 277.548C208.62 278.066 208.102 278.346 207.444 278.346C206.212 278.346 205.4 277.408 205.4 276.092C205.4 274.776 206.212 273.852 207.444 273.852C208.102 273.852 208.62 274.118 208.998 274.65L209.964 273.754C209.488 273.11 208.69 272.55 207.374 272.55C205.316 272.55 203.874 274.048 203.874 276.092ZM210.833 276.092C210.833 278.234 212.345 279.648 214.375 279.648C215.453 279.648 216.447 279.312 217.119 278.668L216.447 277.702C215.971 278.178 215.187 278.444 214.529 278.444C213.255 278.444 212.485 277.604 212.373 276.582H217.595V276.232C217.595 274.104 216.293 272.55 214.263 272.55C212.261 272.55 210.833 274.132 210.833 276.092ZM214.263 273.754C215.593 273.754 216.139 274.748 216.167 275.546H212.359C212.429 274.72 213.003 273.754 214.263 273.754ZM218.458 278.598C219.158 279.284 220.208 279.648 221.356 279.648C223.176 279.648 224.17 278.738 224.17 277.548C224.17 275.952 222.728 275.616 221.552 275.364C220.754 275.182 220.082 275 220.082 274.482C220.082 274.006 220.572 273.726 221.342 273.726C222.182 273.726 222.938 274.076 223.344 274.538L223.96 273.502C223.344 272.956 222.476 272.55 221.328 272.55C219.62 272.55 218.668 273.502 218.668 274.608C218.668 276.12 220.054 276.428 221.216 276.68C222.042 276.862 222.756 277.072 222.756 277.66C222.756 278.164 222.308 278.486 221.426 278.486C220.544 278.486 219.606 278.024 219.13 277.534L218.458 278.598Z" fill="#1a1a1a"/>
<g filter="url(#filter4_d)">
<rect x="5" y="318" width="290" height="33" rx="16.5" fill="white"/>
<path d="M25.792 338H31.456V336.524H27.496V334.664H31.372V333.2H27.496V331.46H31.456V329.996H25.792V338ZM35.0321 338H37.1681L40.2521 329.996H38.3081L36.1001 336.152L33.8801 329.996H31.9361L35.0321 338ZM40.9912 338H46.6552V336.524H42.6952V334.664H46.5712V333.2H42.6952V331.46H46.6552V329.996H40.9912V338ZM53.5073 338H55.1513V329.996H53.4473V335.18L49.7393 329.996H47.9873V338H49.6913V332.624L53.5073 338ZM58.5775 338H60.2935V331.496H62.6215V329.996H56.2375V331.496H58.5775V338ZM66.2322 336.872C66.9882 337.628 68.0922 338.144 69.6282 338.144C71.7882 338.144 72.8322 337.04 72.8322 335.576C72.8322 333.8 71.1522 333.404 69.8322 333.104C68.9082 332.888 68.2362 332.72 68.2362 332.18C68.2362 331.7 68.6442 331.364 69.4122 331.364C70.1922 331.364 71.0562 331.64 71.7042 332.24L72.6522 330.992C71.8602 330.26 70.8042 329.876 69.5322 329.876C67.6482 329.876 66.4962 330.956 66.4962 332.288C66.4962 334.076 68.1762 334.436 69.4842 334.736C70.4082 334.952 71.1042 335.156 71.1042 335.756C71.1042 336.212 70.6482 336.656 69.7122 336.656C68.6082 336.656 67.7322 336.164 67.1682 335.576L66.2322 336.872ZM75.7455 338H77.4615V331.496H79.7895V329.996H73.4055V331.496H75.7455V338ZM85.7124 338H87.5724L84.4884 329.996H82.3524L79.2564 338H81.1284L81.6324 336.62H85.2084L85.7124 338ZM83.4204 331.472L84.7404 335.144H82.0884L83.4204 331.472ZM92.8355 338H94.7915L92.9915 334.952C93.8555 334.748 94.7435 333.992 94.7435 332.576C94.7435 331.088 93.7235 329.996 92.0555 329.996H88.3115V338H90.0155V335.132H91.2635L92.8355 338ZM93.0035 332.564C93.0035 333.236 92.4875 333.668 91.8035 333.668H90.0155V331.46H91.8035C92.4875 331.46 93.0035 331.892 93.0035 332.564ZM97.7533 338H99.4693V331.496H101.797V329.996H95.4133V331.496H97.7533V338ZM102.256 336.872C103.012 337.628 104.116 338.144 105.652 338.144C107.812 338.144 108.856 337.04 108.856 335.576C108.856 333.8 107.176 333.404 105.856 333.104C104.932 332.888 104.26 332.72 104.26 332.18C104.26 331.7 104.668 331.364 105.436 331.364C106.216 331.364 107.08 331.64 107.728 332.24L108.676 330.992C107.884 330.26 106.828 329.876 105.556 329.876C103.672 329.876 102.52 330.956 102.52 332.288C102.52 334.076 104.2 334.436 105.508 334.736C106.432 334.952 107.128 335.156 107.128 335.756C107.128 336.212 106.672 336.656 105.736 336.656C104.632 336.656 103.756 336.164 103.192 335.576L102.256 336.872Z" fill="#A8A8A8"/>
</g>
<rect x="39.5" y="363.5" width="255" height="74" rx="3.5" fill="white" stroke="#DADADA"/>
<g filter="url(#filter5_d)">
<rect x="4" y="378" width="44" height="44.8245" rx="22" fill="white"/>
<path d="M34.4787 398.621C34.4787 398.463 34.4047 398.315 34.2788 398.221L22.7894 389.6C22.6116 389.467 22.3671 389.467 22.1893 389.6L10.6999 398.221C10.5741 398.315 10.5 398.463 10.5 398.621V410.824C10.5 411.101 10.7239 411.324 11 411.324H33.9787C34.2549 411.324 34.4787 411.101 34.4787 410.824V398.621Z" fill="white" stroke="#A8A8A8" stroke-linecap="round" stroke-linejoin="round"/>
<path d="M32.4177 399.982C32.4177 400.051 32.3617 400.107 32.2927 400.107H30.7985C30.7236 400.107 30.6504 400.129 30.5884 400.171L22.5603 405.601C22.518 405.63 22.4625 405.63 22.4202 405.601L14.3917 400.171C14.3296 400.129 14.2565 400.107 14.1816 400.107H12.6863C12.6172 400.107 12.5613 400.051 12.5613 399.982V395.996C12.5613 395.927 12.6172 395.871 12.6863 395.871H32.2927C32.3617 395.871 32.4177 395.927 32.4177 395.996V399.982Z" fill="#D0D0D0" stroke="#A8A8A8" stroke-width="0.25"/>
<path d="M34.4787 398.617C34.4787 398.438 34.3833 398.273 34.2284 398.184C34.0735 398.095 33.8827 398.095 33.728 398.185L22.4894 404.698L11.2507 398.185C11.096 398.095 10.9053 398.095 10.7504 398.184C10.5955 398.273 10.5 398.438 10.5 398.617V410.825C10.5 411.101 10.7239 411.325 11 411.325H33.9787C34.2549 411.325 34.4787 411.101 34.4787 410.825V398.617Z" fill="white" stroke="#A8A8A8" stroke-linecap="round" stroke-linejoin="round"/>
<path d="M35.8937 400.849C38.7139 400.849 41.0001 398.563 41.0001 395.743C41.0001 392.923 38.7139 390.637 35.8937 390.637C33.0736 390.637 30.7874 392.923 30.7874 395.743C30.7874 398.563 33.0736 400.849 35.8937 400.849Z" fill="#DD5E59" stroke="#DD5E59" stroke-width="2" stroke-linecap="round" stroke-linejoin="round"/>
<path d="M38.0532 394.229C37.9284 394.102 37.7803 394.001 37.6172 393.932C37.4542 393.864 37.2794 393.828 37.1029 393.828C36.9264 393.828 36.7517 393.864 36.5886 393.932C36.4256 394.001 36.2774 394.102 36.1526 394.229L35.8937 394.493L35.6348 394.229C35.3827 393.973 35.0409 393.828 34.6845 393.828C34.3281 393.828 33.9862 393.973 33.7342 394.229C33.4822 394.486 33.3406 394.835 33.3406 395.198C33.3406 395.561 33.4822 395.909 33.7342 396.166L33.9931 396.43L35.8937 398.367L37.7943 396.43L38.0532 396.166C38.178 396.039 38.2771 395.888 38.3446 395.722C38.4122 395.556 38.447 395.378 38.447 395.198C38.447 395.018 38.4122 394.84 38.3446 394.674C38.2771 394.508 38.178 394.357 38.0532 394.229V394.229Z" stroke="white" stroke-width="1.5" stroke-linecap="round" stroke-linejoin="round"/>
</g>
<path d="M60.348 390.738C60.84 391.458 61.836 392.058 63.192 392.058C64.956 392.058 66.024 391.086 66.024 389.754C66.024 388.47 64.908 387.846 64.176 387.786C64.932 387.654 65.904 387.078 65.904 385.926C65.904 384.57 64.728 383.79 63.192 383.79C61.956 383.79 61.032 384.33 60.456 385.026L61.008 385.65C61.596 385.014 62.244 384.678 63.12 384.678C64.092 384.678 64.908 385.158 64.908 386.046C64.908 386.97 64.056 387.366 63.048 387.366C62.724 387.366 62.352 387.366 62.22 387.354V388.266C62.34 388.254 62.712 388.254 63.048 388.254C64.224 388.254 65.04 388.674 65.04 389.67C65.04 390.594 64.332 391.17 63.168 391.17C62.22 391.17 61.404 390.738 60.936 390.114L60.348 390.738ZM67.2917 387.918C67.2917 389.862 68.1557 392.058 70.3517 392.058C72.5357 392.058 73.4117 389.862 73.4117 387.918C73.4117 385.962 72.5357 383.79 70.3517 383.79C68.1557 383.79 67.2917 385.962 67.2917 387.918ZM72.3917 387.918C72.3917 389.514 71.8757 391.17 70.3517 391.17C68.8277 391.17 68.3117 389.514 68.3117 387.918C68.3117 386.322 68.8277 384.678 70.3517 384.678C71.8757 384.678 72.3917 386.322 72.3917 387.918ZM85.0171 391.914H85.9171V387.726C85.9171 386.562 85.3531 385.974 84.2971 385.974C83.4571 385.974 82.6771 386.526 82.3531 387.054C82.1851 386.454 81.6811 385.974 80.7931 385.974C79.9411 385.974 79.1611 386.586 78.9211 386.958V386.118H78.0211V391.914H78.9211V387.678C79.2331 387.21 79.8571 386.778 80.4451 386.778C81.2011 386.778 81.5131 387.246 81.5131 387.978V391.914H82.4131V387.666C82.7131 387.21 83.3491 386.778 83.9491 386.778C84.6931 386.778 85.0171 387.246 85.0171 387.978V391.914ZM88.1565 385.146C88.4925 385.146 88.7685 384.87 88.7685 384.534C88.7685 384.198 88.4925 383.934 88.1565 383.934C87.8325 383.934 87.5565 384.198 87.5565 384.534C87.5565 384.87 87.8325 385.146 88.1565 385.146ZM87.7125 391.914H88.6125V386.118H87.7125V391.914ZM94.3198 391.914H95.2198V387.846C95.2198 386.586 94.5838 385.974 93.3718 385.974C92.5078 385.974 91.7158 386.478 91.3078 386.958V386.118H90.4078V391.914H91.3078V387.678C91.6438 387.21 92.3158 386.778 93.0238 386.778C93.8038 386.778 94.3198 387.102 94.3198 388.122V391.914ZM100.929 391.914H101.829V386.118H100.929V390.378C100.593 390.846 99.9212 391.254 99.2132 391.254C98.4332 391.254 97.9172 390.954 97.9172 389.934V386.118H97.0172V390.21C97.0172 391.47 97.6532 392.058 98.8652 392.058C99.7292 392.058 100.485 391.602 100.929 391.098V391.914ZM105.091 392.058C105.619 392.058 105.943 391.902 106.171 391.686L105.907 391.014C105.787 391.146 105.547 391.254 105.295 391.254C104.899 391.254 104.707 390.942 104.707 390.51V386.91H105.883V386.118H104.707V384.534H103.807V386.118H102.847V386.91H103.807V390.702C103.807 391.566 104.239 392.058 105.091 392.058ZM106.818 389.01C106.818 390.822 108.054 392.058 109.77 392.058C110.718 392.058 111.498 391.746 112.074 391.17L111.642 390.582C111.186 391.05 110.514 391.314 109.854 391.314C108.606 391.314 107.838 390.402 107.766 389.31H112.458V389.082C112.458 387.342 111.426 385.974 109.674 385.974C108.018 385.974 106.818 387.33 106.818 389.01ZM109.662 386.718C110.982 386.718 111.558 387.786 111.57 388.65H107.766C107.814 387.762 108.426 386.718 109.662 386.718ZM113.412 391.146C114 391.77 114.804 392.058 115.752 392.058C117.252 392.058 118.032 391.278 118.032 390.306C118.032 389.022 116.868 388.734 115.86 388.506C115.104 388.326 114.444 388.146 114.444 387.582C114.444 387.066 114.936 386.706 115.728 386.706C116.472 386.706 117.108 387.018 117.456 387.438L117.876 386.814C117.408 386.346 116.712 385.974 115.728 385.974C114.348 385.974 113.568 386.742 113.568 387.642C113.568 388.842 114.684 389.106 115.668 389.334C116.448 389.526 117.156 389.73 117.156 390.366C117.156 390.93 116.676 391.326 115.788 391.326C114.996 391.326 114.264 390.942 113.88 390.498L113.412 391.146ZM126.212 391.914H127.112V387.93C127.112 386.526 126.092 385.974 124.868 385.974C123.92 385.974 123.176 386.286 122.552 386.934L122.972 387.558C123.488 387.006 124.052 386.754 124.748 386.754C125.588 386.754 126.212 387.198 126.212 387.978V389.022C125.744 388.482 125.084 388.23 124.292 388.23C123.308 388.23 122.264 388.842 122.264 390.138C122.264 391.398 123.308 392.058 124.292 392.058C125.072 392.058 125.732 391.782 126.212 391.254V391.914ZM126.212 390.69C125.864 391.17 125.252 391.41 124.616 391.41C123.776 391.41 123.188 390.882 123.188 390.15C123.188 389.406 123.776 388.878 124.616 388.878C125.252 388.878 125.864 389.118 126.212 389.598V390.69ZM129.168 391.914H130.068V386.91H131.244V386.118H130.068V385.674C130.068 384.942 130.392 384.534 130.98 384.534C131.184 384.534 131.352 384.582 131.496 384.666L131.724 383.994C131.496 383.85 131.184 383.79 130.848 383.79C129.84 383.79 129.168 384.474 129.168 385.674V386.118H128.208V386.91H129.168V391.914ZM133.778 392.058C134.306 392.058 134.63 391.902 134.858 391.686L134.594 391.014C134.474 391.146 134.234 391.254 133.982 391.254C133.586 391.254 133.394 390.942 133.394 390.51V386.91H134.57V386.118H133.394V384.534H132.494V386.118H131.534V386.91H132.494V390.702C132.494 391.566 132.926 392.058 133.778 392.058ZM135.505 389.01C135.505 390.822 136.741 392.058 138.457 392.058C139.405 392.058 140.185 391.746 140.761 391.17L140.329 390.582C139.873 391.05 139.201 391.314 138.541 391.314C137.293 391.314 136.525 390.402 136.453 389.31H141.145V389.082C141.145 387.342 140.113 385.974 138.361 385.974C136.705 385.974 135.505 387.33 135.505 389.01ZM138.349 386.718C139.669 386.718 140.245 387.786 140.257 388.65H136.453C136.501 387.762 137.113 386.718 138.349 386.718ZM142.603 391.914H143.503V387.81C143.767 387.342 144.523 386.886 145.075 386.886C145.219 386.886 145.327 386.898 145.435 386.922V385.998C144.643 385.998 143.971 386.442 143.503 387.054V386.118H142.603V391.914ZM149.322 389.01C149.322 390.822 150.558 392.058 152.274 392.058C153.222 392.058 154.002 391.746 154.578 391.17L154.146 390.582C153.69 391.05 153.018 391.314 152.358 391.314C151.11 391.314 150.342 390.402 150.27 389.31H154.962V389.082C154.962 387.342 153.93 385.974 152.178 385.974C150.522 385.974 149.322 387.33 149.322 389.01ZM152.166 386.718C153.486 386.718 154.062 387.786 154.074 388.65H150.27C150.318 387.762 150.93 386.718 152.166 386.718ZM157.968 391.914H158.952L161.364 386.118H160.38L158.46 390.87L156.528 386.118H155.556L157.968 391.914ZM161.966 389.01C161.966 390.822 163.202 392.058 164.918 392.058C165.866 392.058 166.646 391.746 167.222 391.17L166.79 390.582C166.334 391.05 165.662 391.314 165.002 391.314C163.754 391.314 162.986 390.402 162.914 389.31H167.606V389.082C167.606 387.342 166.574 385.974 164.822 385.974C163.166 385.974 161.966 387.33 161.966 389.01ZM164.81 386.718C166.13 386.718 166.706 387.786 166.718 388.65H162.914C162.962 387.762 163.574 386.718 164.81 386.718ZM172.976 391.914H173.876V387.846C173.876 386.586 173.24 385.974 172.028 385.974C171.164 385.974 170.372 386.478 169.964 386.958V386.118H169.064V391.914H169.964V387.678C170.3 387.21 170.972 386.778 171.68 386.778C172.46 386.778 172.976 387.102 172.976 388.122V391.914ZM177.137 392.058C177.665 392.058 177.989 391.902 178.217 391.686L177.953 391.014C177.833 391.146 177.593 391.254 177.341 391.254C176.945 391.254 176.753 390.942 176.753 390.51V386.91H177.929V386.118H176.753V384.534H175.853V386.118H174.893V386.91H175.853V390.702C175.853 391.566 176.285 392.058 177.137 392.058ZM181.959 389.01C181.959 390.822 183.195 392.058 184.911 392.058C185.859 392.058 186.639 391.746 187.215 391.17L186.783 390.582C186.327 391.05 185.655 391.314 184.995 391.314C183.747 391.314 182.979 390.402 182.907 389.31H187.599V389.082C187.599 387.342 186.567 385.974 184.815 385.974C183.159 385.974 181.959 387.33 181.959 389.01ZM184.803 386.718C186.123 386.718 186.699 387.786 186.711 388.65H182.907C182.955 387.762 183.567 386.718 184.803 386.718ZM192.968 391.914H193.868V387.846C193.868 386.586 193.232 385.974 192.02 385.974C191.156 385.974 190.364 386.478 189.956 386.958V386.118H189.056V391.914H189.956V387.678C190.292 387.21 190.964 386.778 191.672 386.778C192.452 386.778 192.968 387.102 192.968 388.122V391.914ZM199.866 391.914H200.766V383.91H199.866V386.994C199.398 386.358 198.69 385.974 197.91 385.974C196.386 385.974 195.33 387.174 195.33 389.022C195.33 390.906 196.398 392.058 197.91 392.058C198.726 392.058 199.434 391.638 199.866 391.05V391.914ZM199.866 390.342C199.542 390.846 198.846 391.254 198.126 391.254C196.962 391.254 196.266 390.306 196.266 389.022C196.266 387.738 196.962 386.778 198.126 386.778C198.846 386.778 199.542 387.21 199.866 387.714V390.342ZM202.064 391.146C202.652 391.77 203.456 392.058 204.404 392.058C205.904 392.058 206.684 391.278 206.684 390.306C206.684 389.022 205.52 388.734 204.512 388.506C203.756 388.326 203.096 388.146 203.096 387.582C203.096 387.066 203.588 386.706 204.38 386.706C205.124 386.706 205.76 387.018 206.108 387.438L206.528 386.814C206.06 386.346 205.364 385.974 204.38 385.974C203 385.974 202.22 386.742 202.22 387.642C202.22 388.842 203.336 389.106 204.32 389.334C205.1 389.526 205.808 389.73 205.808 390.366C205.808 390.93 205.328 391.326 204.44 391.326C203.648 391.326 202.916 390.942 202.532 390.498L202.064 391.146Z" fill="#1a1a1a" fill-opacity="0.6"/>
<path d="M60.994 414.914H67.392V413.472H62.632V410.882H67.294V409.44H62.632V407.018H67.392V405.576H60.994V414.914ZM77.3201 414.914H78.7901V410.028C78.7901 408.656 78.0901 407.984 76.8441 407.984C75.8361 407.984 74.9401 408.614 74.5481 409.23C74.3241 408.488 73.7081 407.984 72.7001 407.984C71.6781 407.984 70.7821 408.656 70.5021 409.076V408.152H69.0321V414.914H70.5021V410.196C70.8101 409.748 71.4121 409.286 72.0561 409.286C72.8541 409.286 73.1761 409.776 73.1761 410.504V414.914H74.6461V410.182C74.9401 409.748 75.5561 409.286 76.2141 409.286C76.9981 409.286 77.3201 409.776 77.3201 410.504V414.914ZM84.8242 414.914H86.2942V410.434C86.2942 408.614 84.9782 407.984 83.4802 407.984C82.4022 407.984 81.4222 408.334 80.6382 409.076L81.2402 410.098C81.8282 409.524 82.4862 409.244 83.2422 409.244C84.1802 409.244 84.8242 409.72 84.8242 410.504V411.512C84.3342 410.938 83.5502 410.644 82.6402 410.644C81.5342 410.644 80.2882 411.288 80.2882 412.842C80.2882 414.34 81.5342 415.082 82.6402 415.082C83.5362 415.082 84.3202 414.76 84.8242 414.186V414.914ZM84.8242 413.374C84.4882 413.836 83.8582 414.074 83.2142 414.074C82.3882 414.074 81.7722 413.598 81.7722 412.87C81.7722 412.128 82.3882 411.652 83.2142 411.652C83.8582 411.652 84.4882 411.89 84.8242 412.352V413.374ZM88.928 407.032C89.432 407.032 89.838 406.626 89.838 406.122C89.838 405.618 89.432 405.212 88.928 405.212C88.438 405.212 88.018 405.618 88.018 406.122C88.018 406.626 88.438 407.032 88.928 407.032ZM88.2 414.914H89.67V408.152H88.2V414.914ZM91.577 414.914H93.047V405.576H91.577V414.914ZM100.58 415.082C101.266 415.082 101.7 414.9 101.966 414.648L101.616 413.542C101.504 413.668 101.238 413.78 100.958 413.78C100.538 413.78 100.314 413.444 100.314 412.982V409.44H101.686V408.152H100.314V406.304H98.8437V408.152H97.7237V409.44H98.8437V413.346C98.8437 414.466 99.4457 415.082 100.58 415.082ZM107.598 414.914H109.068V410.126C109.068 408.74 108.34 407.984 106.884 407.984C105.82 407.984 104.938 408.544 104.49 409.076V405.576H103.02V414.914H104.49V410.196C104.84 409.734 105.484 409.286 106.226 409.286C107.052 409.286 107.598 409.608 107.598 410.658V414.914ZM115.107 414.914H116.577V410.434C116.577 408.614 115.261 407.984 113.763 407.984C112.685 407.984 111.705 408.334 110.921 409.076L111.523 410.098C112.111 409.524 112.769 409.244 113.525 409.244C114.463 409.244 115.107 409.72 115.107 410.504V411.512C114.617 410.938 113.833 410.644 112.923 410.644C111.817 410.644 110.571 411.288 110.571 412.842C110.571 414.34 111.817 415.082 112.923 415.082C113.819 415.082 114.603 414.76 115.107 414.186V414.914ZM115.107 413.374C114.771 413.836 114.141 414.074 113.497 414.074C112.671 414.074 112.055 413.598 112.055 412.87C112.055 412.128 112.671 411.652 113.497 411.652C114.141 411.652 114.771 411.89 115.107 412.352V413.374ZM123.047 414.914H124.517V410.154C124.517 408.768 123.789 407.984 122.333 407.984C121.269 407.984 120.401 408.544 119.953 409.076V408.152H118.483V414.914H119.953V410.196C120.289 409.734 120.933 409.286 121.689 409.286C122.515 409.286 123.047 409.636 123.047 410.686V414.914ZM130.907 414.914H132.755L129.885 411.218L132.699 408.152H130.879L127.897 411.414V405.576H126.427V414.914H127.897V413.094L128.835 412.128L130.907 414.914ZM137.321 416.244L137.097 417.56C137.307 417.616 137.713 417.658 137.923 417.658C138.973 417.644 139.785 417.28 140.247 416.132L143.509 408.152H141.927L139.953 413.22L137.979 408.152H136.411L139.183 414.998L138.847 415.768C138.651 416.216 138.343 416.356 137.881 416.356C137.713 416.356 137.475 416.314 137.321 416.244ZM147.484 415.082C149.654 415.082 150.97 413.472 150.97 411.526C150.97 409.594 149.654 407.984 147.484 407.984C145.342 407.984 144.012 409.594 144.012 411.526C144.012 413.472 145.342 415.082 147.484 415.082ZM147.484 413.78C146.238 413.78 145.538 412.73 145.538 411.526C145.538 410.336 146.238 409.286 147.484 409.286C148.744 409.286 149.444 410.336 149.444 411.526C149.444 412.73 148.744 413.78 147.484 413.78ZM157.022 414.914H158.492V408.152H157.022V412.898C156.672 413.36 156.028 413.78 155.286 413.78C154.46 413.78 153.928 413.458 153.928 412.408V408.152H152.458V412.94C152.458 414.326 153.172 415.082 154.628 415.082C155.692 415.082 156.532 414.564 157.022 414.018V414.914Z" fill="#1a1a1a"/>
<rect x="196" y="2" width="38" height="7" fill="#1a1a1a"/>
<rect x="294" y="43" width="6" height="54" fill="#1a1a1a"/>
<g filter="url(#filter6_d)">
<path fill-rule="evenodd" clip-rule="evenodd" d="M300 97L197 2H261.138L300 41V97Z" fill="#8989FC"/>
</g>
<path d="M251.57 18.0845L255.447 21.9623L256.321 21.0883L253.436 18.2033L255.006 16.6336L257.832 19.4592L258.706 18.5852L255.88 15.7596L257.348 14.2916L260.233 17.1766L261.107 16.3026L257.229 12.4249L251.57 18.0845ZM259.228 25.7424L260.229 26.7436L260.823 23.1289L264.234 22.5519L263.233 21.5506L260.874 21.9749L261.289 19.6075L260.288 18.6062L259.711 22.0173L256.105 22.6198L257.098 23.6125L259.677 23.1713L259.228 25.7424ZM263.55 30.065L264.441 30.9559L267.156 28.2407C268.259 27.1376 267.844 25.9581 266.936 25.0502C266.282 24.3968 265.476 24.015 264.551 23.9895L264.297 24.9738C265.001 24.9823 265.57 25.2114 266.028 25.6696C266.596 26.2381 266.698 26.9169 266.223 27.3921L265.612 28.0031C265.663 27.3582 265.366 26.7048 264.814 26.1533C264.144 25.4829 262.999 25.1181 262.057 26.0599C261.149 26.9679 261.454 28.1728 262.125 28.8431C262.668 29.3862 263.338 29.6662 263.991 29.6238L263.55 30.065ZM264.484 29.1316C264 29.208 263.474 28.9704 263.083 28.5801C262.583 28.0794 262.498 27.4176 262.939 26.9763C263.389 26.5266 264.051 26.6115 264.551 27.1121C264.942 27.5024 265.179 28.0285 265.103 28.5122L264.484 29.1316ZM270.817 37.3323L271.708 38.2233L274.67 35.2619C275.501 34.4304 275.484 33.5988 274.729 32.8436C274.118 32.2327 273.193 32.0715 272.582 32.2072C272.896 31.6217 272.829 30.9429 272.218 30.332C271.598 29.7126 270.648 29.5768 270.224 29.6616L270.784 29.1016L269.893 28.2107L265.794 32.3091L266.685 33.2L269.545 30.3405C270.003 30.2556 270.648 30.3405 271.038 30.7308C271.522 31.2145 271.42 31.7066 270.979 32.1478L268.306 34.8207L269.197 35.7117L272.065 32.8436C272.506 32.7588 273.159 32.8521 273.558 33.2509C274.033 33.7261 273.932 34.2182 273.49 34.6595L270.817 37.3323ZM272.39 42.0276L274.52 39.8978C274.41 40.67 274.647 41.3657 275.165 41.8833C276.226 42.944 277.787 42.8931 279.136 41.5439C280.485 40.1948 280.528 38.642 279.467 37.5813C278.932 37.0467 278.203 36.8261 277.49 36.9279L278.05 36.3679L277.159 35.477L271.499 41.1366L272.39 42.0276ZM278.211 40.619C277.413 41.4167 276.395 41.5355 275.691 40.8312C275.275 40.4154 275.088 39.7196 275.19 39.2275L276.811 37.6068C277.312 37.4965 277.999 37.6916 278.415 38.1074C279.119 38.8117 279 39.8299 278.211 40.619ZM278.181 44.6955L279.072 45.5864L284.731 39.9267L283.84 39.0358L278.181 44.6955ZM282.224 44.6322C280.926 45.9305 280.985 47.7039 282.216 48.9342C282.869 49.5876 283.675 49.9864 284.473 50.0034L284.651 49.0106C284.074 49.0106 283.438 48.6967 283.039 48.2978C282.267 47.5257 282.309 46.5499 282.861 45.8626L286.026 49.0276L286.238 48.8154C287.528 47.5257 287.68 45.7947 286.45 44.5643C285.237 43.3509 283.412 43.4443 282.224 44.6322ZM285.72 45.2941C286.526 46.1002 286.255 47.0335 285.788 47.5342L283.48 45.2262C284.023 44.768 284.956 44.5304 285.72 45.2941ZM241.641 29.3689L242.702 30.4296L249.973 26.3821L248.862 25.2705L243.406 28.5374L246.596 23.005L245.807 22.2158L240.275 25.4063L243.533 19.9418L242.422 18.8302L238.383 26.1106L239.443 27.1712L244.713 24.0911L241.641 29.3689ZM246.559 34.4908C247.874 35.806 249.648 35.6278 250.827 34.4483C251.998 33.2774 252.176 31.5039 250.861 30.1887C249.563 28.8905 247.781 29.0602 246.61 30.2311C245.431 31.4106 245.261 33.1925 246.559 34.4908ZM247.348 33.7016C246.593 32.9464 246.805 31.8858 247.535 31.156C248.256 30.4348 249.317 30.2227 250.072 30.9779C250.836 31.7415 250.624 32.8022 249.902 33.5234C249.173 34.2532 248.112 34.4653 247.348 33.7016ZM249.873 37.6013L250.764 38.4922L253.556 35.7006C254.023 35.5902 254.778 35.8363 255.151 36.2097C255.261 36.32 255.346 36.4218 255.406 36.5151L256.288 35.6327C255.754 35.0981 254.956 34.9114 254.26 34.9963L254.863 34.3938L253.972 33.5029L249.873 37.6013ZM255.728 43.4562L256.848 44.5763L257.349 40.5967L260.913 40.4439L259.81 39.3408L256.025 39.5106L259.564 35.9722L258.673 35.0812L253.013 40.7409L253.904 41.6319L255.007 40.5288L256.161 40.5118L255.728 43.4562ZM257.889 45.6174L258.78 46.5084L262.098 43.1906L262.93 44.0222L263.71 43.2415L262.879 42.41L263.108 42.1809C263.566 41.7227 264.016 41.7142 264.364 42.0621C264.516 42.2148 264.601 42.3676 264.627 42.5118L265.484 42.0451C265.407 41.7651 265.212 41.4511 264.932 41.1711C264.177 40.4159 263.133 40.3735 262.217 41.2899L261.988 41.519L261.309 40.8402L260.528 41.6208L261.207 42.2997L257.889 45.6174ZM260.291 48.0187L261.182 48.9097L266.841 43.25L265.95 42.3591L260.291 48.0187ZM264.28 52.2118C265.595 53.5271 267.369 53.3489 268.548 52.1694C269.719 50.9985 269.897 49.225 268.582 47.9098C267.284 46.6116 265.502 46.7813 264.331 47.9522C263.152 49.1317 262.982 50.9136 264.28 52.2118ZM265.069 51.4227C264.314 50.6675 264.526 49.6069 265.256 48.8771C265.977 48.1559 267.038 47.9438 267.793 48.6989C268.557 49.4626 268.345 50.5233 267.623 51.2445C266.894 51.9743 265.833 52.1864 265.069 51.4227ZM271.167 58.8946L272.1 59.828L277.471 57.0024L276.546 56.0775L272.702 58.1904L274.705 54.2362L273.924 53.4556L269.97 55.4581L272.083 51.6143L271.158 50.6894L268.333 56.0606L269.266 56.9939L273.22 54.9405L271.167 58.8946ZM274.368 61.0265C274.376 61.8665 274.792 62.7235 275.488 63.4193C276.591 64.5224 277.745 64.5733 278.466 63.8521C279.433 62.8848 278.763 61.8071 278.203 60.9416C277.83 60.3477 277.533 59.8301 277.847 59.5161C278.135 59.2276 278.602 59.3549 279.068 59.8216C279.578 60.3307 279.824 61.001 279.79 61.5271L280.791 61.2726C280.749 60.5683 280.469 59.7961 279.773 59.1003C278.738 58.0651 277.584 58.0651 276.913 58.7355C275.997 59.6519 276.65 60.6786 277.202 61.5356C277.592 62.1465 277.897 62.7066 277.541 63.063C277.236 63.3684 276.769 63.2921 276.234 62.7575C275.7 62.2229 275.411 61.3744 275.42 60.7889L274.368 61.0265Z" fill="white"/>
<defs>
<filter id="filter0_d" x="1" y="6" width="298" height="41" filterUnits="userSpaceOnUse" color-interpolation-filters="sRGB">
<feFlood flood-opacity="0" result="BackgroundImageFix"/>
<feColorMatrix in="SourceAlpha" type="matrix" values="0 0 0 0 0 0 0 0 0 0 0 0 0 0 0 0 0 0 127 0"/>
<feOffset dy="1"/>
<feGaussianBlur stdDeviation="2"/>
<feColorMatrix type="matrix" values="0 0 0 0 0 0 0 0 0 0 0 0 0 0 0 0 0 0 0.15 0"/>
<feBlend mode="normal" in2="BackgroundImageFix" result="effect1_dropShadow"/>
<feBlend mode="normal" in="SourceGraphic" in2="effect1_dropShadow" result="shape"/>
</filter>
<filter id="filter1_d" x="0" y="66" width="54" height="51" filterUnits="userSpaceOnUse" color-interpolation-filters="sRGB">
<feFlood flood-opacity="0" result="BackgroundImageFix"/>
<feColorMatrix in="SourceAlpha" type="matrix" values="0 0 0 0 0 0 0 0 0 0 0 0 0 0 0 0 0 0 127 0"/>
<feOffset dy="1"/>
<feGaussianBlur stdDeviation="2"/>
<feColorMatrix type="matrix" values="0 0 0 0 0 0 0 0 0 0 0 0 0 0 0 0 0 0 0.15 0"/>
<feBlend mode="normal" in2="BackgroundImageFix" result="effect1_dropShadow"/>
<feBlend mode="normal" in="SourceGraphic" in2="effect1_dropShadow" result="shape"/>
</filter>
<filter id="filter2_d" x="0.225098" y="152.566" width="52" height="52.8244" filterUnits="userSpaceOnUse" color-interpolation-filters="sRGB">
<feFlood flood-opacity="0" result="BackgroundImageFix"/>
<feColorMatrix in="SourceAlpha" type="matrix" values="0 0 0 0 0 0 0 0 0 0 0 0 0 0 0 0 0 0 127 0"/>
<feOffset dy="1"/>
<feGaussianBlur stdDeviation="2"/>
<feColorMatrix type="matrix" values="0 0 0 0 0 0 0 0 0 0 0 0 0 0 0 0 0 0 0.15 0"/>
<feBlend mode="normal" in2="BackgroundImageFix" result="effect1_dropShadow"/>
<feBlend mode="normal" in="SourceGraphic" in2="effect1_dropShadow" result="shape"/>
</filter>
<filter id="filter3_d" x="0.225098" y="239.566" width="52" height="52.8245" filterUnits="userSpaceOnUse" color-interpolation-filters="sRGB">
<feFlood flood-opacity="0" result="BackgroundImageFix"/>
<feColorMatrix in="SourceAlpha" type="matrix" values="0 0 0 0 0 0 0 0 0 0 0 0 0 0 0 0 0 0 127 0"/>
<feOffset dy="1"/>
<feGaussianBlur stdDeviation="2"/>
<feColorMatrix type="matrix" values="0 0 0 0 0 0 0 0 0 0 0 0 0 0 0 0 0 0 0.15 0"/>
<feBlend mode="normal" in2="BackgroundImageFix" result="effect1_dropShadow"/>
<feBlend mode="normal" in="SourceGraphic" in2="effect1_dropShadow" result="shape"/>
</filter>
<filter id="filter4_d" x="1" y="315" width="298" height="41" filterUnits="userSpaceOnUse" color-interpolation-filters="sRGB">
<feFlood flood-opacity="0" result="BackgroundImageFix"/>
<feColorMatrix in="SourceAlpha" type="matrix" values="0 0 0 0 0 0 0 0 0 0 0 0 0 0 0 0 0 0 127 0"/>
<feOffset dy="1"/>
<feGaussianBlur stdDeviation="2"/>
<feColorMatrix type="matrix" values="0 0 0 0 0 0 0 0 0 0 0 0 0 0 0 0 0 0 0.15 0"/>
<feBlend mode="normal" in2="BackgroundImageFix" result="effect1_dropShadow"/>
<feBlend mode="normal" in="SourceGraphic" in2="effect1_dropShadow" result="shape"/>
</filter>
<filter id="filter5_d" x="0" y="375" width="52" height="52.8245" filterUnits="userSpaceOnUse" color-interpolation-filters="sRGB">
<feFlood flood-opacity="0" result="BackgroundImageFix"/>
<feColorMatrix in="SourceAlpha" type="matrix" values="0 0 0 0 0 0 0 0 0 0 0 0 0 0 0 0 0 0 127 0"/>
<feOffset dy="1"/>
<feGaussianBlur stdDeviation="2"/>
<feColorMatrix type="matrix" values="0 0 0 0 0 0 0 0 0 0 0 0 0 0 0 0 0 0 0.15 0"/>
<feBlend mode="normal" in2="BackgroundImageFix" result="effect1_dropShadow"/>
<feBlend mode="normal" in="SourceGraphic" in2="effect1_dropShadow" result="shape"/>
</filter>
<filter id="filter6_d" x="193" y="0" width="111" height="103" filterUnits="userSpaceOnUse" color-interpolation-filters="sRGB">
<feFlood flood-opacity="0" result="BackgroundImageFix"/>
<feColorMatrix in="SourceAlpha" type="matrix" values="0 0 0 0 0 0 0 0 0 0 0 0 0 0 0 0 0 0 127 0"/>
<feOffset dy="2"/>
<feGaussianBlur stdDeviation="2"/>
<feColorMatrix type="matrix" values="0 0 0 0 0 0 0 0 0 0 0 0 0 0 0 0 0 0 0.2 0"/>
<feBlend mode="normal" in2="BackgroundImageFix" result="effect1_dropShadow"/>
<feBlend mode="normal" in="SourceGraphic" in2="effect1_dropShadow" result="shape"/>
</filter>
</defs>
</svg>
