<svg width="137" height="138" viewBox="0 0 137 138" fill="none" xmlns="http://www.w3.org/2000/svg">
<path d="M68.3869 0.018906C68.3869 0.018906 108.695 -1.79629 130.065 38.8565H64.9572C64.9572 38.8565 52.6706 38.4594 42.1741 53.4158C39.159 59.6934 35.9177 66.16 39.5548 78.9042C34.316 69.9984 11.7402 30.5557 11.7402 30.5557C11.7402 30.5557 27.6638 1.62611 68.3869 0.018906Z" fill="#EF3F36"/>
<path d="M127.973 103.22C127.973 103.22 109.374 139.165 63.6193 137.387C69.2726 127.574 96.1827 80.8139 96.1827 80.8139C96.1827 80.8139 102.684 70.3387 95.0143 53.7373C91.1135 47.9702 87.1373 41.9385 74.323 38.7241C84.631 38.6296 129.952 38.7241 129.952 38.7241C129.952 38.7241 146.931 67.0298 127.973 103.22Z" fill="#FCD900"/>
<path d="M9.08309 103.504C9.08309 103.504 -12.6447 69.3744 11.7779 30.499C17.4124 40.3124 44.3224 87.0725 44.3224 87.0725C44.3224 87.0725 50.1266 97.9637 68.2739 99.5898C75.1898 99.0793 82.3884 98.6444 91.5846 89.1335C86.5154 98.1338 63.77 137.463 63.77 137.463C63.77 137.463 30.8297 138.068 9.08309 103.504Z" fill="#61BC5B"/>
<path d="M63.6004 137.728L72.7589 99.3818C72.7589 99.3818 82.8219 98.5877 91.2642 89.3037C86.0254 98.5498 63.6004 137.728 63.6004 137.728Z" fill="#5AB055"/>
<path d="M37.708 69.2988C37.708 52.3948 51.3703 38.6863 68.2173 38.6863C85.0644 38.6863 98.7267 52.3948 98.7267 69.2988C98.7267 86.2027 85.0644 99.9112 68.2173 99.9112C51.3703 99.8923 37.708 86.2027 37.708 69.2988Z" fill="white"/>
<path d="M42.8148 69.2988C42.8148 55.231 54.1781 43.8104 68.2173 43.8104C82.2377 43.8104 93.6198 55.2121 93.6198 69.2988C93.6198 83.3665 82.2565 94.7871 68.2173 94.7871C54.197 94.7871 42.8148 83.3665 42.8148 69.2988Z" fill="url(#paint0_linear)"/>
<path d="M129.933 38.743L92.2253 49.8422C92.2253 49.8422 86.5343 41.4658 74.3041 38.743C84.9136 38.6863 129.933 38.743 129.933 38.743Z" fill="#EACA05"/>
<path d="M38.8198 77.505C33.5245 68.2966 11.7402 30.5557 11.7402 30.5557L39.6678 58.2753C39.6678 58.2753 36.8034 64.1935 37.8776 72.6644L38.8198 77.505Z" fill="#DF3A32"/>
<defs>
<linearGradient id="paint0_linear" x1="68.2161" y1="44.1702" x2="68.2161" y2="93.2526" gradientUnits="userSpaceOnUse">
<stop stop-color="#86BBE5"/>
<stop offset="1" stop-color="#1072BA"/>
</linearGradient>
</defs>
</svg>
