<svg width="434" height="204" fill="none" xmlns="http://www.w3.org/2000/svg"><g filter="url(#a)"><rect x="18" y="8" width="214" height="167" rx="7.829" fill="#c59948"/></g><path d="m95.933 35.68-1.26-1.694a5.56 5.56 0 0 1-1.093.112 5.169 5.169 0 0 1-2.547-.644 4.895 4.895 0 0 1-1.835-1.792c-.447-.775-.671-1.643-.671-2.604 0-.961.224-1.825.671-2.59a4.895 4.895 0 0 1 1.835-1.792 5.169 5.169 0 0 1 2.547-.644 5.09 5.09 0 0 1 2.535.644 4.666 4.666 0 0 1 1.82 1.792c.447.765.671 1.629.671 2.59 0 .84-.172 1.61-.517 2.31a4.7 4.7 0 0 1-1.415 1.722l2.156 2.59h-2.897Zm-4.957-6.622c0 .868.234 1.563.7 2.086.477.513 1.111.77 1.904.77.785 0 1.41-.261 1.877-.784.476-.523.714-1.213.714-2.072 0-.868-.239-1.559-.715-2.072-.466-.523-1.091-.784-1.876-.784-.793 0-1.427.257-1.903.77-.467.513-.7 1.209-.7 2.086Zm16.704-2.87V34h-2.394v-1.064a2.676 2.676 0 0 1-.994.84 3.026 3.026 0 0 1-1.372.308c-.598 0-1.125-.13-1.582-.392a2.731 2.731 0 0 1-1.064-1.162c-.252-.504-.378-1.097-.378-1.778v-4.564h2.38v4.242c0 .523.135.929.406 1.218.27.29.634.434 1.092.434.466 0 .835-.145 1.106-.434.27-.29.406-.695.406-1.218v-4.242h2.394Zm9.083 3.78c0 .224-.014.457-.042.7h-5.418c.038.485.192.859.462 1.12.28.252.621.378 1.022.378.598 0 1.013-.252 1.246-.756h2.548c-.13.513-.368.975-.714 1.386a3.47 3.47 0 0 1-1.274.966 4.113 4.113 0 0 1-1.722.35c-.765 0-1.446-.163-2.044-.49a3.487 3.487 0 0 1-1.4-1.4c-.336-.607-.504-1.316-.504-2.128s.164-1.521.49-2.128a3.487 3.487 0 0 1 1.4-1.4c.598-.327 1.284-.49 2.058-.49.756 0 1.428.159 2.016.476.588.317 1.046.77 1.372 1.358.336.588.504 1.274.504 2.058Zm-2.45-.63c0-.41-.14-.737-.42-.98-.28-.243-.63-.364-1.05-.364-.401 0-.742.117-1.022.35-.27.233-.438.565-.504.994h2.996Zm6.891 4.774c-.681 0-1.288-.117-1.82-.35-.532-.233-.952-.55-1.26-.952a2.564 2.564 0 0 1-.518-1.372h2.366a.91.91 0 0 0 .378.658c.224.168.5.252.826.252.299 0 .528-.056.686-.168a.55.55 0 0 0 .252-.462c0-.224-.116-.387-.35-.49-.233-.112-.611-.233-1.134-.364-.56-.13-1.026-.266-1.4-.406a2.518 2.518 0 0 1-.966-.686c-.27-.317-.406-.742-.406-1.274 0-.448.122-.854.364-1.218.252-.373.616-.667 1.092-.882.486-.215 1.06-.322 1.722-.322.98 0 1.75.243 2.31.728.57.485.896 1.13.98 1.932h-2.212a.94.94 0 0 0-.364-.644c-.196-.159-.457-.238-.784-.238-.28 0-.494.056-.644.168a.497.497 0 0 0-.224.434c0 .224.117.392.35.504.243.112.616.224 1.12.336.579.15 1.05.299 1.414.448.364.14.682.373.952.7.28.317.425.747.434 1.288 0 .457-.13.868-.392 1.232-.252.355-.62.635-1.106.84-.476.205-1.031.308-1.666.308Zm8.983-2.142V34h-1.218c-.868 0-1.545-.21-2.03-.63-.485-.43-.728-1.125-.728-2.086v-3.108h-.952v-1.988h.952v-1.904h2.394v1.904h1.568v1.988h-1.568v3.136c0 .233.056.401.168.504.112.103.299.154.56.154h.854Zm2.537-6.594c-.42 0-.765-.121-1.036-.364a1.236 1.236 0 0 1-.392-.924c0-.373.131-.681.392-.924.271-.252.616-.378 1.036-.378.411 0 .747.126 1.008.378.271.243.406.55.406.924 0 .364-.135.672-.406.924-.261.243-.597.364-1.008.364Zm1.19.812V34h-2.394v-7.812h2.394Zm5.291 7.924c-.765 0-1.456-.163-2.072-.49a3.654 3.654 0 0 1-1.442-1.4c-.345-.607-.518-1.316-.518-2.128 0-.803.178-1.507.532-2.114a3.6 3.6 0 0 1 1.456-1.414c.616-.327 1.307-.49 2.072-.49.766 0 1.456.163 2.072.49a3.593 3.593 0 0 1 1.456 1.414c.355.607.532 1.311.532 2.114 0 .803-.182 1.512-.546 2.128a3.592 3.592 0 0 1-1.47 1.4c-.616.327-1.306.49-2.072.49Zm0-2.072c.458 0 .845-.168 1.162-.504.327-.336.49-.817.49-1.442s-.158-1.106-.476-1.442a1.493 1.493 0 0 0-1.148-.504 1.51 1.51 0 0 0-1.162.504c-.308.327-.462.807-.462 1.442 0 .625.15 1.106.448 1.442.308.336.691.504 1.148.504Zm10.118-5.936c.915 0 1.643.299 2.184.896.551.588.826 1.4.826 2.436V34h-2.38v-4.242c0-.523-.135-.929-.406-1.218-.27-.29-.634-.434-1.092-.434-.457 0-.821.145-1.092.434-.27.29-.406.695-.406 1.218V34h-2.394v-7.812h2.394v1.036c.243-.345.57-.616.98-.812a3.059 3.059 0 0 1 1.386-.308Zm7.852 8.008c-.681 0-1.288-.117-1.82-.35-.532-.233-.952-.55-1.26-.952a2.556 2.556 0 0 1-.518-1.372h2.366a.91.91 0 0 0 .378.658c.224.168.499.252.826.252.299 0 .527-.056.686-.168a.55.55 0 0 0 .252-.462c0-.224-.117-.387-.35-.49-.233-.112-.611-.233-1.134-.364-.56-.13-1.027-.266-1.4-.406a2.518 2.518 0 0 1-.966-.686c-.271-.317-.406-.742-.406-1.274 0-.448.121-.854.364-1.218.252-.373.616-.667 1.092-.882.485-.215 1.059-.322 1.722-.322.98 0 1.75.243 2.31.728.569.485.896 1.13.98 1.932h-2.212a.943.943 0 0 0-.364-.644c-.196-.159-.457-.238-.784-.238-.28 0-.495.056-.644.168a.497.497 0 0 0-.224.434c0 .224.117.392.35.504.243.112.616.224 1.12.336.579.15 1.05.299 1.414.448.364.14.681.373.952.7.28.317.425.747.434 1.288 0 .457-.131.868-.392 1.232-.252.355-.621.635-1.106.84-.476.205-1.031.308-1.666.308Z" fill="#fff"/><path d="M227 98h57M227 122h12.5c8.837 0 16 7.163 16 16v8c0 8.837 7.163 16 16 16H284M227 75h12.5c8.837 0 16-7.163 16-16v-6c0-8.837 7.163-16 16-16H284" stroke="#c59948" stroke-width="1.5"/><rect x="38" y="53" width="173" height="98" rx="2.967" fill="#fff"/><rect x="38.371" y="53.371" width="172.258" height="97.258" rx="2.596" stroke="#6F7175" stroke-opacity=".2" stroke-width=".742"/><path d="M51.842 79.152v-2.198h3.71v-1.82h-3.71v-2.086h4.06V71.2H49.91V81h6.062v-1.848h-4.13Zm13.15-5.348c-.952 0-1.652.378-2.086 1.008-.392-.644-1.036-1.008-1.904-1.008-.896 0-1.554.35-1.946.938V74H57.25v7h1.806v-3.934c0-1.05.546-1.582 1.316-1.582.756 0 1.176.504 1.176 1.33V81h1.806v-3.934c0-1.05.504-1.582 1.302-1.582.756 0 1.176.504 1.176 1.33V81h1.806v-4.312c0-1.75-1.05-2.884-2.646-2.884Zm9.5.196v.826c-.504-.63-1.26-1.022-2.282-1.022-1.862 0-3.402 1.61-3.402 3.696 0 2.086 1.54 3.696 3.402 3.696 1.022 0 1.778-.392 2.282-1.022V81h1.806v-7h-1.806Zm-1.946 5.474c-1.106 0-1.932-.798-1.932-1.974s.826-1.974 1.932-1.974c1.12 0 1.946.798 1.946 1.974s-.826 1.974-1.946 1.974Zm6.285-6.314a1.12 1.12 0 0 0 1.12-1.106c0-.602-.504-1.12-1.12-1.12-.602 0-1.106.518-1.106 1.12 0 .602.504 1.106 1.106 1.106ZM77.935 81h1.806v-7h-1.806v7Zm3.46 0H83.2V70.78h-1.806V81Z" fill="#000"/><rect opacity=".75" x="126" y="73.616" width="73" height="5" rx="2.5" fill="#c59948"/><path d="m191.056 98.475.034.04 2.617 3.011a.496.496 0 0 0 .739 0l2.614-3.005.044-.05a.295.295 0 0 0 .052-.167.312.312 0 0 0-.319-.304h-5.518a.312.312 0 0 0-.319.304c0 .064.021.123.056.171Z" fill="#c59948"/><rect opacity=".75" x="126" y="97" width="56" height="5" rx="2.5" fill="#c59948"/><path d="M55.286 105h2.086l-2.17-3.696c1.12-.518 1.89-1.624 1.89-2.856A3.253 3.253 0 0 0 53.83 95.2h-3.92v9.8h1.932v-3.402h1.47L55.286 105Zm-3.444-7.994h1.988c.728 0 1.33.63 1.33 1.442 0 .812-.602 1.456-1.33 1.456h-1.988v-2.898Zm7.754 5.236h5.278c.042-.238.07-.476.07-.742 0-2.058-1.47-3.696-3.542-3.696-2.198 0-3.696 1.61-3.696 3.696 0 2.086 1.484 3.696 3.836 3.696 1.344 0 2.394-.546 3.052-1.498l-1.456-.84c-.308.406-.868.7-1.568.7-.952 0-1.722-.392-1.974-1.316Zm-.028-1.4c.21-.896.868-1.414 1.834-1.414.756 0 1.512.406 1.736 1.414h-3.57ZM71.512 98v.868c-.49-.658-1.246-1.064-2.24-1.064-1.988 0-3.486 1.624-3.486 3.584 0 1.974 1.498 3.584 3.486 3.584.994 0 1.75-.406 2.24-1.064v.756c0 1.106-.7 1.722-1.834 1.722-1.078 0-1.54-.434-1.834-.98l-1.54.882c.616 1.134 1.82 1.708 3.318 1.708 1.848 0 3.654-1.036 3.654-3.332V98h-1.764Zm-1.96 5.306c-1.134 0-1.96-.798-1.96-1.918 0-1.106.826-1.904 1.96-1.904s1.96.798 1.96 1.904c0 1.12-.826 1.918-1.96 1.918Zm6.258-6.146a1.12 1.12 0 0 0 1.12-1.106c0-.602-.504-1.12-1.12-1.12-.602 0-1.106.518-1.106 1.12 0 .602.504 1.106 1.106 1.106Zm-.896 7.84h1.806v-7h-1.806v7Zm6.79.196c2.059 0 3.71-1.61 3.71-3.696 0-2.086-1.651-3.696-3.71-3.696-2.057 0-3.695 1.61-3.695 3.696 0 2.086 1.638 3.696 3.696 3.696Zm0-1.764c-1.063 0-1.89-.798-1.89-1.932s.827-1.932 1.89-1.932c1.079 0 1.905.798 1.905 1.932s-.826 1.932-1.904 1.932Zm8.873-5.628c-.938 0-1.666.35-2.086.98V98h-1.806v7h1.806v-3.78c0-1.218.658-1.736 1.54-1.736.812 0 1.386.49 1.386 1.442V105h1.806v-4.298c0-1.862-1.162-2.898-2.646-2.898Z" fill="#000"/><path d="m191.056 122.475.034.041 2.617 3.01a.496.496 0 0 0 .739 0l2.614-3.005.044-.05a.293.293 0 0 0 .052-.167.312.312 0 0 0-.319-.304h-5.518a.312.312 0 0 0-.319.304c0 .063.021.123.056.171Z" fill="#c59948"/><rect opacity=".75" x="126" y="121" width="56" height="5" rx="2.5" fill="#c59948"/><path d="M55.286 129h2.086l-2.17-3.696c1.12-.518 1.89-1.624 1.89-2.856a3.253 3.253 0 0 0-3.262-3.248h-3.92v9.8h1.932v-3.402h1.47L55.286 129Zm-3.444-7.994h1.988c.728 0 1.33.63 1.33 1.442 0 .812-.602 1.456-1.33 1.456h-1.988v-2.898Zm7.754 5.236h5.278c.042-.238.07-.476.07-.742 0-2.058-1.47-3.696-3.542-3.696-2.198 0-3.696 1.61-3.696 3.696 0 2.086 1.484 3.696 3.836 3.696 1.344 0 2.394-.546 3.052-1.498l-1.456-.84c-.308.406-.868.7-1.568.7-.952 0-1.722-.392-1.974-1.316Zm-.028-1.4c.21-.896.868-1.414 1.834-1.414.756 0 1.512.406 1.736 1.414h-3.57ZM71.47 122v.826c-.504-.63-1.26-1.022-2.282-1.022-1.862 0-3.402 1.61-3.402 3.696 0 2.086 1.54 3.696 3.402 3.696 1.022 0 1.778-.392 2.282-1.022V129h1.806v-7H71.47Zm-1.946 5.474c-1.106 0-1.932-.798-1.932-1.974s.826-1.974 1.932-1.974c1.12 0 1.946.798 1.946 1.974s-.826 1.974-1.946 1.974Zm7.001-3.486c0-.378.364-.574.812-.574.518 0 .91.266 1.12.714l1.54-.84c-.546-.966-1.526-1.484-2.66-1.484-1.442 0-2.66.798-2.66 2.226 0 2.464 3.612 1.904 3.612 2.926 0 .406-.392.602-.966.602-.7 0-1.176-.336-1.372-.91l-1.568.882c.504 1.078 1.54 1.666 2.94 1.666 1.498 0 2.814-.728 2.814-2.24 0-2.576-3.612-1.932-3.612-2.968Zm8.01 5.208c2.058 0 3.71-1.61 3.71-3.696 0-2.086-1.652-3.696-3.71-3.696s-3.696 1.61-3.696 3.696c0 2.086 1.638 3.696 3.696 3.696Zm0-1.764c-1.064 0-1.89-.798-1.89-1.932s.826-1.932 1.89-1.932c1.078 0 1.904.798 1.904 1.932s-.826 1.932-1.904 1.932Zm8.873-5.628c-.939 0-1.666.35-2.087.98V122h-1.805v7h1.805v-3.78c0-1.218.659-1.736 1.54-1.736.813 0 1.386.49 1.386 1.442V129h1.806v-4.298c0-1.862-1.162-2.898-2.645-2.898Z" fill="#000"/><path d="M276.75 135a9.25 9.25 0 0 1 9.25-9.25h138a9.25 9.25 0 0 1 9.25 9.25v30a9.25 9.25 0 0 1-9.25 9.25H276.75V135Z" fill="#fff" stroke="#c59948" stroke-width="1.5"/><path d="M304.35 157.45c.411.002 4.1-2.726 4.1-3.074 0-.348-4.128-2.948-4.485-2.948-.357 0-1.555 1.437-1.878 1.596-.324.16-2.342.103-4.591-2.146s-3.018-4.838-3.018-5.244c0-.407 1.877-1.663 1.928-1.957.052-.295-2.472-4.677-2.882-4.677-.41 0-3.524 3.785-3.524 4.1 0 .315.285 4.372 5.42 9.508 5.136 5.135 8.519 4.841 8.93 4.842Z" fill="#c59948"/><path d="m320.468 141.427 1.402-1.726v-1.689h-5.452v2.049h2.816l-1.342 1.641.827 1.222h.455c.623 0 .947.312.947.779s-.324.791-.947.791c-.647 0-.982-.324-1.15-.875l-1.869 1.067c.503 1.294 1.677 1.893 3.019 1.893 1.642 0 3.079-.923 3.079-2.816 0-1.198-.755-2.013-1.785-2.336Zm5.749 5.152c2.229 0 3.475-1.774 3.475-4.374 0-2.599-1.246-4.373-3.475-4.373-2.228 0-3.474 1.774-3.474 4.373 0 2.6 1.246 4.374 3.474 4.374Zm0-2.085c-.898 0-1.33-.767-1.33-2.289 0-1.521.432-2.288 1.33-2.288.899 0 1.33.767 1.33 2.288 0 1.522-.431 2.289-1.33 2.289Zm13.7-4.253c-.826 0-1.366.311-1.737.766-.324-.491-.827-.766-1.534-.766-.766 0-1.294.299-1.617.73v-.563h-1.989v5.991h1.989v-3.271c0-.599.275-1.006.827-1.006.503 0 .754.323.754.838v3.439h1.989v-3.271c0-.599.264-1.006.827-1.006.503 0 .743.323.743.838v3.439h2.001v-3.666c0-1.558-.875-2.492-2.253-2.492Zm4.2-.324c.623 0 1.151-.527 1.151-1.15 0-.623-.528-1.138-1.151-1.138s-1.15.515-1.15 1.138c0 .623.527 1.15 1.15 1.15Zm-.994 6.482h1.989v-5.991h-1.989v5.991Zm6.67-6.158c-.743 0-1.33.287-1.665.766v-.599h-1.989v5.991h1.989v-3.187c0-.719.371-1.09.982-1.09.515 0 .899.299.899.946v3.331h1.989v-3.582c0-1.726-.971-2.576-2.205-2.576ZM319.175 158.927l2.959-4.66v-1.654h-5.679v2.073h2.9l-2.96 4.661V161h5.835v-2.073h-3.055Zm7.627 2.253c2.445 0 4.397-1.905 4.397-4.373 0-2.469-1.952-4.374-4.397-4.374-2.444 0-4.397 1.905-4.397 4.374 0 2.468 1.953 4.373 4.397 4.373Zm0-2.097c-1.282 0-2.264-.935-2.264-2.276 0-1.342.982-2.277 2.264-2.277 1.282 0 2.265.935 2.265 2.277 0 1.341-.983 2.276-2.265 2.276Zm9.346 2.097c2.444 0 4.397-1.905 4.397-4.373 0-2.469-1.953-4.374-4.397-4.374s-4.397 1.905-4.397 4.374c0 2.468 1.953 4.373 4.397 4.373Zm0-2.097c-1.282 0-2.264-.935-2.264-2.276 0-1.342.982-2.277 2.264-2.277 1.282 0 2.265.935 2.265 2.277 0 1.341-.983 2.276-2.265 2.276Zm13.827-6.47h-2.133l-2.144 3.583-2.133-3.583h-2.145V161h2.145v-4.505l2.025 3.355h.216l2.036-3.367V161h2.133v-8.387Zm6.623 8.555c1.186 0 2.216-.611 2.732-1.558l-1.702-.982c-.179.359-.575.599-1.042.599-.671 0-1.174-.503-1.174-1.222s.503-1.222 1.174-1.222c.467 0 .851.239 1.042.587l1.702-.983c-.516-.934-1.546-1.545-2.732-1.545-1.821 0-3.187 1.377-3.187 3.163 0 1.785 1.366 3.163 3.187 3.163Zm7.364-6.159v.551c-.383-.455-.934-.718-1.701-.718-1.605 0-2.816 1.365-2.816 3.163 0 1.797 1.211 3.163 2.816 3.163.767 0 1.318-.264 1.701-.719V161h1.989v-5.991h-1.989Zm-1.258 4.302c-.742 0-1.258-.528-1.258-1.306 0-.779.516-1.306 1.258-1.306.743 0 1.258.527 1.258 1.306 0 .778-.515 1.306-1.258 1.306Zm4.281 1.689h1.988v-8.746h-1.988V161Zm3.015 0h1.989v-8.746H370V161Z" fill="#000"/><path d="M276.75 76a9.25 9.25 0 0 1 9.25-9.25h138a9.25 9.25 0 0 1 9.25 9.25v30a9.25 9.25 0 0 1-9.25 9.25H276.75V76Z" fill="#fff" stroke="#c59948" stroke-width="1.5"/><path d="m318.335 79.012-2.276.815.515 1.809 1.462-.371v6.134h2.144v-8.387h-1.845Zm5.98 2.947h-.599l.06-.898h2.959v-2.049h-4.936l-.348 4.924h2.684c.563 0 .911.288.911.78 0 .466-.324.778-.947.778-.731 0-1.066-.324-1.234-.875l-1.869 1.067c.503 1.294 1.677 1.893 3.103 1.893 1.654 0 3.091-.959 3.091-2.864 0-1.845-1.318-2.756-2.875-2.756Zm13.04-.719c-.827 0-1.366.312-1.737.767-.324-.49-.827-.767-1.534-.767-.767 0-1.294.3-1.618.731v-.563h-1.988v5.99h1.988v-3.27c0-.599.276-1.006.827-1.006.503 0 .755.323.755.838V87.4h1.989v-3.271c0-.599.263-1.006.827-1.006.503 0 .742.323.742.838V87.4h2.001v-3.666c0-1.558-.874-2.493-2.252-2.493Zm4.2-.323c.623 0 1.15-.527 1.15-1.15 0-.623-.527-1.138-1.15-1.138-.623 0-1.15.515-1.15 1.138 0 .623.527 1.15 1.15 1.15Zm-.994 6.482h1.988v-5.99h-1.988v5.99Zm6.67-6.159c-.743 0-1.33.288-1.666.767v-.599h-1.989v5.99h1.989v-3.186c0-.719.372-1.09.983-1.09.515 0 .898.3.898.946v3.33h1.989v-3.581c0-1.726-.97-2.576-2.204-2.576ZM319.642 102.18c1.893 0 3.187-.959 3.187-2.624 0-1.761-1.378-2.24-2.671-2.624-1.139-.336-1.438-.54-1.438-.91 0-.3.251-.552.779-.552.611 0 1.042.312 1.305.935l1.798-1.055c-.587-1.258-1.726-1.917-3.115-1.917-1.63 0-2.912 1.03-2.912 2.6s1.174 2.24 2.492 2.624c1.067.3 1.618.444 1.618.923 0 .287-.228.563-.983.563-.838 0-1.354-.395-1.653-1.114l-1.833 1.066c.443 1.234 1.605 2.085 3.426 2.085Zm8.227-6.17v.55c-.384-.455-.935-.718-1.702-.718-1.605 0-2.815 1.365-2.815 3.163 0 1.797 1.21 3.163 2.815 3.163.767 0 1.318-.264 1.702-.719V102h1.989v-5.99h-1.989Zm-1.258 4.301c-.743 0-1.258-.528-1.258-1.306 0-.78.515-1.306 1.258-1.306s1.258.527 1.258 1.306-.515 1.306-1.258 1.306Zm4.28 1.689h1.989v-8.746h-1.989V102Zm4.777-2.264h4.134c.06-.252.084-.492.084-.743 0-1.797-1.294-3.151-3.091-3.151-1.87 0-3.187 1.377-3.187 3.175 0 1.773 1.282 3.151 3.354 3.151 1.067 0 1.977-.36 2.576-1.115l-1.437-1.006a1.53 1.53 0 0 1-1.091.419c-.575 0-1.102-.155-1.342-.73Zm-.024-1.378c.168-.552.599-.839 1.175-.839.479 0 .946.216 1.126.839h-2.301Zm6.647-.6c0-.18.168-.287.443-.287.336 0 .575.18.743.515l1.678-.755c-.492-.982-1.39-1.39-2.469-1.39-1.222 0-2.408.66-2.408 2.014 0 2.12 2.924 1.725 2.924 2.348 0 .215-.192.323-.54.323-.467 0-.778-.215-.934-.659l-1.737.875c.479 1.018 1.425 1.426 2.683 1.426 1.223 0 2.588-.515 2.588-2.013 0-2.277-2.971-1.737-2.971-2.396Zm9.156 4.41c1.186 0 2.216-.611 2.732-1.558l-1.702-.982c-.179.36-.575.599-1.042.599-.671 0-1.174-.503-1.174-1.222 0-.72.503-1.222 1.174-1.222.467 0 .851.24 1.042.587l1.702-.983c-.516-.934-1.546-1.545-2.732-1.545-1.821 0-3.187 1.377-3.187 3.163 0 1.785 1.366 3.163 3.187 3.163Zm7.364-6.159v.552c-.383-.456-.934-.72-1.701-.72-1.605 0-2.816 1.367-2.816 3.164 0 1.797 1.211 3.163 2.816 3.163.767 0 1.318-.264 1.701-.719V102h1.989v-5.99h-1.989Zm-1.258 4.302c-.742 0-1.258-.528-1.258-1.306 0-.78.516-1.306 1.258-1.306.743 0 1.258.527 1.258 1.306s-.515 1.306-1.258 1.306Zm4.28 1.689h1.989v-8.746h-1.989V102Zm3.016 0h1.989v-8.746h-1.989V102Z" fill="#000"/><path d="M299.219 99.438c-5.084 0-9.219-4.136-9.219-9.22 0-5.083 4.135-9.218 9.219-9.218 5.083 0 9.219 4.135 9.219 9.219 0 5.083-4.136 9.219-9.219 9.219Z" fill="#c59948"/><path fill-rule="evenodd" clip-rule="evenodd" d="M298.477 85.098a2.59 2.59 0 1 1 1.982 4.786 2.59 2.59 0 0 1-1.982-4.786Zm.991.642a1.75 1.75 0 1 0 0 3.501 1.75 1.75 0 0 0 0-3.5ZM296.706 91.638a4.67 4.67 0 0 1 2.762-.91c.989 0 1.954.318 2.761.91a4.933 4.933 0 0 1 1.747 2.393.45.45 0 0 1-.054.398.417.417 0 0 1-.344.184h-8.221a.417.417 0 0 1-.344-.184.45.45 0 0 1-.054-.398 4.94 4.94 0 0 1 1.747-2.394Zm2.762-.037c-.815 0-1.61.262-2.275.749-.497.364-.903.84-1.189 1.39h6.928a4.036 4.036 0 0 0-1.19-1.39 3.846 3.846 0 0 0-2.274-.749Z" fill="#fff"/><path d="M276.75 18A9.25 9.25 0 0 1 286 8.75h138a9.25 9.25 0 0 1 9.25 9.25v30a9.25 9.25 0 0 1-9.25 9.25H276.75V18Z" fill="#fff" stroke="#c59948" stroke-width="1.5"/><path d="M320.709 29.18c1.545 0 2.899-.78 3.63-1.99l-1.857-1.078c-.324.612-.995.971-1.773.971-1.354 0-2.241-.934-2.241-2.276 0-1.342.887-2.277 2.241-2.277.778 0 1.449.36 1.773.959l1.857-1.067c-.731-1.21-2.097-1.989-3.63-1.989-2.54 0-4.374 1.905-4.374 4.373 0 2.469 1.834 4.374 4.374 4.374Zm7.211-.012c1.785 0 3.199-1.378 3.199-3.163s-1.414-3.163-3.199-3.163c-1.773 0-3.199 1.378-3.199 3.163s1.438 3.163 3.199 3.163Zm0-1.917c-.683 0-1.198-.504-1.198-1.246 0-.743.515-1.246 1.198-1.246.695 0 1.21.503 1.21 1.246 0 .742-.515 1.246-1.21 1.246Zm10.831-4.41c-.827 0-1.366.312-1.737.767-.324-.49-.827-.766-1.534-.766-.767 0-1.294.3-1.617.73v-.563h-1.989V29h1.989v-3.27c0-.6.275-1.007.826-1.007.504 0 .755.323.755.838V29h1.989v-3.27c0-.6.264-1.007.827-1.007.503 0 .743.323.743.838V29h2v-3.666c0-1.558-.874-2.492-2.252-2.492Zm6.896 0c-.767 0-1.318.264-1.701.72v-.552h-1.989v8.387h1.989V28.45c.383.455.934.719 1.701.719 1.605 0 2.816-1.366 2.816-3.163 0-1.797-1.211-3.163-2.816-3.163Zm-.443 4.47c-.743 0-1.258-.527-1.258-1.306 0-.78.515-1.306 1.258-1.306.742 0 1.258.527 1.258 1.306s-.516 1.306-1.258 1.306Zm8.234-4.302v.552c-.384-.456-.935-.72-1.702-.72-1.605 0-2.815 1.366-2.815 3.164 0 1.797 1.21 3.163 2.815 3.163.767 0 1.318-.264 1.702-.72V29h1.988v-5.99h-1.988Zm-1.258 4.302c-.743 0-1.258-.527-1.258-1.306 0-.78.515-1.306 1.258-1.306.742 0 1.258.527 1.258 1.306s-.516 1.306-1.258 1.306Zm7.934-4.47c-.743 0-1.33.288-1.665.767v-.599h-1.989V29h1.989v-3.187c0-.719.371-1.09.982-1.09.515 0 .899.3.899.946V29h1.989v-3.582c0-1.726-.971-2.576-2.205-2.576Zm6.845.168-.934 3.475-1.21-3.475h-2.229l2.396 5.8c-.263.538-.635.718-1.485.718v1.87c1.845.083 2.983-.672 3.618-2.493l2.049-5.895h-2.205ZM318.408 44h2.265l1.342-4.733L323.357 44h2.264l2.336-8.387h-2.3l-1.306 5.284-1.498-5.284h-1.689l-1.498 5.284-1.294-5.284h-2.312L318.408 44Zm11.135-2.264h4.133c.06-.252.084-.492.084-.743 0-1.797-1.294-3.151-3.091-3.151-1.869 0-3.187 1.377-3.187 3.175 0 1.773 1.282 3.15 3.355 3.15 1.066 0 1.977-.359 2.576-1.114l-1.438-1.006c-.287.276-.659.42-1.09.42-.575 0-1.102-.156-1.342-.731Zm-.024-1.378c.168-.551.599-.839 1.174-.839.479 0 .947.216 1.126.839h-2.3Zm8.666-2.516c-.767 0-1.318.263-1.701.718v-2.947h-1.989V44h1.989v-.551c.383.455.934.719 1.701.719 1.605 0 2.815-1.366 2.815-3.163 0-1.797-1.21-3.163-2.815-3.163Zm-.443 4.469c-.743 0-1.258-.528-1.258-1.306 0-.78.515-1.306 1.258-1.306.742 0 1.258.527 1.258 1.306 0 .778-.516 1.306-1.258 1.306Zm5.769-2.552c0-.18.167-.288.443-.288.336 0 .575.18.743.515l1.677-.755c-.491-.982-1.39-1.39-2.468-1.39-1.222 0-2.408.66-2.408 2.014 0 2.12 2.923 1.725 2.923 2.348 0 .215-.191.323-.539.323-.467 0-.779-.215-.934-.659l-1.738.875c.48 1.018 1.426 1.426 2.684 1.426 1.222 0 2.588-.515 2.588-2.013 0-2.277-2.971-1.737-2.971-2.396Zm4.621-2.24c.623 0 1.15-.528 1.15-1.151s-.527-1.138-1.15-1.138c-.623 0-1.151.515-1.151 1.138 0 .623.528 1.15 1.151 1.15ZM347.137 44h1.989v-5.99h-1.989V44Zm6.73-4.086V38.01h-1.246v-1.677l-1.989.599v1.078h-.898v1.905h.898V41.7c0 1.845.791 2.6 3.235 2.3v-1.797c-.802.048-1.246.012-1.246-.551v-1.738h1.246Zm2.468 1.822h4.133c.06-.252.084-.492.084-.743 0-1.797-1.294-3.151-3.091-3.151-1.869 0-3.187 1.377-3.187 3.175 0 1.773 1.282 3.15 3.355 3.15 1.066 0 1.977-.359 2.576-1.114l-1.438-1.006c-.288.276-.659.42-1.09.42-.576 0-1.103-.156-1.342-.731Zm-.024-1.378c.167-.551.599-.839 1.174-.839.479 0 .946.216 1.126.839h-2.3Z" fill="#000"/><path d="m295.529 30.08 2.745-2.745a.23.23 0 0 1 .16-.066.224.224 0 0 1 .159.066l.331.33a.666.666 0 0 0 .478.198.676.676 0 0 0 .478-.198l2.255-2.255a.675.675 0 0 0 0-.956l-2.255-2.256a.678.678 0 0 0-.956 0l-2.256 2.256a.67.67 0 0 0-.198.478.677.677 0 0 0 .198.478l.331.33c.021.02.037.046.049.073a.233.233 0 0 1 0 .173.235.235 0 0 1-.049.073l-2.746 2.745a.903.903 0 0 0 1.276 1.276Z" fill="#c59948"/><path d="M308.817 32.544a.79.79 0 0 0 .135-.25.909.909 0 0 0-.135-.837l-2.084-2.564a.62.62 0 0 0-.202-.167.525.525 0 0 0-.478 0 .634.634 0 0 0-.203.167l-1.631 2.007a.19.19 0 0 1-.147.075h-10.144a.19.19 0 0 1-.147-.075l-1.631-2.007a.634.634 0 0 0-.203-.167.525.525 0 0 0-.478 0 .62.62 0 0 0-.202.167l-2.084 2.564a.79.79 0 0 0-.135.25.91.91 0 0 0 .135.837l2.084 2.565a.619.619 0 0 0 .202.166.525.525 0 0 0 .478 0 .632.632 0 0 0 .203-.166l1.631-2.008a.19.19 0 0 1 .147-.075h10.144a.19.19 0 0 1 .147.075l1.631 2.008a.632.632 0 0 0 .203.166.525.525 0 0 0 .478 0 .619.619 0 0 0 .202-.166l2.084-2.565Z" fill="#c59948"/><path d="M299.886 36.35a.674.674 0 0 0-.953 0l-.33.33a.222.222 0 0 1-.245.049.23.23 0 0 1-.073-.05l-2.738-2.737a.897.897 0 0 0-1.283-.011.89.89 0 0 0-.264.644.901.901 0 0 0 .275.639l2.738 2.738c.021.02.037.046.049.073a.231.231 0 0 1 0 .172.235.235 0 0 1-.049.073l-.33.33a.685.685 0 0 0-.197.476.672.672 0 0 0 .197.477l2.25 2.25a.672.672 0 0 0 .953 0l2.25-2.25a.685.685 0 0 0 .197-.477.672.672 0 0 0-.197-.476l-2.25-2.25Z" fill="#c59948"/><defs><filter id="a" x=".199" y=".583" width="249.603" height="202.603" filterUnits="userSpaceOnUse" color-interpolation-filters="sRGB"><feFlood flood-opacity="0" result="BackgroundImageFix"/><feColorMatrix in="SourceAlpha" values="0 0 0 0 0 0 0 0 0 0 0 0 0 0 0 0 0 0 127 0" result="hardAlpha"/><feOffset dy="10.384"/><feGaussianBlur stdDeviation="8.901"/><feColorMatrix values="0 0 0 0 0 0 0 0 0 0 0 0 0 0 0 0 0 0 0.1 0"/><feBlend in2="BackgroundImageFix" result="effect1_dropShadow_1725_10193"/><feBlend in="SourceGraphic" in2="effect1_dropShadow_1725_10193" result="shape"/></filter></defs></svg>