<svg width="50" height="37" viewBox="0 0 50 37" fill="none" xmlns="http://www.w3.org/2000/svg">
<path d="M38.5 15.5056C38.5 15.3483 38.4259 15.2001 38.3001 15.1057L20.3001 1.60006C20.1223 1.46665 19.8777 1.46665 19.6999 1.60006L1.69992 15.1057C1.57406 15.2001 1.5 15.3483 1.5 15.5056V34.625C1.5 34.9011 1.72386 35.125 2 35.125H38C38.2761 35.125 38.5 34.9011 38.5 34.625V15.5056Z" fill="white" stroke="#B2B2B2" stroke-linecap="round" stroke-linejoin="round"/>
<path d="M35.625 17.7774C35.625 17.8464 35.569 17.9024 35.5 17.9024H32.9741C32.8992 17.9024 32.826 17.9248 32.764 17.9668L20.0713 26.5517C20.029 26.5803 19.9735 26.5803 19.9312 26.5517L7.2378 17.9668C7.17577 17.9248 7.1026 17.9024 7.02772 17.9024H4.5C4.43096 17.9024 4.375 17.8464 4.375 17.7774V11.25C4.375 11.181 4.43096 11.125 4.5 11.125H35.5C35.569 11.125 35.625 11.181 35.625 11.25V17.7774Z" fill="#B2B2B2" stroke="#B2B2B2" stroke-width="0.25"/>
<path d="M38.5 15.5C38.5 15.3212 38.4045 15.156 38.2496 15.0668C38.0947 14.9775 37.904 14.9778 37.7493 15.0674L20 25.3539L2.25071 15.0674C2.09603 14.9778 1.90526 14.9775 1.75036 15.0668C1.59545 15.156 1.5 15.3212 1.5 15.5V34.625C1.5 34.9011 1.72386 35.125 2 35.125H38C38.2761 35.125 38.5 34.9011 38.5 34.625V15.5Z" fill="white" stroke="#B2B2B2" stroke-linecap="round" stroke-linejoin="round"/>
<path d="M41 19C45.4183 19 49 15.4183 49 11C49 6.58172 45.4183 3 41 3C36.5817 3 33 6.58172 33 11C33 15.4183 36.5817 19 41 19Z" fill="#FFA600" stroke="#FFA600" stroke-width="2" stroke-linecap="round" stroke-linejoin="round"/>
<path d="M42.2209 9.64501C42.3956 9.44437 42.5335 9.22549 42.6347 8.98837C42.7358 8.75125 42.7772 8.46398 42.7588 8.12654C42.722 7.62494 42.5565 7.23279 42.2623 6.95007L42.2209 9.64501ZM42.2209 9.64501C42.0555 9.83653 41.8716 10.0235 41.6693 10.2059L42.2209 9.64501ZM42.1584 7.05823C42.4198 7.30943 42.5742 7.66317 42.6091 8.13611C42.6264 8.45681 42.5863 8.71937 42.4967 8.92952C42.4019 9.15175 42.2725 9.35732 42.1078 9.54651L42.1074 9.54693C41.9464 9.73336 41.7669 9.91585 41.569 10.0944C41.3712 10.2719 41.1786 10.4677 40.9911 10.6816L40.991 10.6815L40.9886 10.6844C40.8049 10.905 40.6466 11.1577 40.513 11.4416L40.513 11.4416L40.5121 11.4437C40.3827 11.7299 40.3111 12.0734 40.2921 12.4696L40.2919 12.4695L40.2919 12.4767L40.2919 12.5336C40.2919 12.9401 40.6215 13.2697 41.028 13.2697L41.0806 13.2697C41.4581 13.2697 41.7641 12.9637 41.7641 12.5862C41.7641 12.3632 41.7943 12.1715 41.8515 12.0087C41.9206 11.8291 42.0063 11.668 42.1082 11.5247C42.2231 11.367 42.3465 11.2229 42.4783 11.0921C42.6243 10.9473 42.7702 10.8071 42.9161 10.6714L42.9162 10.6715L42.9196 10.6681C43.0684 10.5205 43.2125 10.3683 43.352 10.2116C43.5058 10.0493 43.6405 9.87255 43.756 9.6816C43.8731 9.48793 43.9653 9.27592 44.033 9.04623C44.1117 8.80145 44.15 8.53084 44.15 8.23598C44.15 7.78211 44.0738 7.37403 43.9175 7.01485C43.7717 6.6586 43.5616 6.35734 43.2869 6.11371C43.0133 5.86202 42.6874 5.67439 42.3116 5.54983C41.9439 5.41577 41.5361 5.35 41.0901 5.35C40.5946 5.35 40.1421 5.43512 39.735 5.60819C39.3296 5.78053 38.9849 6.02563 38.703 6.34358C38.4226 6.65078 38.2062 7.01425 38.0531 7.43195L38.0531 7.43194L38.0521 7.43483C37.9696 7.67479 37.9125 7.92518 37.8805 8.18575C37.8285 8.60983 38.1843 8.93317 38.5812 8.93317C38.9964 8.93317 39.3049 8.59737 39.3671 8.21793C39.3831 8.11993 39.4036 8.02494 39.4283 7.93292C39.497 7.67723 39.6032 7.45925 39.7453 7.27646C39.8967 7.09329 40.0817 6.94732 40.3017 6.83821C40.5156 6.7321 40.7768 6.67599 41.0901 6.67599C41.5569 6.67599 41.9061 6.808 42.1567 7.05656L42.1567 7.05658L42.1584 7.05823Z" fill="white" stroke="white" stroke-width="0.3"/>
<path d="M41.9298 15.2592C41.9298 14.7555 41.515 14.35 41.0144 14.35C40.5139 14.35 40.099 14.7555 40.099 15.2592C40.099 15.763 40.5139 16.1685 41.0144 16.1685C41.515 16.1685 41.9298 15.763 41.9298 15.2592Z" fill="white" stroke="white" stroke-width="0.3"/>
</svg>
