<svg width="50" height="37" viewBox="0 0 50 37" fill="none" xmlns="http://www.w3.org/2000/svg">
<path d="M38.5 15.5056C38.5 15.3483 38.4259 15.2001 38.3001 15.1057L20.3001 1.60006C20.1223 1.46665 19.8777 1.46665 19.6999 1.60006L1.69992 15.1057C1.57406 15.2001 1.5 15.3483 1.5 15.5056V34.625C1.5 34.9011 1.72386 35.125 2 35.125H38C38.2761 35.125 38.5 34.9011 38.5 34.625V15.5056Z" fill="white" stroke="#B2B2B2" stroke-linecap="round" stroke-linejoin="round"/>
<path d="M35.625 17.7774C35.625 17.8464 35.569 17.9024 35.5 17.9024H32.9741C32.8992 17.9024 32.826 17.9248 32.764 17.9668L20.0713 26.5517C20.029 26.5803 19.9735 26.5803 19.9312 26.5517L7.2378 17.9668C7.17577 17.9248 7.1026 17.9024 7.02772 17.9024H4.5C4.43096 17.9024 4.375 17.8464 4.375 17.7774V11.25C4.375 11.181 4.43096 11.125 4.5 11.125H35.5C35.569 11.125 35.625 11.181 35.625 11.25V17.7774Z" fill="#B2B2B2" stroke="#B2B2B2" stroke-width="0.25"/>
<path d="M38.5 15.5C38.5 15.3212 38.4045 15.156 38.2496 15.0668C38.0947 14.9775 37.904 14.9778 37.7493 15.0674L20 25.3539L2.25071 15.0674C2.09603 14.9778 1.90526 14.9775 1.75036 15.0668C1.59545 15.156 1.5 15.3212 1.5 15.5V34.625C1.5 34.9011 1.72386 35.125 2 35.125H38C38.2761 35.125 38.5 34.9011 38.5 34.625V15.5Z" fill="white" stroke="#B2B2B2" stroke-linecap="round" stroke-linejoin="round"/>
<path d="M41 19C45.4183 19 49 15.4183 49 11C49 6.58172 45.4183 3 41 3C36.5817 3 33 6.58172 33 11C33 15.4183 36.5817 19 41 19Z" fill="#0099FF" stroke="#0099FF" stroke-width="2" stroke-linecap="round" stroke-linejoin="round"/>
<path d="M38.6095 15.6558C37.9145 15.6558 37.262 15.3852 36.7714 14.8945C36.2807 14.4045 36.0107 13.7514 36.0107 13.0564C36.0107 12.3633 36.2807 11.7108 36.7701 11.2202L38.2114 9.77953C38.7014 9.28953 39.3532 9.01953 40.047 9.01953C40.742 9.01953 41.3945 9.29016 41.8857 9.78078C42.8989 10.7945 42.8982 12.4439 41.8845 13.4577L40.447 14.8945C39.9564 15.3852 39.3039 15.6558 38.6095 15.6558ZM40.047 9.64141C39.5189 9.64141 39.0232 9.84641 38.6507 10.2189L37.2095 11.6595C36.837 12.032 36.632 12.5283 36.632 13.0564C36.632 13.5852 36.8376 14.082 37.2107 14.4545C37.9557 15.2008 39.2601 15.2014 40.0076 14.4545L41.4451 13.0177C42.217 12.247 42.2176 10.9914 41.4464 10.2202C41.0732 9.84703 40.5764 9.64141 40.047 9.64141Z" fill="white" stroke="white" stroke-width="0.5"/>
<path d="M41.337 12.9276C40.642 12.9276 39.9889 12.6576 39.4989 12.167C39.0083 11.6764 38.7383 11.0239 38.7383 10.3282C38.7383 9.63387 39.0083 8.98199 39.4977 8.49262L40.9383 7.05137C41.4289 6.56199 42.0808 6.29199 42.7745 6.29199C43.4689 6.29199 44.122 6.56262 44.6127 7.05324C45.1033 7.54449 45.3745 8.19699 45.3752 8.89074C45.3752 9.58512 45.1039 10.2382 44.612 10.7301L43.1745 12.167C42.6845 12.6576 42.032 12.9276 41.337 12.9276ZM42.7745 6.91387C42.2464 6.91387 41.7502 7.11887 41.3777 7.49137L39.9377 8.93262C39.5652 9.30449 39.3602 9.80074 39.3602 10.3289C39.3602 10.8576 39.5658 11.3545 39.9383 11.7276C40.6845 12.4745 41.9889 12.4757 42.7358 11.7276L44.1733 10.2907C44.5483 9.91574 44.7545 9.41887 44.7545 8.89074C44.7545 8.36262 44.5483 7.86637 44.1739 7.49262C43.8002 7.11949 43.3033 6.91387 42.7745 6.91387Z" fill="white" stroke="white" stroke-width="0.5"/>
</svg>
