<svg width="50" height="38" viewBox="0 0 50 38" fill="none" xmlns="http://www.w3.org/2000/svg">
<path d="M24.2503 5.10156L11.5488 5.10156C10.1681 5.10156 9.04883 6.22085 9.04883 7.60156L9.04883 34.002C9.04883 35.3827 10.1681 36.502 11.5488 36.502L24.2503 36.502C25.631 36.502 26.7503 35.3827 26.7503 34.002L26.7503 7.60156C26.7503 6.22085 25.631 5.10156 24.2503 5.10156Z" fill="white" stroke="#B2B2B2" stroke-linecap="round" stroke-linejoin="round"/>
<path d="M11.3076 6.44591L24.4908 6.44591C25.043 6.44591 25.4908 6.89362 25.4908 7.44591L25.4908 32.624L10.3076 32.624L10.3076 7.44591C10.3076 6.89363 10.7553 6.44591 11.3076 6.44591Z" fill="#F2F2F2"/>
<path d="M14.5254 15.3594H21.2735" stroke="white" stroke-linecap="round"/>
<path d="M15.3691 17.2363L20.4302 17.2363" stroke="white" stroke-linecap="round"/>
<path d="M11.8262 10.0117V10.8562" stroke="white"/>
<path d="M12.9648 9.58887V10.8556" stroke="white"/>
<path d="M14.1035 9.16699V10.8559" stroke="white"/>
<circle cx="32" cy="10" r="9" fill="#FF4F00"/>
<path d="M28.2756 4.80078L31.9991 8.52428L35.7226 4.80078L37.1964 6.27461L33.4729 9.99811L37.1964 13.7216L35.7226 15.1954L31.9991 11.4719L28.2756 15.1954L26.8018 13.7216L30.5253 9.99811L26.8018 6.27461L28.2756 4.80078Z" fill="white"/>
</svg>
