<svg width="50" height="38" viewBox="0 0 50 38" fill="none" xmlns="http://www.w3.org/2000/svg">
<path d="M23.2503 5.10156L10.5488 5.10156C9.16811 5.10156 8.04883 6.22085 8.04883 7.60156L8.04883 34.002C8.04883 35.3827 9.16812 36.502 10.5488 36.502L23.2503 36.502C24.631 36.502 25.7503 35.3827 25.7503 34.002L25.7503 7.60156C25.7503 6.22085 24.631 5.10156 23.2503 5.10156Z" fill="white" stroke="#B2B2B2" stroke-linecap="round" stroke-linejoin="round"/>
<path d="M10.3076 6.44689L23.4908 6.44689C24.043 6.44689 24.4908 6.8946 24.4908 7.44689L24.4908 32.625L9.30762 32.625L9.30762 7.44689C9.30762 6.8946 9.75533 6.44689 10.3076 6.44689Z" fill="#F2F2F2"/>
<path d="M13.5254 15.3594H20.2735" stroke="white" stroke-linecap="round"/>
<path d="M14.3691 17.2363L19.4302 17.2363" stroke="white" stroke-linecap="round"/>
<path d="M10.8262 10.0117V10.8562" stroke="white"/>
<path d="M11.9648 9.58984V10.8565" stroke="white"/>
<path d="M13.1035 9.16797V10.8569" stroke="white"/>
<path d="M31 18C35.4183 18 39 14.4183 39 10C39 5.58172 35.4183 2 31 2C26.5817 2 23 5.58172 23 10C23 14.4183 26.5817 18 31 18Z" fill="#8247F5" stroke="#8247F5" stroke-width="2" stroke-linecap="round" stroke-linejoin="round"/>
<path d="M34.5355 6.34427C33.5912 5.38662 32.3355 4.8592 31 4.8592H30.267L31.4435 3.66314L30.788 3L28.4965 5.32943L30.7581 7.66118L31.4182 7.00275L30.2499 5.79816H31C33.2464 5.79816 35.0741 7.6515 35.0741 9.9296C35.0741 12.2077 33.2464 14.061 31 14.061C28.7536 14.061 26.9259 12.2077 26.9259 9.92951V9.46003L26 9.46012V9.9296C26 11.284 26.5201 12.5573 27.4645 13.5149C28.4088 14.4726 29.6645 15 31 15C32.3355 15 33.5912 14.4726 34.5355 13.5149C35.4799 12.5572 36 11.2839 36 9.9296C36 8.57527 35.4799 7.30195 34.5355 6.34427Z" fill="white"/>
</svg>
