<svg width="50" height="38" viewBox="0 0 50 38" fill="none" xmlns="http://www.w3.org/2000/svg">
<path d="M23.2503 5.10156L10.5488 5.10156C9.16811 5.10156 8.04883 6.22085 8.04883 7.60156L8.04883 34.002C8.04883 35.3827 9.16812 36.502 10.5488 36.502L23.2503 36.502C24.631 36.502 25.7503 35.3827 25.7503 34.002L25.7503 7.60156C25.7503 6.22085 24.631 5.10156 23.2503 5.10156Z" fill="white" stroke="#B2B2B2" stroke-linecap="round" stroke-linejoin="round"/>
<path d="M10.3076 6.44689L23.4908 6.44689C24.043 6.44689 24.4908 6.8946 24.4908 7.44689L24.4908 32.625L9.30762 32.625L9.30762 7.44689C9.30762 6.8946 9.75533 6.44689 10.3076 6.44689Z" fill="#F2F2F2"/>
<path d="M13.5254 15.3594H20.2735" stroke="white" stroke-linecap="round"/>
<path d="M14.3691 17.2363L19.4302 17.2363" stroke="white" stroke-linecap="round"/>
<path d="M10.8262 10.0117V10.8562" stroke="white"/>
<path d="M11.9648 9.58984V10.8565" stroke="white"/>
<path d="M13.1035 9.16797V10.8569" stroke="white"/>
<path d="M31 18C35.4183 18 39 14.4183 39 10C39 5.58172 35.4183 2 31 2C26.5817 2 23 5.58172 23 10C23 14.4183 26.5817 18 31 18Z" fill="#FFA600" stroke="#FFA600" stroke-width="2" stroke-linecap="round" stroke-linejoin="round"/>
<path d="M32.2209 8.64501C32.3956 8.44437 32.5335 8.22549 32.6347 7.98837C32.7358 7.75125 32.7772 7.46398 32.7588 7.12654C32.722 6.62494 32.5565 6.23279 32.2623 5.95007L32.2209 8.64501ZM32.2209 8.64501C32.0555 8.83653 31.8716 9.02348 31.6693 9.20588L32.2209 8.64501ZM32.1584 6.05823C32.4198 6.30943 32.5742 6.66317 32.6091 7.13611C32.6264 7.45681 32.5863 7.71937 32.4967 7.92952C32.4019 8.15175 32.2725 8.35732 32.1078 8.54651L32.1074 8.54693C31.9464 8.73336 31.7669 8.91585 31.569 9.09435C31.3712 9.27188 31.1786 9.46767 30.9911 9.68156L30.991 9.68153L30.9886 9.68445C30.8049 9.90499 30.6466 10.1577 30.513 10.4416L30.513 10.4416L30.5121 10.4437C30.3827 10.7299 30.3111 11.0734 30.2921 11.4696L30.2919 11.4695L30.2919 11.4767L30.2919 11.5336C30.2919 11.9401 30.6215 12.2697 31.028 12.2697L31.0806 12.2697C31.4581 12.2697 31.7641 11.9637 31.7641 11.5862C31.7641 11.3632 31.7943 11.1715 31.8515 11.0087C31.9206 10.8291 32.0063 10.668 32.1082 10.5247C32.2231 10.367 32.3465 10.2229 32.4783 10.0921C32.6243 9.94731 32.7702 9.80707 32.9161 9.6714L32.9162 9.67146L32.9196 9.66805C33.0684 9.52049 33.2125 9.36834 33.352 9.2116C33.5058 9.04926 33.6405 8.87255 33.756 8.6816C33.8731 8.48793 33.9653 8.27592 34.033 8.04623C34.1117 7.80145 34.15 7.53084 34.15 7.23598C34.15 6.78211 34.0738 6.37403 33.9175 6.01485C33.7717 5.6586 33.5616 5.35734 33.2869 5.11371C33.0133 4.86202 32.6874 4.67439 32.3116 4.54983C31.9439 4.41577 31.5361 4.35 31.0901 4.35C30.5946 4.35 30.1421 4.43512 29.735 4.60819C29.3296 4.78053 28.9849 5.02563 28.703 5.34358C28.4226 5.65078 28.2062 6.01425 28.0531 6.43195L28.0531 6.43194L28.0521 6.43483C27.9696 6.67479 27.9125 6.92518 27.8805 7.18575C27.8285 7.60983 28.1843 7.93317 28.5812 7.93317C28.9964 7.93317 29.3049 7.59737 29.3671 7.21793C29.3831 7.11993 29.4036 7.02494 29.4283 6.93292C29.497 6.67723 29.6032 6.45925 29.7453 6.27646C29.8967 6.09329 30.0817 5.94732 30.3017 5.83821C30.5156 5.7321 30.7768 5.67599 31.0901 5.67599C31.5569 5.67599 31.9061 5.808 32.1567 6.05656L32.1567 6.05658L32.1584 6.05823Z" fill="white" stroke="white" stroke-width="0.3"/>
<path d="M31.9298 14.2592C31.9298 13.7555 31.515 13.35 31.0144 13.35C30.5139 13.35 30.099 13.7555 30.099 14.2592C30.099 14.763 30.5139 15.1685 31.0144 15.1685C31.515 15.1685 31.9298 14.763 31.9298 14.2592Z" fill="white" stroke="white" stroke-width="0.3"/>
</svg>
