<svg width="50" height="37" viewBox="0 0 50 37" fill="none" xmlns="http://www.w3.org/2000/svg">
<path d="M38.5 15.5056C38.5 15.3483 38.4259 15.2001 38.3001 15.1057L20.3001 1.60006C20.1223 1.46665 19.8777 1.46665 19.6999 1.60006L1.69992 15.1057C1.57406 15.2001 1.5 15.3483 1.5 15.5056V34.625C1.5 34.9011 1.72386 35.125 2 35.125H38C38.2761 35.125 38.5 34.9011 38.5 34.625V15.5056Z" fill="white" stroke="#B2B2B2" stroke-linecap="round" stroke-linejoin="round"/>
<path d="M35.625 17.7774C35.625 17.8464 35.569 17.9024 35.5 17.9024H32.9741C32.8992 17.9024 32.826 17.9248 32.764 17.9668L20.0713 26.5517C20.029 26.5803 19.9735 26.5803 19.9312 26.5517L7.2378 17.9668C7.17577 17.9248 7.1026 17.9024 7.02772 17.9024H4.5C4.43096 17.9024 4.375 17.8464 4.375 17.7774V11.25C4.375 11.181 4.43096 11.125 4.5 11.125H35.5C35.569 11.125 35.625 11.181 35.625 11.25V17.7774Z" fill="#B2B2B2" stroke="#B2B2B2" stroke-width="0.25"/>
<path d="M38.5 15.5C38.5 15.3212 38.4045 15.156 38.2496 15.0668C38.0947 14.9775 37.904 14.9778 37.7493 15.0674L20 25.3539L2.25071 15.0674C2.09603 14.9778 1.90526 14.9775 1.75036 15.0668C1.59545 15.156 1.5 15.3212 1.5 15.5V34.625C1.5 34.9011 1.72386 35.125 2 35.125H38C38.2761 35.125 38.5 34.9011 38.5 34.625V15.5Z" fill="white" stroke="#B2B2B2" stroke-linecap="round" stroke-linejoin="round"/>
<path d="M41 19C45.4183 19 49 15.4183 49 11C49 6.58172 45.4183 3 41 3C36.5817 3 33 6.58172 33 11C33 15.4183 36.5817 19 41 19Z" fill="#24DB58" stroke="#24DB58" stroke-width="2" stroke-linecap="round" stroke-linejoin="round"/>
<path d="M41 7V11.5L44 13" stroke="white" stroke-width="2" stroke-linecap="round" stroke-linejoin="round"/>
</svg>
